<svg xmlns="http://www.w3.org/2000/svg" viewBox="0 0 100 100"><g id="Wifi"><g id="historique"><path d="M54,5.58a44.48,44.48,0,0,0-43.59,35.9l-4.1-7.75A3,3,0,1,0,1,36.53L9.2,52.05a3,3,0,0,0,2,1.51,2.8,2.8,0,0,0,.7.09,3,3,0,0,0,1.73-.55L28,43a3,3,0,1,0-3.45-4.91L16,44.05A38.42,38.42,0,1,1,72.19,83.86C71.1,84.44,70,85,68.84,85.45A3,3,0,0,0,70,91.22,3,3,0,0,0,71.16,91c1.31-.55,2.61-1.17,3.87-1.85A44.43,44.43,0,0,0,54,5.58Z"/><path d="M41.19,86.24a38.52,38.52,0,0,1-7.27-3.48,3,3,0,0,0-3.14,5.12,44.47,44.47,0,0,0,8.41,4,3.18,3.18,0,0,0,1,.17,3,3,0,0,0,1-5.83Z"/><path d="M59.12,88.09a38.88,38.88,0,0,1-8.07.22,3,3,0,1,0-.46,6c1.13.09,2.28.13,3.41.13A44.89,44.89,0,0,0,59.91,94a3,3,0,1,0-.79-5.94Z"/><path d="M23.67,73.59a3,3,0,1,0-4.73,3.69c.87,1.12,1.81,2.22,2.79,3.25a3,3,0,1,0,4.36-4.13C25.24,75.51,24.43,74.56,23.67,73.59Z"/><path d="M78.81,63a3,3,0,0,1-1.35-.32L51,49.39v-28a3,3,0,0,1,6,0V45.69L80.16,57.34A3,3,0,0,1,78.81,63Z"/></g></g></svg>