<?xml version="1.0" encoding="UTF-8"?>
<svg id="icone" xmlns="http://www.w3.org/2000/svg" viewBox="0 0 100 100">
  <defs>
    <style>
      .cls-1 {
        fill: #3353d7;
      }
    </style>
  </defs>
  <path class="cls-1" d="m52.44,1.5c-1.2-1.67-3.68-1.67-4.87,0-7.77,10.86-31.43,45.51-31.43,64.39s15.16,33.87,33.87,33.87,33.87-15.16,33.87-33.87S60.2,12.36,52.44,1.5Zm-.03,90.92c-.15.02-.31.03-.46.03-1.46,0-2.73-1.06-2.96-2.55-.25-1.64.87-3.17,2.51-3.42,10.43-1.6,18.36-10.05,19.28-20.56.15-1.65,1.6-2.86,3.25-2.72,1.65.15,2.87,1.6,2.72,3.25-1.17,13.27-11.19,23.95-24.35,25.96Z"/>
</svg>
