<svg xmlns="http://www.w3.org/2000/svg" viewBox="0 0 100 100">
    <g id="Wifi">
        <path
            d="M23.12,6.67A18.13,18.13,0,0,0,5,24.78C5,36.51,21.88,59.15,22.6,60.11a.64.64,0,0,0,1,0c.18-.24,1.36-1.82,3-4.24a23.63,23.63,0,0,1-.62-5A24,24,0,0,1,40.71,28.77a17.85,17.85,0,0,0,.52-4A18.13,18.13,0,0,0,23.12,6.67Zm0,28.47A10.36,10.36,0,1,1,33.47,24.78,10.36,10.36,0,0,1,23.12,35.14Z"/>
        <path
            d="M76.88,6.67A18.13,18.13,0,0,0,58.77,24.78a17.85,17.85,0,0,0,.52,4A24,24,0,0,1,74,50.86a23.63,23.63,0,0,1-.62,5c1.67,2.42,2.85,4,3,4.24a.64.64,0,0,0,1,0c.72-1,17.6-23.6,17.6-35.33A18.13,18.13,0,0,0,76.88,6.67Zm0,28.47A10.36,10.36,0,1,1,87.24,24.78,10.36,10.36,0,0,1,76.88,35.14Z"/>
        <path
            d="M50,29.24A21.65,21.65,0,0,0,28.38,50.86c0,14,20.14,41,21,42.16a.77.77,0,0,0,1.24,0c.86-1.14,21-28.16,21-42.16A21.65,21.65,0,0,0,50,29.24Zm0,34A12.36,12.36,0,1,1,62.36,50.86,12.37,12.37,0,0,1,50,63.22Z"/>
    </g>
</svg>
