<?xml version="1.0" encoding="UTF-8"?>
<svg xmlns="http://www.w3.org/2000/svg" viewBox="0 0 127.02 155.4">
    <path fill="#3353d7" d="m58.28,116.55c0,10.73-8.7,19.43-19.43,19.43s-19.43-8.7-19.43-19.43c0-7.19,3.91-13.46,9.71-16.82v-31.74c0-5.36,4.35-9.71,9.71-9.71s9.71,4.35,9.71,9.71v31.74c5.8,3.36,9.71,9.63,9.71,16.82Zm9.71-25.69c6.04,6.85,9.71,15.84,9.71,25.69,0,21.46-17.39,38.85-38.85,38.85-.09,0-.18,0-.28,0C17.24,155.26-.11,137.69,0,116.35c.05-9.77,3.71-18.69,9.71-25.49V29.14C9.71,13.05,22.76,0,38.85,0s29.14,13.05,29.14,29.14v61.72Zm-4.86,25.69c0-10.42-5.88-15.84-9.71-20.18V29.14c0-8.03-6.54-14.57-14.57-14.57s-14.57,6.54-14.57,14.57v67.23c-3.86,4.38-9.66,9.74-9.71,20.06-.07,13.32,10.79,24.32,24.11,24.41h.17c13.39,0,24.28-10.89,24.28-24.28Z"/>
    <path fill="#3353d7" d="m95.58,29.43c-1.2-1.67-3.68-1.67-4.87,0-3.86,5.39-11.62,16.63-18.47,28.9v31.45c6.33,7.18,10.18,16.6,10.18,26.92,0,3.07-.35,6.05-.99,8.92,3.65,1.34,7.6,2.07,11.72,2.07,18.71,0,33.87-15.16,33.87-33.87s-23.68-53.53-31.44-64.39Z"/>
</svg>
