<?xml version="1.0" encoding="utf-8"?>
<!-- Generator: Adobe Illustrator 28.1.0, SVG Export Plug-In . SVG Version: 6.00 Build 0)  -->
<svg version="1.1" id="Calque_1" xmlns="http://www.w3.org/2000/svg" xmlns:xlink="http://www.w3.org/1999/xlink"
	 viewBox="0 0 595.28 841.89" style="enable-background:new 0 0 595.28 841.89;" xml:space="preserve">
<style type="text/css">
	.st0{fill:none;stroke:#000000;stroke-width:6;stroke-miterlimit:10;}
	.st1{fill:none;stroke:#FFFFFF;stroke-width:5;stroke-miterlimit:10;}
	.st2{fill:#FFFFFF;stroke:#FFFFFF;stroke-miterlimit:10;}
	.st3{fill:none;stroke:#000000;stroke-width:5;stroke-miterlimit:10;}
</style>
<g>
	<path class="st0" d="M297.5,454.02L297.5,454.02c-15.59,0-28.35-12.76-28.35-28.35v0c0-15.59,12.76-28.35,28.35-28.35h0
		c15.59,0,28.35,12.76,28.35,28.35v0C325.85,441.26,313.09,454.02,297.5,454.02z"/>
	<path class="st0" d="M297.5,439.84L297.5,439.84c-7.8,0-14.17-6.38-14.17-14.17v0c0-7.8,6.38-14.17,14.17-14.17l0,0
		c7.8,0,14.17,6.38,14.17,14.17v0C311.67,433.47,305.3,439.84,297.5,439.84z"/>
	<path class="st0" d="M297.5,468.19L297.5,468.19c-23.39,0-42.52-19.13-42.52-42.52v0c0-23.39,19.13-42.52,42.52-42.52h0
		c6.88,0,13.4,1.66,19.17,4.6c3.33,1.7,6.42,3.82,9.18,6.3c8.69,7.8,14.17,19.1,14.17,31.62v0
		C340.02,449.06,320.89,468.19,297.5,468.19z"/>
	<path class="st1" d="M297.5,369.81c0,0,0,27.52,0,37.09"/>
	<polygon class="st2" points="285.14,412.19 259.91,389.05 297.5,377.38 297.5,406.9 290.6,406.9 	"/>
	<path class="st3" d="M263.7,396.1c0,0,12.2,11.27,23.05,20.36"/>
</g>
</svg>
