<svg id="Calque_1" data-name="Calque 1" xmlns="http://www.w3.org/2000/svg" viewBox="0 0 512 512"><defs><style>.cls-1{fill:#fff;}.cls-2{fill:#283878;}</style></defs><rect class="cls-1" width="512" height="512" rx="70.81"/><path class="cls-2" d="M418.72,88.93c-45.25-47-99.2-69.61-161.85-69.61S138.53,41.94,93.28,88.93C48,134.18,25.41,189.87,25.41,254.26c0,73.09,26.11,132.26,73.09,177.51,47,40,97.46,60.91,154.89,60.91,64.39,0,120.08-24.36,165.33-69.61S486.59,322.13,486.59,256Q486.59,159.42,418.72,88.93ZM373.47,377.82c-33.07,33.07-71.35,50.47-118.34,50.47-41.77,0-80-15.66-113.12-48.73s-48.73-74.83-48.73-125.3c0-47,15.67-87,48.73-120.08,31.33-33.07,71.35-50.47,116.6-50.47,47,0,85.27,17.4,116.6,50.47s47,73.09,47,121.82C422.2,303,404.8,344.76,373.47,377.82Z"/><path class="cls-2" d="M258.61,146.49c-29.11,0-54.92,11-76.53,32.66-21.27,19.5-33,46.79-33,76.85,0,33.62,11.92,61,36.3,83.65C205.14,359.4,228.52,369,256.87,369c29.12,0,54.92-11,76.85-33,20.81-22.7,30.92-48.3,30.92-78.27,0-32.31-9.87-57.23-30.92-78.28C313.94,157.89,288,146.49,258.61,146.49ZM324.87,256c0,19.46-6.23,35.52-19.6,50.57-12.51,14.07-28.34,20.91-48.4,20.91a65.19,65.19,0,0,1-47.08-19.6c-13.88-12.33-20.92-29.79-20.92-51.88,0-20.25,6.71-37.66,19.6-50.56,12.51-14.08,28.34-20.92,48.4-20.92,18.23,0,34.58,7.11,48.61,21.13C318.16,218.34,324.87,235.75,324.87,256Z"/></svg>