<?xml version="1.0" encoding="utf-8"?>
<!-- Generator: Adobe Illustrator 21.0.0, SVG Export Plug-In . SVG Version: 6.00 Build 0)  -->
<svg version="1.1" id="Calque_1" xmlns="http://www.w3.org/2000/svg" xmlns:xlink="http://www.w3.org/1999/xlink" x="0px" y="0px"
	 viewBox="0 0 23 17" style="enable-background:new 0 0 23 17;" xml:space="preserve">
<style type="text/css">
	.st0{fill:#4D4D4D;}
</style>
<g>
	<path class="st0" d="M11.5,2.8L3.6,9.3c0,0,0,0,0,0c0,0,0,0,0,0v6.6c0,0.2,0.1,0.4,0.3,0.6c0.2,0.2,0.4,0.3,0.6,0.3h5.3v-5.3h3.5
		v5.3h5.3c0.2,0,0.4-0.1,0.6-0.3c0.2-0.2,0.3-0.4,0.3-0.6V9.3c0,0,0-0.1,0-0.1L11.5,2.8z"/>
	<path class="st0" d="M22.4,8.8l-3-2.5V0.7c0-0.1,0-0.2-0.1-0.3c-0.1-0.1-0.2-0.1-0.3-0.1h-2.6c-0.1,0-0.2,0-0.3,0.1
		c-0.1,0.1-0.1,0.2-0.1,0.3v2.7l-3.3-2.8c-0.3-0.2-0.6-0.4-1-0.4c-0.4,0-0.7,0.1-1,0.4L0.6,8.8C0.5,8.8,0.5,8.9,0.4,9.1
		c0,0.1,0,0.2,0.1,0.3l0.9,1c0.1,0.1,0.2,0.1,0.3,0.2c0.1,0,0.2,0,0.3-0.1l9.5-7.9l9.5,7.9c0.1,0.1,0.2,0.1,0.3,0.1h0
		c0.1,0,0.2-0.1,0.3-0.2l0.9-1c0.1-0.1,0.1-0.2,0.1-0.3C22.5,8.9,22.5,8.8,22.4,8.8z"/>
</g>
</svg>
