<?xml version="1.0" encoding="utf-8"?>
<!-- Generator: Adobe Illustrator 21.0.0, SVG Export Plug-In . SVG Version: 6.00 Build 0)  -->
<svg version="1.1" id="Calque_1" xmlns="http://www.w3.org/2000/svg" xmlns:xlink="http://www.w3.org/1999/xlink" x="0px" y="0px"
	 viewBox="0 0 21 21" style="enable-background:new 0 0 21 21;" xml:space="preserve">
<style type="text/css">
	.st0{fill:none;stroke:#1B1464;stroke-width:1.5;stroke-miterlimit:10;}
</style>
<path class="st0" d="M18.7,8.7h-6.1c-0.2,0-0.4-0.2-0.4-0.4V2.3c0-1-0.8-1.8-1.8-1.8S8.7,1.3,8.7,2.3v6.1c0,0.2-0.2,0.4-0.4,0.4H2.3
	c-1,0-1.8,0.8-1.8,1.8s0.8,1.8,1.8,1.8h6.1c0.2,0,0.4,0.2,0.4,0.4v6.1c0,1,0.8,1.8,1.8,1.8s1.8-0.8,1.8-1.8v-6.1
	c0-0.2,0.2-0.4,0.4-0.4h6.1c1,0,1.8-0.8,1.8-1.8S19.7,8.7,18.7,8.7z"/>
</svg>
