<?xml version="1.0" encoding="utf-8"?>
<!-- Generator: Adobe Illustrator 21.0.0, SVG Export Plug-In . SVG Version: 6.00 Build 0)  -->
<svg version="1.1" id="Calque_1" xmlns="http://www.w3.org/2000/svg" xmlns:xlink="http://www.w3.org/1999/xlink" x="0px" y="0px"
	 viewBox="0 0 19 19" style="enable-background:new 0 0 19 19;" xml:space="preserve">
<style type="text/css">
	.st0{fill:none;stroke:#1B1464;stroke-width:1.0786;stroke-miterlimit:10;}
</style>
<g>
	<g>
		<g>
			<path class="st0" d="M11.6,7.5c-0.2-0.2-0.5-0.4-0.7-0.6c-0.7-0.4-1.5-0.7-2.3-0.7c-1.2,0-2.3,0.5-3.1,1.3l-4.1,4.1
				c-0.3,0.3-0.5,0.5-0.6,0.9c-1.8,3.9,2,7.7,5.9,5.9c0.3-0.2,0.6-0.4,0.9-0.6l3.4-3.4c0.1-0.1,0.1-0.1,0.1-0.2
				c0-0.2-0.1-0.3-0.3-0.3h-0.1c-0.7,0-1.5-0.2-2.2-0.5l-3,3c-0.1,0.1-0.3,0.2-0.4,0.2c-2.3,0-2.9-2.2-1.8-3.3l4-4
				c0.7-0.7,1.9-0.7,2.6,0c0.5,0.5,1.3,0.5,1.7,0c0.2-0.2,0.3-0.5,0.4-0.8C11.9,8.1,11.8,7.8,11.6,7.5z"/>
		</g>
	</g>
	<g>
		<g>
			<path class="st0" d="M14.6,0.1c-1-0.2-2,0.2-2.7,0.9L8.1,4.8C8,4.9,8,5,8.1,5.1c0,0.1,0.2,0.2,0.3,0.2l0.3,0c0.6,0,1.3,0,1.8,0.4
				c0.1,0.1,0.3,0.1,0.4,0l2.8-2.8c0.1-0.1,0.3-0.2,0.4-0.2c2.3,0,2.9,2.2,1.8,3.3l-2.9,2.9l0,0l-1,1c-0.7,0.7-1.9,0.7-2.6,0
				c-0.5-0.5-1.3-0.5-1.7,0c-0.2,0.2-0.3,0.5-0.4,0.8c0,0.4,0.1,0.7,0.4,1c0.4,0.4,0.8,0.7,1.2,0.9c0.1,0,0.1,0.1,0.2,0.1
				c0.1,0,0.1,0,0.2,0.1c0.1,0,0.1,0,0.2,0.1l0.2,0c0.1,0,0.2,0.1,0.4,0.1c0.2,0,0.3,0,0.5,0h0.2h0l0.2,0c0.1,0,0.1,0,0.2,0H11
				l0.2,0l0.1,0l0.2,0h0c0.8-0.2,1.5-0.6,2-1.1l4-4C19.9,5.3,19,0.8,14.6,0.1z"/>
		</g>
	</g>
</g>
</svg>
