<?xml version="1.0" encoding="utf-8"?>
<!-- Generator: Adobe Illustrator 21.0.0, SVG Export Plug-In . SVG Version: 6.00 Build 0)  -->
<svg version="1.1" id="Calque_1" xmlns="http://www.w3.org/2000/svg" xmlns:xlink="http://www.w3.org/1999/xlink" x="0px" y="0px"
	 viewBox="0 0 21 20" style="enable-background:new 0 0 21 20;" xml:space="preserve">
<style type="text/css">
	.st0{fill:#1B1464;}
</style>
<g>
	<path class="st0" d="M10.5,7.9c0.4,0,0.8,0.3,0.8,0.8s-0.3,0.8-0.8,0.8S9.7,9.1,9.7,8.7S10,7.9,10.5,7.9z M13.2,8.7
		c0,0.4,0.3,0.8,0.8,0.8s0.8-0.3,0.8-0.8S14.4,7.9,14,7.9S13.2,8.2,13.2,8.7z M6.2,8.7c0,0.4,0.3,0.8,0.8,0.8s0.8-0.3,0.8-0.8
		S7.4,7.9,6.9,7.9S6.2,8.2,6.2,8.7z M19.8,16c0.9,0.9,0.9,2.4,0,3.3c-0.5,0.5-1.1,0.7-1.7,0.7s-1.2-0.2-1.7-0.7L12.2,15
		c-0.1-0.1-0.2-0.2-0.2-0.3l-0.9-3.1c-0.1-0.3,0-0.6,0.2-0.8c0.2-0.2,0.5-0.3,0.8-0.2l3.2,0.9c0.1,0,0.2,0.1,0.3,0.2L19.8,16z
		 M13.5,14.1l2.9,2.9l1.1-1.1L14.6,13L13,12.5L13.5,14.1z M18.7,17.1L18.6,17l-1.1,1.1l0.2,0.1c0.3,0.3,0.8,0.3,1.1,0
		C19,17.9,19,17.4,18.7,17.1z M10.9,16.2c-0.1,0-0.3,0-0.4,0c-1.3,0-2.5-0.2-3.6-0.7c-0.2-0.1-0.4-0.1-0.6,0L2.7,17l1.2-2.8
		c0.1-0.3,0.1-0.6-0.1-0.8c-1.1-1.3-1.7-2.8-1.7-4.4c0-4,3.8-7.3,8.4-7.3s8.4,3.3,8.4,7.3c0,1-0.2,1.9-0.7,2.9c-0.2,0.4,0,0.9,0.4,1
		s0.9,0,1-0.4c0.6-1.2,0.9-2.4,0.9-3.6C20.5,4,16,0,10.5,0C5,0,0.5,4,0.5,8.9c0,1.9,0.6,3.6,1.8,5.1l-1.8,4.2
		c-0.1,0.3-0.1,0.6,0.2,0.9c0.1,0.1,0.3,0.2,0.6,0.2c0.1,0,0.2,0,0.3-0.1l5-2.1c1.2,0.5,2.5,0.7,3.9,0.7c0.2,0,0.3,0,0.5,0
		c0.4,0,0.8-0.4,0.7-0.8C11.7,16.5,11.4,16.2,10.9,16.2z"/>
</g>
</svg>
