<?xml version="1.0" encoding="utf-8"?>
<!-- Generator: Adobe Illustrator 21.0.0, SVG Export Plug-In . SVG Version: 6.00 Build 0)  -->
<svg version="1.1" id="Calque_1" xmlns="http://www.w3.org/2000/svg" xmlns:xlink="http://www.w3.org/1999/xlink" x="0px" y="0px"
	 viewBox="0 0 20 20" style="enable-background:new 0 0 20 20;" xml:space="preserve">
<style type="text/css">
	.st0{fill:#4D4D4D;stroke:#4D4D4D;stroke-miterlimit:10;}
</style>
<g>
	<g>
		<path class="st0" d="M0.7,9.3h12.6c0.4,0,0.7,0.3,0.7,0.7s-0.3,0.7-0.7,0.7H0.7C0.3,10.7,0,10.4,0,10S0.3,9.3,0.7,9.3z"/>
		<path class="st0" d="M9.8,5.9c0.2,0,0.3,0.1,0.5,0.2l3.5,3.5c0.3,0.3,0.3,0.7,0,0.9l-3.5,3.5c-0.3,0.3-0.7,0.3-0.9,0
			c-0.3-0.3-0.3-0.7,0-0.9l3-3l-3-3c-0.3-0.3-0.3-0.7,0-0.9C9.4,5.9,9.6,5.9,9.8,5.9z"/>
		<path class="st0" d="M10.4,0.4c5.3,0,9.6,4.3,9.6,9.6s-4.3,9.6-9.6,9.6c-4,0-7.5-2.4-8.9-6.1c-0.1-0.3,0-0.7,0.4-0.8
			c0.3-0.1,0.7,0,0.8,0.4c1.3,3.2,4.3,5.2,7.7,5.2c4.6,0,8.3-3.7,8.3-8.3S15,1.7,10.4,1.7C7,1.7,4,3.8,2.7,7
			C2.6,7.3,2.2,7.5,1.9,7.3C1.6,7.2,1.4,6.8,1.5,6.5C3,2.8,6.5,0.4,10.4,0.4z"/>
	</g>
</g>
</svg>
