<?xml version="1.0" encoding="utf-8"?>
<!-- Generator: Adobe Illustrator 21.0.0, SVG Export Plug-In . SVG Version: 6.00 Build 0)  -->
<svg version="1.1" id="Calque_1" xmlns="http://www.w3.org/2000/svg" xmlns:xlink="http://www.w3.org/1999/xlink" x="0px" y="0px"
	 viewBox="0 0 253 77" style="enable-background:new 0 0 253 77;" xml:space="preserve">
<style type="text/css">
	.st0{fill:#FFFFFF;}
	.st1{fill:#FFFFFF;stroke:#FFFFFF;stroke-width:1.6782;stroke-miterlimit:10;}
	.st2{fill:none;stroke:#FFFFFF;stroke-width:2.8528;stroke-linecap:round;stroke-linejoin:round;}
	.st3{fill:#FFFFFF;stroke:#FFFFFF;stroke-width:2.8528;stroke-linecap:round;stroke-linejoin:round;}
</style>
<g>
	<path class="st0" d="M0.2,9.2H23v5.2H0.2V9.2z M22.8,22.4v5H5.3v11.9H0.2V22.4H22.8z"/>
	<path class="st0" d="M62.2,5.6v33.6h-4.6V5.6H62.2z"/>
	<path class="st0" d="M110.5,15.8l7,23.5h-5.1l-7-23.5H110.5z"/>
	<path class="st0" d="M124.5,15.8l-7,23.5h-5.1l7-23.5H124.5z"/>
	<path class="st0" d="M124.5,15.8l7,23.5h-5.1l-7-23.5H124.5z"/>
	<path class="st0" d="M145.1,16.8l-7.7,25.8h-5.6l7.7-25.8H145.1z"/>
	<path class="st0" d="M73.3,5.6v33.6h-4.6V5.6H73.3z"/>
	<path class="st0" d="M25.5,27.5c0-3.7,1.3-6.9,3.9-9.5c2.6-2.7,5.8-4,9.4-4c3.6,0,6.7,1.3,9.3,4c2.6,2.7,3.9,5.9,3.9,9.6
		c0,3.8-1.3,7-3.9,9.6c-2.6,2.6-5.8,4-9.5,4c-3.3,0-6.2-1.2-8.9-3.5C27,35.1,25.5,31.7,25.5,27.5z M29.4,27.5c0,2.9,0.9,5.3,2.8,7.2
		c1.9,1.9,4.1,2.8,6.5,2.8c2.7,0,4.9-1,6.8-2.9c1.8-1.9,2.8-4.3,2.8-7c0-2.8-0.9-5.1-2.7-7c-1.8-1.9-4-2.9-6.7-2.9
		c-2.6,0-4.9,1-6.7,2.9C30.3,22.5,29.4,24.8,29.4,27.5z"/>
	<path class="st0" d="M78.9,27.5c0-3.3,1.2-6.2,3.6-8.6c2.4-2.4,5.2-3.6,8.5-3.6c3.3,0,6.1,1.2,8.4,3.6c2.4,2.4,3.5,5.3,3.5,8.7
		c0,3.4-1.2,6.3-3.5,8.7c-2.4,2.4-5.2,3.6-8.6,3.6c-3,0-5.6-1.1-8-3.2C80.2,34.4,78.9,31.3,78.9,27.5z M83.3,27.6
		c0,2.3,0.8,4.2,2.3,5.7c1.5,1.5,3.2,2.2,5.2,2.2c2.1,0,3.9-0.8,5.4-2.3c1.5-1.5,2.2-3.4,2.2-5.6c0-2.2-0.7-4.1-2.2-5.6
		c-1.4-1.5-3.2-2.3-5.4-2.3c-2.1,0-3.9,0.8-5.4,2.3C84.1,23.5,83.3,25.3,83.3,27.6z"/>
	<path class="st1" d="M32.9,27.6c0-1.6,0.6-3.1,1.8-4.2c1.2-1.2,2.6-1.8,4.2-1.8c1.6,0,3,0.6,4.1,1.8c1.2,1.2,1.7,2.6,1.7,4.3
		c0,1.7-0.6,3.1-1.7,4.3c-1.2,1.2-2.6,1.8-4.2,1.8c-1.5,0-2.8-0.5-3.9-1.6C33.5,30.9,32.9,29.4,32.9,27.6z M34.6,27.6
		c0,1.3,0.4,2.4,1.3,3.2c0.8,0.8,1.8,1.2,2.9,1.2c1.2,0,2.2-0.4,3-1.3c0.8-0.9,1.2-1.9,1.2-3.1c0-1.2-0.4-2.3-1.2-3.1
		c-0.8-0.8-1.8-1.3-3-1.3c-1.2,0-2.2,0.4-3,1.3C35,25.3,34.6,26.4,34.6,27.6z"/>
	<path class="st2" d="M50.9,75.5c-1.4-1.5-2.3-11.9-15.5-15.4c-6.4-1.7-0.2-8.3,7.6-5.3l-5.4-21.5c0,0-0.8-3.5,2.3-4.4
		c3.1-0.8,4.1,2,4.2,2.3c0.1,0.3,2.5,9.7,2.5,9.7s0.4-2.6,2.6-3.2c2.2-0.6,3.5,1,4,2.8c-0.4-1.7,4.6-5.1,6.8,0.3c1-2.4,5.2-3,6,0.2
		c0.6,2.3,1.5,4.1,2.5,10.2"/>
	<line class="st3" x1="46.5" y1="41" x2="48" y2="46.9"/>
	<line class="st3" x1="53.1" y1="40.6" x2="54.5" y2="46"/>
	<line class="st3" x1="60" y1="41" x2="61" y2="44.9"/>
	<path class="st0" d="M208.8,46c-4.7,3.9-14.1,7.3-21.8,7.3c-15,0-27-10-27-26.8c0-17,12-27,27-27c8.2,0,14.8,2.8,19.9,7l-5.7,9.8
		c-3.8-3.1-8.3-4.8-13.9-4.8c-8.1,0-14.3,5.5-14.3,15.1c0,9.5,6.2,14.9,14.9,14.9c3.3,0,6.6-0.8,9.2-2.2v-7.7h-12.2v-9.8h24V46z"/>
	<path class="st0" d="M237.9,11.6v41h-12.5v-41h-15.6V0.2H253v11.3H237.9z"/>
</g>
</svg>
