<?xml version="1.0" encoding="utf-8"?>
<!-- Generator: Adobe Illustrator 21.0.0, SVG Export Plug-In . SVG Version: 6.00 Build 0)  -->
<svg version="1.1" id="Calque_1" xmlns="http://www.w3.org/2000/svg" xmlns:xlink="http://www.w3.org/1999/xlink" x="0px" y="0px"
	 viewBox="0 0 19 19" style="enable-background:new 0 0 19 19;" xml:space="preserve">
<style type="text/css">
	.st0{fill:#1B1464;stroke:#1B1464;stroke-width:0.3;stroke-miterlimit:10;}
</style>
<g>
	<g>
		<path class="st0" d="M9.5,0.4c-5,0-9.1,4.1-9.1,9.1s4.1,9.1,9.1,9.1s9.1-4.1,9.1-9.1S14.5,0.4,9.5,0.4z M9.9,1.2
			c4.3,0.2,7.7,3.7,7.9,7.9h-2.6C15,6.3,12.7,4,9.9,3.8L9.9,1.2L9.9,1.2z M11.8,9.9h2.7l0,0c-0.2,2.4-2.1,4.3-4.5,4.5v-2.7
			C10.8,11.6,11.6,10.8,11.8,9.9z M9.9,7.2V4.6c2.4,0.2,4.3,2.1,4.5,4.5h-2.7C11.6,8.2,10.8,7.4,9.9,7.2z M7.2,9.1H4.6
			c0.2-2.4,2.1-4.3,4.5-4.5v2.7C8.2,7.4,7.4,8.2,7.2,9.1z M9.1,11.8v2.7c-2.4-0.2-4.3-2.1-4.5-4.5h2.7C7.4,10.8,8.2,11.6,9.1,11.8z
			 M9.1,1.2v2.6C6.3,4,4,6.3,3.8,9.1H1.2C1.4,4.8,4.8,1.4,9.1,1.2z M9.1,17.8c-4.3-0.2-7.7-3.7-7.9-7.9h2.6C4,12.7,6.3,15,9.1,15.2
			V17.8z M9.5,11C8.7,11,8,10.3,8,9.5S8.7,8,9.5,8C10.3,8,11,8.7,11,9.5C11,10.3,10.3,11,9.5,11z M9.9,17.8v-2.6
			c2.8-0.2,5.1-2.5,5.3-5.3h2.6C17.6,14.2,14.2,17.6,9.9,17.8z"/>
	</g>
</g>
</svg>
