<?xml version="1.0" encoding="utf-8"?>
<!-- Generator: Adobe Illustrator 21.0.0, SVG Export Plug-In . SVG Version: 6.00 Build 0)  -->
<svg version="1.1" id="Calque_1" xmlns="http://www.w3.org/2000/svg" xmlns:xlink="http://www.w3.org/1999/xlink" x="0px" y="0px"
	 viewBox="0 0 17 25" style="enable-background:new 0 0 17 25;" xml:space="preserve">
<style type="text/css">
	.st0{fill:#4D4D4D;stroke:#4D4D4D;stroke-width:0.9511;stroke-miterlimit:10;}
</style>
<g>
	<path class="st0" d="M16.2,0.2H0.8c-0.2,0-0.3,0.1-0.3,0.3v23.9c0,0.1,0.1,0.2,0.1,0.3c0.1,0.1,0.2,0.1,0.3,0L8.5,22l7.6,2.8
		c0,0,0.1,0,0.1,0c0.1,0,0.1,0,0.2-0.1c0.1-0.1,0.1-0.2,0.1-0.3V0.6C16.5,0.4,16.4,0.2,16.2,0.2z M1.1,0.9h14.7v2H1.1V0.9z M15.9,24
		l-7.3-2.4c0,0-0.1,0-0.1,0s-0.1,0-0.1,0L1.1,24V5.5h14.7V24z"/>
</g>
</svg>
