<?xml version="1.0" encoding="utf-8"?>
<!-- Generator: Adobe Illustrator 21.0.0, SVG Export Plug-In . SVG Version: 6.00 Build 0)  -->
<svg version="1.1" id="Calque_1" xmlns="http://www.w3.org/2000/svg" xmlns:xlink="http://www.w3.org/1999/xlink" x="0px" y="0px"
	 viewBox="0 0 17 21" style="enable-background:new 0 0 17 21;" xml:space="preserve">
<style type="text/css">
	.st0{fill:#1B1464;}
</style>
<g>
	<path class="st0" d="M16.9,4.8l-0.7-2.2h-4.8V0.1H5.6v2.4H0.8L0.1,4.8C0,5.1,0,5.4,0.2,5.7s0.5,0.4,0.8,0.4h0.5l1.2,14.7h11.7
		l1.2-14.7h0.3c0.3,0,0.6-0.2,0.8-0.4C17,5.4,17,5.1,16.9,4.8z M6.8,1.4h3.4v1.2H6.8V1.4z M14.5,6.1l-1.1,13.5H3.9L2.8,6.1H14.5z
		 M1.3,4.9l0.4-1.1c0,0,0,0,0.1,0h13.5c0,0,0.1,0,0.1,0l0.4,1.1H1.3z"/>
	<path class="st0" d="M11.5,19C11.5,19,11.5,19,11.5,19c0.4,0,0.6-0.3,0.6-0.6l0.6-10.9c0-0.3-0.2-0.6-0.6-0.6
		c-0.3,0-0.6,0.2-0.6,0.6l-0.6,10.9C10.9,18.7,11.1,19,11.5,19z"/>
	<path class="st0" d="M4.9,18.4c0,0.3,0.3,0.6,0.6,0.6c0,0,0,0,0,0c0.3,0,0.6-0.3,0.6-0.6L5.5,7.4c0-0.3-0.3-0.6-0.6-0.6
		c-0.3,0-0.6,0.3-0.6,0.6L4.9,18.4z"/>
	<path class="st0" d="M8.5,19c0.3,0,0.6-0.3,0.6-0.6V7.4c0-0.3-0.3-0.6-0.6-0.6c-0.3,0-0.6,0.3-0.6,0.6v10.9C7.9,18.7,8.2,19,8.5,19
		z"/>
</g>
</svg>
