<?xml version="1.0" encoding="utf-8"?>
<!-- Generator: Adobe Illustrator 21.0.0, SVG Export Plug-In . SVG Version: 6.00 Build 0)  -->
<svg version="1.1" id="Calque_1" xmlns="http://www.w3.org/2000/svg" xmlns:xlink="http://www.w3.org/1999/xlink" x="0px" y="0px"
	 viewBox="0 0 16 16" style="enable-background:new 0 0 16 16;" xml:space="preserve">
<style type="text/css">
	.st0{fill:#1B1464;}
</style>
<g>
	<path class="st0" d="M15.1,0.2H0.9c-0.4,0-0.7,0.3-0.7,0.7v14.2c0,0.4,0.3,0.7,0.7,0.7h14.2c0.4,0,0.7-0.3,0.7-0.7V0.9
		C15.8,0.5,15.5,0.2,15.1,0.2z M14.4,14.4H1.6V1.6h12.9V14.4z"/>
	<path class="st0" d="M13.2,8c0,0.4-0.3,0.7-0.7,0.7H8.7v3.9c0,0.2-0.1,0.4-0.2,0.5c-0.1,0.1-0.3,0.2-0.5,0.2
		c-0.4,0-0.7-0.3-0.7-0.7V8.7H3.4C3.3,8.7,3.1,8.6,3,8.5C2.8,8.4,2.8,8.2,2.8,8c0-0.4,0.3-0.7,0.7-0.7h3.9V3.4
		c0-0.4,0.3-0.7,0.7-0.7c0.4,0,0.7,0.3,0.7,0.7v3.9h3.9C12.9,7.3,13.2,7.6,13.2,8z"/>
</g>
</svg>
