<?xml version="1.0" encoding="UTF-8"?>
<svg id="icone" xmlns="http://www.w3.org/2000/svg" viewBox="0 0 100 100">
  <path d="M65.15,47.5v5h-1.91c-5.51,0-10,4.49-10,10v15.35H4.24c-2.21,0-4-1.79-4-4V21.27c0-2.21,1.79-4,4-4H24.19v11.55c0,2.21,1.8,4,4,4h9.01c2.2,0,4-1.79,4-4v-11.55h12.04v20.23c0,5.52,4.49,10,10,10h1.91Z"/>
  <path d="M95.76,58.5h-10.95v4.73c0,2.21-1.79,4-4,4h-2.61c-2.21,0-4-1.79-4-4v-4.73h-10.95c-2.21,0-4,1.79-4,4v26c0,2.21,1.79,4,4,4h32.51c2.2,0,4-1.79,4-4v-26c0-2.21-1.8-4-4-4Z"/>
  <path d="M95.76,7.5h-10.95v4.73c0,2.21-1.79,4-4,4h-2.61c-2.21,0-4-1.79-4-4V7.5h-10.95c-2.21,0-4,1.79-4,4v26c0,2.21,1.79,4,4,4h32.51c2.2,0,4-1.79,4-4V11.5c0-2.21-1.8-4-4-4Z"/>
</svg>