<?xml version="1.0" encoding="UTF-8"?>
<svg id="icone" xmlns="http://www.w3.org/2000/svg" viewBox="0 0 100 100">
  <path fill="#666" d="M3.27,17.79c-1.66,0-3,1.34-3,3v61c0,1.66,1.34,3,3,3s3-1.34,3-3V20.79c0-1.66-1.34-3-3-3Z"/>
  <path fill="#666" d="M39.52,17.79c-1.66,0-3,1.34-3,3v61c0,1.66,1.34,3,3,3s3-1.34,3-3V20.79c0-1.66-1.34-3-3-3Z"/>
  <path fill="#666" d="M54.51,17.79c-1.66,0-3,1.34-3,3v61c0,1.66,1.34,3,3,3s3-1.34,3-3V20.79c0-1.66-1.34-3-3-3Z"/>
  <path fill="#666" d="M21.4,17.79c-3.38,0-6.12,2.75-6.12,6.12v54.75c0,3.38,2.75,6.12,6.12,6.12s6.12-2.75,6.12-6.12V23.92c0-3.38-2.75-6.12-6.12-6.12Z"/>
  <path fill="#666" d="M72.63,17.79c-3.38,0-6.12,2.75-6.12,6.12v54.75c0,3.38,2.75,6.12,6.12,6.12s6.12-2.75,6.12-6.12V23.92c0-3.38-2.75-6.12-6.12-6.12Z"/>
  <path fill="#666" d="M93.88,17.79c-3.38,0-6.12,2.75-6.12,6.12v54.75c0,3.38,2.75,6.12,6.12,6.12s6.12-2.75,6.12-6.12V23.92c0-3.38-2.75-6.12-6.12-6.12Z"/>
</svg>
