<?xml version="1.0" encoding="UTF-8"?>
<svg xmlns="http://www.w3.org/2000/svg" viewBox="0 0 100 100">
  <g>
    <path d="M7.89,40.18c-1.66,0-3,1.34-3,3v43.47c0,1.66,1.34,3,3,3s3-1.34,3-3V43.18c0-1.66-1.34-3-3-3Z"/>
    <path d="M37.17,40.18c-1.66,0-3,1.34-3,3v43.47c0,1.66,1.34,3,3,3s3-1.34,3-3V43.18c0-1.66-1.34-3-3-3Z"/>
    <path d="M52.29,44.7v41.95c0,1.66-1.34,3-3,3s-3-1.34-3-3V43.18c0-1.66,1.34-3,3-3,.31,0,.61,.05,.89,.14,.55,1.51,1.25,2.98,2.11,4.38Z"/>
    <path d="M22.53,40.18c-3.05,0-5.52,2.48-5.52,5.52v38.42c0,3.05,2.48,5.52,5.52,5.52s5.52-2.48,5.52-5.52V45.7c0-3.05-2.48-5.52-5.52-5.52Z"/>
    <path d="M58.41,51.55c3.24,2.53,7.02,4.2,11.05,4.89v27.69c0,3.04-2.48,5.52-5.53,5.52s-5.52-2.48-5.52-5.52V51.55Z"/>
    <path d="M75.57,56.77c3.94-.26,7.7-1.42,11.05-3.39v30.75c0,3.04-2.48,5.52-5.52,5.52s-5.53-2.48-5.53-5.52v-27.36Z"/>
  </g>
  <path d="M88.91,46.59c-.72,.73-1.49,1.39-2.29,1.99-3.29,2.47-7.13,3.87-11.05,4.18-.57,.05-1.14,.07-1.71,.07-1.47,0-2.95-.15-4.4-.46-3.88-.82-7.58-2.73-10.6-5.74-.15-.15-.31-.31-.45-.47-7.85-8.31-7.72-21.41,.41-29.57,4.15-4.16,9.6-6.24,15.04-6.24s10.86,2.06,15,6.2c8.31,8.28,8.33,21.73,.05,30.04Z"/>
</svg>
