<?xml version="1.0" encoding="UTF-8"?>
<svg id="icone" xmlns="http://www.w3.org/2000/svg" viewBox="0 0 100 100">
    <defs>
        <style>
            .cls-1 {
            fill: #3353d7;
            }
        </style>
    </defs>
    <path class="cls-1" d="M5.2,20.74c-1.96,0-3.55,1.59-3.55,3.55v51.43c0,1.96,1.59,3.55,3.55,3.55s3.55-1.59,3.55-3.55V24.28c0-1.96-1.59-3.55-3.55-3.55Z"/>
    <path class="cls-1" d="M39.85,20.74c-1.96,0-3.55,1.59-3.55,3.55v51.43c0,1.96,1.59,3.55,3.55,3.55s3.55-1.59,3.55-3.55V24.28c0-1.96-1.59-3.55-3.55-3.55Z"/>
    <path class="cls-1" d="M54.18,20.74c-1.96,0-3.55,1.59-3.55,3.55v51.43c0,1.96,1.59,3.55,3.55,3.55s3.55-1.59,3.55-3.55V24.28c0-1.96-1.59-3.55-3.55-3.55Z"/>
    <path class="cls-1" d="M22.53,20.74c-3.6,0-6.54,2.93-6.54,6.54v45.46c0,3.6,2.93,6.53,6.54,6.53s6.54-2.93,6.54-6.53V27.27c0-3.6-2.93-6.54-6.54-6.54Z"/>
    <path class="cls-1" d="M71.5,20.74c-3.6,0-6.54,2.93-6.54,6.54v45.46c0,3.6,2.93,6.53,6.54,6.53s6.54-2.93,6.54-6.53V27.27c0-3.6-2.93-6.54-6.54-6.54Z"/>
    <path class="cls-1" d="M91.81,20.74c-3.6,0-6.54,2.93-6.54,6.54v45.46c0,3.6,2.93,6.53,6.54,6.53s6.54-2.93,6.54-6.53V27.27c0-3.6-2.93-6.54-6.54-6.54Z"/>
</svg>
