<?xml version="1.0" encoding="UTF-8"?>
<svg id="icone" xmlns="http://www.w3.org/2000/svg" viewBox="0 0 100 100">
  <defs>
    <style>
      .cls-1 {
        fill: #3756ce;
      }
    </style>
  </defs>
  <path class="cls-1" d="M7.42,100.37c-3.78,0-6.86-3.09-6.87-6.86v-31.47c0-3.78,3.09-6.86,6.86-6.87h10.1c1.66,0,3,1.34,3,3v8.27h5.28v-8.27c0-1.66,1.34-3,3-3h10.1c3.77,0,6.85,3.09,6.86,6.86v31.47c0,3.78-3.09,6.86-6.86,6.87H7.42Zm0-39.2c-.47,0-.87,.39-.87,.87v31.46c0,.47,.39,.87,.87,.87h31.46c.47,0,.87-.39,.87-.87v-31.46c0-.47-.39-.86-.87-.87h-7.09v6.12c0,2.84-2.31,5.15-5.15,5.15h-6.98c-2.84,0-5.15-2.31-5.15-5.15v-6.12H7.42Z"/>
  <path class="cls-1" d="M61.67,100.37c-3.78,0-6.86-3.09-6.87-6.86v-31.47c0-3.78,3.09-6.86,6.86-6.87h10.1c1.66,0,3,1.34,3,3v8.27h5.28v-8.27c0-1.66,1.34-3,3-3h10.1c3.77,0,6.85,3.09,6.86,6.86v31.47c0,3.78-3.09,6.86-6.86,6.87h-31.47Zm0-39.2c-.47,0-.87,.39-.87,.87v31.46c0,.47,.39,.87,.87,.87h31.46c.47,0,.87-.39,.87-.87v-31.46c0-.47-.39-.86-.87-.87h-7.09v6.12c0,2.84-2.31,5.15-5.15,5.15h-6.98c-2.84,0-5.15-2.31-5.15-5.15v-6.12h-7.09Z"/>
  <path class="cls-1" d="M34.04,45.07c-3.78,0-6.86-3.09-6.87-6.86V6.74c0-3.78,3.09-6.86,6.86-6.87h10.1c1.66,0,3,1.34,3,3V11.15h5.28V2.88c0-1.66,1.34-3,3-3h10.1c3.77,0,6.85,3.09,6.86,6.86v31.47c0,3.78-3.09,6.86-6.86,6.87h-31.47Zm0-39.2c-.47,0-.87,.39-.87,.87v31.46c0,.47,.39,.87,.87,.87h31.46c.47,0,.87-.39,.87-.87V6.74c0-.47-.39-.86-.87-.87h-7.09v6.12c0,2.84-2.31,5.15-5.15,5.15h-6.98c-2.84,0-5.15-2.31-5.15-5.15V5.88h-7.09Z"/>
</svg>