<svg id="Calque_1" data-name="Calque 1" xmlns="http://www.w3.org/2000/svg" viewBox="0 0 50 46">
    <path
        d="M47.75,20.64A4.85,4.85,0,0,0,42.9,15.8H40l-8-13.49A1.5,1.5,0,1,0,29.5,3.84l7,12H13.45l7.05-12a1.5,1.5,0,1,0-2.58-1.53L10,15.8H7.1a4.83,4.83,0,0,0-1.62,9.39L9,43.21a1.49,1.49,0,0,0,1.47,1.21h29A1.49,1.49,0,0,0,41,43.21l3.54-18A4.83,4.83,0,0,0,47.75,20.64ZM38.28,41.42H11.72L8.59,25.49H41.41ZM42.9,22.49H7.1a1.85,1.85,0,1,1,0-3.69H42.9a1.85,1.85,0,1,1,0,3.69Z"/>
    <path d="M25,28.06a1.5,1.5,0,0,0-1.5,1.5V37.5a1.5,1.5,0,0,0,3,0V29.56A1.5,1.5,0,0,0,25,28.06Z"/>
    <path d="M17.06,29.36a1.5,1.5,0,0,0-2.95.52l1.38,7.82A1.49,1.49,0,0,0,17,38.94a1.14,1.14,0,0,0,.26,0,1.5,1.5,0,0,0,1.22-1.74Z"/>
    <path
        d="M34.75,28.15A1.5,1.5,0,0,0,33,29.36l-1.38,7.82a1.51,1.51,0,0,0,1.22,1.74,1.18,1.18,0,0,0,.26,0,1.5,1.5,0,0,0,1.48-1.24L36,29.88A1.5,1.5,0,0,0,34.75,28.15Z"/>
</svg>
