<?xml version="1.0" encoding="UTF-8"?>
<svg id="icone" xmlns="http://www.w3.org/2000/svg" viewBox="0 0 100 100">
  <defs>
    <style>
      .cls-1 {
        fill: #666;
      }
    </style>
  </defs>
  <g>
    <path class="cls-1" d="M67.65,10.72h-7.22V3.14c0-1.38-1.12-2.5-2.5-2.5s-2.5,1.12-2.5,2.5v7.58H16.49V3.14c0-1.38-1.12-2.5-2.5-2.5s-2.5,1.12-2.5,2.5v7.58H2.74c-1.38,0-2.5,1.12-2.5,2.5V85.74c0,1.38,1.12,2.5,2.5,2.5H47.04c-.94-1.6-1.71-3.28-2.33-5H5.24V30.8h59.91v12.83c1.63-.47,3.3-.78,5-.95V13.22c0-1.38-1.12-2.5-2.5-2.5Z"/>
    <path class="cls-1" d="M13.4,45.72h6.19c1.38,0,2.5-1.12,2.5-2.5s-1.12-2.5-2.5-2.5h-6.19c-1.38,0-2.5,1.12-2.5,2.5s1.12,2.5,2.5,2.5Z"/>
    <path class="cls-1" d="M32.1,45.72h6.19c1.38,0,2.5-1.12,2.5-2.5s-1.12-2.5-2.5-2.5h-6.19c-1.38,0-2.5,1.12-2.5,2.5s1.12,2.5,2.5,2.5Z"/>
    <path class="cls-1" d="M50.8,45.72h6.19c1.38,0,2.5-1.12,2.5-2.5s-1.12-2.5-2.5-2.5h-6.19c-1.38,0-2.5,1.12-2.5,2.5s1.12,2.5,2.5,2.5Z"/>
    <path class="cls-1" d="M13.4,59.63h6.19c1.38,0,2.5-1.12,2.5-2.5s-1.12-2.5-2.5-2.5h-6.19c-1.38,0-2.5,1.12-2.5,2.5s1.12,2.5,2.5,2.5Z"/>
    <path class="cls-1" d="M32.1,59.63h6.19c1.38,0,2.5-1.12,2.5-2.5s-1.12-2.5-2.5-2.5h-6.19c-1.38,0-2.5,1.12-2.5,2.5s1.12,2.5,2.5,2.5Z"/>
    <path class="cls-1" d="M13.4,73.55h6.19c1.38,0,2.5-1.12,2.5-2.5s-1.12-2.5-2.5-2.5h-6.19c-1.38,0-2.5,1.12-2.5,2.5s1.12,2.5,2.5,2.5Z"/>
    <path class="cls-1" d="M32.1,73.55h6.19c1.38,0,2.5-1.12,2.5-2.5s-1.12-2.5-2.5-2.5h-6.19c-1.38,0-2.5,1.12-2.5,2.5s1.12,2.5,2.5,2.5Z"/>
  </g>
  <g id="icone-2" data-name="icone">
    <path class="cls-1" d="M91.99,54.22c-5.15-5.14-11.9-7.71-18.65-7.71-1.07,0-2.13,.06-3.19,.2-1.69,.2-3.37,.56-5,1.1-3.85,1.24-7.48,3.4-10.53,6.46-7.81,7.84-9.69,19.36-5.62,28.97,.73,1.74,1.66,3.42,2.8,5,.84,1.2,1.8,2.34,2.88,3.41,5.15,5.14,11.9,7.71,18.66,7.71s13.55-2.59,18.71-7.77c10.3-10.33,10.28-27.07-.06-37.37Zm-2.78,21.97l-12.59,.02,.02,12.59c-.04,1.75-1.45,3.17-3.2,3.21-1.82,.05-3.32-1.39-3.37-3.2v-2.43l-.02-10.16h-4.9l-7.68,.02c-1.82,0-3.29-1.47-3.29-3.28-.01-1.82,1.46-3.29,3.27-3.29h7.7l4.89-.02-.02-12.59c0-.31,.04-.61,.13-.9,.39-1.38,1.65-2.39,3.16-2.39,1.81,0,3.28,1.47,3.29,3.29v12.58l12.6-.02c1.76,.04,3.17,1.45,3.22,3.21,.04,1.81-1.4,3.32-3.21,3.36Z"/>
  </g>
</svg>