<?xml version="1.0" encoding="UTF-8"?>
<svg id="icone" xmlns="http://www.w3.org/2000/svg" viewBox="0 0 100 100">
    <path fill="#3353d7" d="M67.65,10.72h-7.22V3.14c0-1.38-1.12-2.5-2.5-2.5s-2.5,1.12-2.5,2.5v7.58H16.49V3.14c0-1.38-1.12-2.5-2.5-2.5s-2.5,1.12-2.5,2.5v7.58H2.74c-1.38,0-2.5,1.12-2.5,2.5V85.74c0,1.38,1.12,2.5,2.5,2.5H47.04c-.94-1.6-1.71-3.28-2.33-5H5.24V30.8h59.91v12.83c1.63-.47,3.3-.78,5-.95V13.22c0-1.38-1.12-2.5-2.5-2.5Z"/>
    <path fill="#3353d7" d="M13.4,45.72h6.19c1.38,0,2.5-1.12,2.5-2.5s-1.12-2.5-2.5-2.5h-6.19c-1.38,0-2.5,1.12-2.5,2.5s1.12,2.5,2.5,2.5Z"/>
    <path fill="#3353d7" d="M32.1,45.72h6.19c1.38,0,2.5-1.12,2.5-2.5s-1.12-2.5-2.5-2.5h-6.19c-1.38,0-2.5,1.12-2.5,2.5s1.12,2.5,2.5,2.5Z"/>
    <path fill="#3353d7" d="M50.8,45.72h6.19c1.38,0,2.5-1.12,2.5-2.5s-1.12-2.5-2.5-2.5h-6.19c-1.38,0-2.5,1.12-2.5,2.5s1.12,2.5,2.5,2.5Z"/>
    <path fill="#3353d7" d="M13.4,59.63h6.19c1.38,0,2.5-1.12,2.5-2.5s-1.12-2.5-2.5-2.5h-6.19c-1.38,0-2.5,1.12-2.5,2.5s1.12,2.5,2.5,2.5Z"/>
    <path fill="#3353d7" d="M32.1,59.63h6.19c1.38,0,2.5-1.12,2.5-2.5s-1.12-2.5-2.5-2.5h-6.19c-1.38,0-2.5,1.12-2.5,2.5s1.12,2.5,2.5,2.5Z"/>
    <path fill="#3353d7" d="M13.4,73.55h6.19c1.38,0,2.5-1.12,2.5-2.5s-1.12-2.5-2.5-2.5h-6.19c-1.38,0-2.5,1.12-2.5,2.5s1.12,2.5,2.5,2.5Z"/>
    <path fill="#3353d7" d="M32.1,73.55h6.19c1.38,0,2.5-1.12,2.5-2.5s-1.12-2.5-2.5-2.5h-6.19c-1.38,0-2.5,1.12-2.5,2.5s1.12,2.5,2.5,2.5Z"/>
    <path fill="#3353d7" d="M91.99,54.22c-5.15-5.14-11.9-7.71-18.65-7.71-1.07,0-2.13,.06-3.19,.2-1.69,.2-3.37,.56-5,1.1-3.85,1.24-7.48,3.4-10.53,6.46-7.81,7.84-9.69,19.36-5.62,28.97,.73,1.74,1.66,3.42,2.8,5,.84,1.2,1.8,2.34,2.88,3.41,5.15,5.14,11.9,7.71,18.66,7.71s13.55-2.59,18.71-7.77c10.3-10.33,10.28-27.07-.06-37.37Zm-4.54,7.56l-15.05,27.63c-.51,.95-1.47,1.57-2.54,1.66-.12,.01-.24,.01-.36,.01-.94-.03-1.83-.46-2.43-1.21l-8.97-11.3c-1.1-1.39-.87-3.41,.52-4.51,1.39-1.1,3.41-.87,4.51,.52l5.96,7.51,12.73-23.37c.85-1.56,2.8-2.13,4.35-1.28,1.56,.85,2.13,2.8,1.28,4.35Z"/>
</svg>
