<?xml version="1.0" encoding="UTF-8"?>
<svg id="icone" xmlns="http://www.w3.org/2000/svg" viewBox="0 0 100 100">
  <g>
    <path d="M67.48,10.63h-7.22V3.05c0-1.38-1.12-2.5-2.5-2.5s-2.5,1.12-2.5,2.5v7.58H16.32V3.05c0-1.38-1.12-2.5-2.5-2.5s-2.5,1.12-2.5,2.5v7.58H2.57C1.19,10.63,.07,11.75,.07,13.13V85.65c0,1.38,1.12,2.5,2.5,2.5H46.87c-.94-1.6-1.71-3.28-2.33-5H5.07V30.71h59.91v12.83c1.63-.47,3.3-.78,5-.95V13.13c0-1.38-1.12-2.5-2.5-2.5Z"/>
    <path d="M13.23,45.63h6.19c1.38,0,2.5-1.12,2.5-2.5s-1.12-2.5-2.5-2.5h-6.19c-1.38,0-2.5,1.12-2.5,2.5s1.12,2.5,2.5,2.5Z"/>
    <path d="M31.93,45.63h6.19c1.38,0,2.5-1.12,2.5-2.5s-1.12-2.5-2.5-2.5h-6.19c-1.38,0-2.5,1.12-2.5,2.5s1.12,2.5,2.5,2.5Z"/>
    <path d="M50.62,45.63h6.19c1.38,0,2.5-1.12,2.5-2.5s-1.12-2.5-2.5-2.5h-6.19c-1.38,0-2.5,1.12-2.5,2.5s1.12,2.5,2.5,2.5Z"/>
    <path d="M13.23,59.54h6.19c1.38,0,2.5-1.12,2.5-2.5s-1.12-2.5-2.5-2.5h-6.19c-1.38,0-2.5,1.12-2.5,2.5s1.12,2.5,2.5,2.5Z"/>
    <path d="M31.93,59.54h6.19c1.38,0,2.5-1.12,2.5-2.5s-1.12-2.5-2.5-2.5h-6.19c-1.38,0-2.5,1.12-2.5,2.5s1.12,2.5,2.5,2.5Z"/>
    <path d="M13.23,73.46h6.19c1.38,0,2.5-1.12,2.5-2.5s-1.12-2.5-2.5-2.5h-6.19c-1.38,0-2.5,1.12-2.5,2.5s1.12,2.5,2.5,2.5Z"/>
    <path d="M31.93,73.46h6.19c1.38,0,2.5-1.12,2.5-2.5s-1.12-2.5-2.5-2.5h-6.19c-1.38,0-2.5,1.12-2.5,2.5s1.12,2.5,2.5,2.5Z"/>
  </g>
  <path d="M92.16,54.31c-5.15-5.14-11.9-7.71-18.65-7.71-1.07,0-2.13,.06-3.19,.2-1.69,.2-3.37,.56-5,1.1-3.85,1.24-7.48,3.4-10.53,6.46-7.81,7.84-9.69,19.36-5.62,28.97,.73,1.74,1.66,3.42,2.8,5,.84,1.2,1.8,2.34,2.88,3.41,5.15,5.14,11.9,7.71,18.66,7.71s13.55-2.59,18.71-7.77c10.3-10.33,10.28-27.07-.06-37.37Zm-33.87,20.41c0-1.52,1.23-2.75,2.75-2.75s2.77,1.23,2.77,2.75-1.21,2.75-2.72,2.75h-.04c-1.52,0-2.75-1.23-2.75-2.75Zm8.21,10.48l-1.12,1.12c-.54,.53-1.24,.8-1.94,.8s-1.41-.27-1.94-.81c-1.07-1.07-1.07-2.81,0-3.88l1.12-1.12c1.07-1.07,2.81-1.07,3.88,0,1.07,1.07,1.07,2.81,0,3.88Zm9,3.84c0,1.52-1.23,2.75-2.75,2.75s-2.75-1.23-2.75-2.75v-2.55c0-1.52,1.23-2.75,2.75-2.75s2.75,1.23,2.75,2.75v2.55Zm0-25.66c0,1.52-1.23,2.75-2.75,2.75s-2.75-1.23-2.75-2.75v-5.45c0-1.52,1.23-2.75,2.75-2.75s2.75,1.23,2.75,2.75v5.45Zm3.24,1.48l2.9-2.98c1.06-1.09,2.8-1.11,3.88-.05,1.09,1.06,1.11,2.8,.05,3.88l-2.9,2.98c-.54,.55-1.25,.83-1.97,.83s-1.38-.26-1.91-.78c-1.09-1.06-1.11-2.8-.05-3.88Zm6.47,22.87c-.53,.52-1.22,.78-1.91,.78s-1.43-.28-1.97-.83l-2.59-2.66c-1.06-1.09-1.03-2.83,.05-3.88,1.09-1.06,2.83-1.03,3.88,.05l2.59,2.66c1.06,1.09,1.03,2.83-.05,3.88Zm3.05-10.26l-4.25,.02h-.01c-1.51,0-2.74-1.22-2.75-2.73,0-1.52,1.22-2.75,2.73-2.76l4.25-.02h.01c1.51,0,2.74,1.22,2.75,2.73,0,1.52-1.22,2.75-2.73,2.76Z"/>
</svg>