<svg xmlns="http://www.w3.org/2000/svg" viewBox="0 0 100 100"><defs><style>.cls-1{fill:#3353d7;}</style></defs><g id="icone"><path class="cls-1" d="M81.76,50.93H75.71a2.12,2.12,0,1,1,0-4.24h6.05a2.12,2.12,0,0,1,0,4.24Z"/><path class="cls-1" d="M81.76,64.51H75.71a2.12,2.12,0,1,1,0-4.24h6.05a2.12,2.12,0,0,1,0,4.24Z"/><path class="cls-1" d="M81.76,78.09H75.71a2.12,2.12,0,1,1,0-4.24h6.05a2.12,2.12,0,0,1,0,4.24Z"/><path class="cls-1" d="M64,50.88a2.12,2.12,0,0,0-.48-4.19H58.59Z"/><path class="cls-1" d="M92.16,17.41H84.79V9.7a2.12,2.12,0,0,0-4.24,0v7.71H41.92V9.7a2.12,2.12,0,0,0-4.24,0v7.71H28.82a2.12,2.12,0,0,0-2.12,2.12V52.21h4.24V36.42H90V88.19H30.94v-16H26.7V90.3a2.12,2.12,0,0,0,2.12,2.12H92.16a2.12,2.12,0,0,0,2.12-2.12V19.53A2.12,2.12,0,0,0,92.16,17.41Z"/><path class="cls-1" d="M63.58,73.85l-5.21,4.24h5.14a2.12,2.12,0,0,0,.07-4.24Z"/><path class="cls-1" d="M44.7,82.32A6,6,0,0,0,48.49,81L66,66.77a6,6,0,0,0-.11-9.4L48.37,43.84A6,6,0,0,0,40,44.9,6,6,0,0,0,41,53.32l3.73,2.89h-33a6,6,0,0,0,0,12H45.16l-4.25,3.46A6,6,0,0,0,44.7,82.32Z"/></g></svg>