<svg xmlns="http://www.w3.org/2000/svg" viewBox="0 0 100 100"><defs><style>.cls-1{fill:#3353d7;}</style></defs><g id="icone"><path class="cls-1" d="M23.34,50.93H17.29a2.12,2.12,0,0,1,0-4.24h6.05a2.12,2.12,0,0,1,0,4.24Z"/><path class="cls-1" d="M41.58,50.93h-6a2.12,2.12,0,0,1,0-4.24h6a2.12,2.12,0,0,1,0,4.24Z"/><path class="cls-1" d="M59.83,50.93h-6a2.12,2.12,0,0,1,0-4.24h6a2.12,2.12,0,0,1,0,4.24Z"/><path class="cls-1" d="M23.34,64.51H17.29a2.12,2.12,0,1,1,0-4.24h6.05a2.12,2.12,0,1,1,0,4.24Z"/><path class="cls-1" d="M23.34,78.09H17.29a2.12,2.12,0,1,1,0-4.24h6.05a2.12,2.12,0,0,1,0,4.24Z"/><path class="cls-1" d="M41.58,78.09h-6a2.12,2.12,0,1,1,0-4.24h6a2.12,2.12,0,0,1,0,4.24Z"/><path class="cls-1" d="M59.83,78.09h-6a2.12,2.12,0,0,1,0-4.24h6a2.12,2.12,0,1,1,0,4.24Z"/><path class="cls-1" d="M71.77,82.91a5.94,5.94,0,0,0,3.78-1.35L93,67.35a6,6,0,0,0-.11-9.4L75.44,44.42a6,6,0,0,0-7.35,9.48l3.73,2.89h-33a6,6,0,1,0,0,12H72.23L68,72.25a6,6,0,0,0,3.79,10.66Z"/><path class="cls-1" d="M71.77,86.91a10.06,10.06,0,0,1-3.66-.71v2H9V36.42h59.1v3.44a10,10,0,0,1,3.66-.7l.58,0V19.53a2.12,2.12,0,0,0-2.12-2.12H62.86V9.7a2.12,2.12,0,1,0-4.24,0v7.71H20V9.7a2.12,2.12,0,1,0-4.24,0v7.71H6.89a2.12,2.12,0,0,0-2.12,2.12V90.3a2.12,2.12,0,0,0,2.12,2.12H70.23a2.12,2.12,0,0,0,2.12-2.12V86.88C72.16,86.89,72,86.91,71.77,86.91Z"/></g></svg>