<svg id="Calque_1" data-name="Calque 1" xmlns="http://www.w3.org/2000/svg" viewBox="0 0 80 100"><defs><style>.cls-1{fill:#3353d7;}</style></defs><path class="cls-1" d="M22.06,51.1H14.94a2.5,2.5,0,1,1,0-5h7.12a2.5,2.5,0,0,1,0,5Z"/><path class="cls-1" d="M43.56,51.1H36.44a2.5,2.5,0,0,1,0-5h7.12a2.5,2.5,0,0,1,0,5Z"/><path class="cls-1" d="M65.06,51.1H57.94a2.5,2.5,0,0,1,0-5h7.12a2.5,2.5,0,0,1,0,5Z"/><path class="cls-1" d="M22.06,67.1H14.94a2.5,2.5,0,0,1,0-5h7.12a2.5,2.5,0,1,1,0,5Z"/><path class="cls-1" d="M43.56,67.1H36.44a2.5,2.5,0,1,1,0-5h7.12a2.5,2.5,0,1,1,0,5Z"/><path class="cls-1" d="M65.06,67.1H57.94a2.5,2.5,0,0,1,0-5h7.12a2.5,2.5,0,1,1,0,5Z"/><path class="cls-1" d="M22.06,83.1H14.94a2.5,2.5,0,1,1,0-5h7.12a2.5,2.5,0,1,1,0,5Z"/><path class="cls-1" d="M43.56,83.1H36.44a2.5,2.5,0,0,1,0-5h7.12a2.5,2.5,0,0,1,0,5Z"/><path class="cls-1" d="M65.06,83.1H57.94a2.5,2.5,0,0,1,0-5h7.12a2.5,2.5,0,0,1,0,5Z"/><path class="cls-1" d="M77.32,11.6H68.64V2.51a2.5,2.5,0,0,0-5,0V11.6H18.12V2.51a2.5,2.5,0,0,0-5,0V11.6H2.68a2.5,2.5,0,0,0-2.5,2.5V97.49a2.5,2.5,0,0,0,2.5,2.5H77.32a2.5,2.5,0,0,0,2.5-2.5V14.1A2.5,2.5,0,0,0,77.32,11.6ZM74.82,95H5.18v-61H74.82Z"/></svg>
