<?xml version="1.0" encoding="utf-8"?>
<svg version="1.1" id="Calque_1" xmlns="http://www.w3.org/2000/svg" xmlns:xlink="http://www.w3.org/1999/xlink" x="0px" y="0px"
     viewBox="0 0 100 100" style="enable-background:new 0 0 100 100;" xml:space="preserve">
<path fill="#D73353" d="M50,0.9c-27.1,0-49,21.9-49,49s21.9,49,49,49s49-21.9,49-49S77.1,0.9,50,0.9z M76.8,67.5c2.4,2.5,2.4,6.5,0,9
	c-2.5,2.6-6.6,2.7-9.2,0.2L50,59.1L32.4,76.7c-2.5,2.4-6.5,2.4-9,0c-2.6-2.5-2.7-6.6-0.2-9.2l17.6-17.6L23.2,32.3
	c-2.5-2.5-2.5-6.7,0-9.2c2.5-2.5,6.7-2.5,9.2,0L50,40.7l17.6-17.6c2.5-2.5,6.7-2.5,9.2,0c2.5,2.5,2.5,6.7,0,9.2L59.2,49.9L76.8,67.5
	z"/>
</svg>
