<svg id="Panier" xmlns="http://www.w3.org/2000/svg" viewBox="0 0 100 100"><defs><style>.cls-1{fill:#3353d7;}</style></defs><path class="cls-1" d="M94.62,82.33H26.56a9.51,9.51,0,0,0-5.21-5.74V14.73a3,3,0,0,0-1.65-2.68l-13-6.49A3,3,0,0,0,4,10.93l11.31,5.65V76.05A9.48,9.48,0,1,0,26.51,88.33H91.62v3.43a3,3,0,0,0,6,0V85.33A3,3,0,0,0,94.62,82.33ZM17.54,88.76A3.49,3.49,0,1,1,21,85.27,3.49,3.49,0,0,1,17.54,88.76Z"/><path class="cls-1" d="M82.62,53.27H61v7.09a3,3,0,0,1-3,3H55.24a3,3,0,0,1-3-3V53.27H30.57a3,3,0,0,0-3,3V76.7a3,3,0,0,0,3,3H82.62a3,3,0,0,0,3-3V56.27A3,3,0,0,0,82.62,53.27Z"/><path class="cls-1" d="M71,19.07H55.69v6a3,3,0,0,1-3,3H50a3,3,0,0,1-3-3v-6H30.9a3,3,0,0,0-3,3V47.7a3,3,0,0,0,3,3H71a3,3,0,0,0,3-3V22.07A3,3,0,0,0,71,19.07Z"/></svg>