<svg id="Médoc" xmlns="http://www.w3.org/2000/svg" viewBox="0 0 100 100">
    <path fill="#3353d7"
          class="cls-1"
          d="M91.45,62.38l-11.36,1.3v.5a6.59,6.59,0,0,1-4.48,6c-5,1.6-16.54,4.09-17,4.19h-.49L44.93,74a2.39,2.39,0,0,1-2.4-2.49A2.31,2.31,0,0,1,45,69.26l12.25.3a3.65,3.65,0,0,0,1.09-.1c2.79-.6,11.26-2.49,15.25-3.79a1.89,1.89,0,0,0,1.59-2c.2-2.29-1.29-5.18-2.59-5.88-1.69-.9-6.77-.5-11.26-.2a58.07,58.07,0,0,1-10.26.3,55.88,55.88,0,0,1-7.87-1.49c-7.27-1.5-12-.7-16.44,1-1.69.7-3.38,1.3-4.88,2a60,60,0,0,1-10.06,3l-6.48,1.3A3.32,3.32,0,0,0,2.68,67V85.6a3.35,3.35,0,0,0,4,3.28l6.67-1.39a19.46,19.46,0,0,1,8,.1l20.33,4.48A19.07,19.07,0,0,0,55.49,91L95.54,71.85a2.38,2.38,0,0,0,1.29-1.3C98.62,65.57,95.14,62,91.45,62.38Z"/>
    <path fill="#3353d7"
          class="cls-1"
          d="M47.83,43.8A2.49,2.49,0,0,0,50,45.06a2.52,2.52,0,0,0,2.18-1.26l8.16-14.14a2.52,2.52,0,0,0-2.17-3.77H52.51V9.62a2.51,2.51,0,1,0-5,0V25.89H41.83a2.52,2.52,0,0,0-2.17,3.77Z"/>
</svg>
