<?xml version="1.0" encoding="utf-8"?>
<!-- Generator: Adobe Illustrator 26.3.1, SVG Export Plug-In . SVG Version: 6.00 Build 0)  -->
<svg version="1.1" id="Calque_1" xmlns="http://www.w3.org/2000/svg" xmlns:xlink="http://www.w3.org/1999/xlink" x="0px" y="0px"
	 viewBox="0 0 100 100" style="enable-background:new 0 0 100 100;" xml:space="preserve">
<style type="text/css">
	.st0{fill:#3353D8;}
</style>
<path class="st0" d="M96.5,41.6C95.8,28.4,85.2,17.8,72,17.1l0,0H28C13.7,17.1,2,28.7,2,43c0,9.4,5,18,13.2,22.6L10,79.8
	c-0.4,1.2,0.2,2.6,1.4,3c0.3,0.1,0.5,0.1,0.8,0.1c0.4,0,0.8-0.1,1.1-0.3L38.2,69H72C86.3,68.2,97.3,55.9,96.5,41.6z M23.7,47.9
	c-2.7,0-4.9-2.2-4.9-4.9l0,0c0-2.7,2.2-4.9,4.9-4.9s4.9,2.2,4.9,4.9S26.4,47.9,23.7,47.9z M50.4,47.9c-2.7,0-4.9-2.2-4.9-4.9l0,0
	c0-2.7,2.2-4.9,4.9-4.9s4.9,2.2,4.9,4.9S53.1,47.9,50.4,47.9z M77.2,47.9c-2.7,0-4.9-2.2-4.9-4.9l0,0c0-2.7,2.2-4.9,4.9-4.9
	c2.7,0,4.9,2.2,4.9,4.9S79.9,47.9,77.2,47.9z"/>
</svg>
