<svg xmlns="http://www.w3.org/2000/svg" viewBox="0 0 512 512">
    <circle cx="256" cy="256" r="256" fill="#d5a150"/>
    <path
        d="M415.237 55.557c34.771 43.71 55.556 99.043 55.556 159.236 0 141.385-114.615 256-256 256-60.193 0-115.527-20.785-159.237-55.556C102.456 474.194 174.808 512 256 512c141.385 0 256-114.615 256-256 0-81.191-37.806-153.544-96.763-200.443z"
        fill="#ad712c"/>
    <path
        d="M139.553 145.28a20.54 20.54 0 01-14.569-6.035c-22.091-22.091-22.091-58.037 0-80.13 10.702-10.702 24.929-16.595 40.065-16.595 15.135 0 29.363 5.894 40.065 16.595 8.046 8.047 8.046 21.092 0 29.139-8.048 8.045-21.093 8.046-29.139 0a15.35 15.35 0 00-10.926-4.527 15.35 15.35 0 00-10.926 4.527c-6.026 6.026-6.026 15.829 0 21.853 8.047 8.047 8.047 21.092 0 29.138a20.54 20.54 0 01-14.57 6.035z"
        fill="#c98a2e"/>
    <circle cx="165.045" cy="99.186" r="36.056" fill="#674230"/>
    <path
        d="M129.154 95.733l-.037.416c-.983 11.929 8.817 21.985 20.779 21.551a37.47 37.47 0 002.393-.164c16.973-1.712 30.582-15.435 32.172-32.42l.036-.415c.983-11.928-8.817-21.985-20.779-21.551a37.47 37.47 0 00-2.393.164c-16.972 1.711-30.581 15.434-32.171 32.419z"
        fill="#7a5436"/>
    <path
        d="M57.139 310.109a20.54 20.54 0 01-14.569-6.035c-22.091-22.091-22.091-58.037 0-80.13 10.702-10.701 24.93-16.594 40.065-16.594s29.363 5.894 40.065 16.595c8.046 8.047 8.046 21.092 0 29.139-8.048 8.045-21.093 8.046-29.139 0a15.35 15.35 0 00-10.926-4.527 15.35 15.35 0 00-10.926 4.527c-6.026 6.026-6.026 15.829 0 21.853 8.047 8.047 8.047 21.092 0 29.138a20.544 20.544 0 01-14.57 6.034z"
        fill="#c98a2e"/>
    <circle cx="82.631" cy="264.015" r="36.056" fill="#674230"/>
    <path
        d="M46.739 260.562l-.037.416c-.983 11.93 8.817 21.985 20.779 21.551a37.47 37.47 0 002.393-.164c16.973-1.712 30.582-15.435 32.172-32.42l.036-.415c.983-11.928-8.817-21.985-20.779-21.551a37.47 37.47 0 00-2.393.164c-16.971 1.711-30.58 15.434-32.171 32.419z"
        fill="#7a5436"/>
    <path
        d="M129.252 413.127a20.54 20.54 0 01-14.569-6.035c-22.091-22.091-22.091-58.037 0-80.13 10.702-10.702 24.929-16.595 40.065-16.595s29.363 5.894 40.065 16.595c8.046 8.047 8.046 21.092 0 29.139-8.048 8.045-21.093 8.046-29.139 0-2.918-2.919-6.799-4.527-10.926-4.527s-8.008 1.608-10.926 4.527c-6.026 6.026-6.026 15.829 0 21.853 8.047 8.047 8.047 21.092 0 29.138a20.541 20.541 0 01-14.57 6.035z"
        fill="#c98a2e"/>
    <circle cx="154.743" cy="367.033" r="36.056" fill="#674230"/>
    <path
        d="M118.852 363.58l-.037.416c-.983 11.929 8.817 21.985 20.779 21.551a37.47 37.47 0 002.393-.164c16.973-1.712 30.582-15.435 32.172-32.42l.036-.415c.983-11.928-8.817-21.984-20.779-21.551a37.47 37.47 0 00-2.393.164c-16.972 1.711-30.58 15.434-32.171 32.419z"
        fill="#7a5436"/>
    <path
        d="M242.572 485.24a20.54 20.54 0 01-14.569-6.035c-22.091-22.091-22.091-58.037 0-80.13 10.702-10.702 24.929-16.595 40.065-16.595 15.135 0 29.363 5.894 40.065 16.595 8.046 8.047 8.046 21.092 0 29.139-8.048 8.045-21.093 8.046-29.139 0a15.35 15.35 0 00-10.926-4.527 15.35 15.35 0 00-10.926 4.527c-6.026 6.026-6.026 15.829 0 21.853 8.047 8.047 8.047 21.092 0 29.138a20.541 20.541 0 01-14.57 6.035z"
        fill="#c98a2e"/>
    <circle cx="268.063" cy="439.146" r="36.056" fill="#674230"/>
    <path
        d="M232.172 435.692l-.037.416c-.983 11.929 8.817 21.985 20.779 21.551a37.47 37.47 0 002.393-.164c16.973-1.712 30.582-15.435 32.172-32.42l.036-.415c.983-11.928-8.817-21.984-20.779-21.551a37.47 37.47 0 00-2.393.164c-16.972 1.712-30.581 15.435-32.171 32.419z"
        fill="#7a5436"/>
    <path
        d="M263.175 196.929a20.54 20.54 0 01-14.569-6.035c-22.091-22.091-22.091-58.037 0-80.13 10.702-10.702 24.929-16.595 40.065-16.595s29.363 5.894 40.065 16.595c8.046 8.047 8.046 21.092 0 29.139-8.048 8.045-21.093 8.046-29.139 0-2.919-2.919-6.799-4.527-10.926-4.527s-8.008 1.608-10.926 4.527c-6.026 6.026-6.026 15.829 0 21.853 8.047 8.047 8.047 21.092 0 29.138a20.54 20.54 0 01-14.57 6.035z"
        fill="#c98a2e"/>
    <circle cx="288.667" cy="150.829" r="36.056" fill="#674230"/>
    <path
        d="M252.776 147.382l-.037.416c-.983 11.929 8.817 21.985 20.779 21.551a37.47 37.47 0 002.393-.164c16.973-1.712 30.582-15.435 32.172-32.42l.036-.415c.983-11.928-8.817-21.985-20.779-21.551a37.47 37.47 0 00-2.393.164c-16.972 1.711-30.581 15.434-32.171 32.419z"
        fill="#7a5436"/>
    <path
        d="M386.797 382.222a20.54 20.54 0 01-14.569-6.035c-22.091-22.091-22.091-58.037 0-80.13 10.702-10.702 24.929-16.595 40.065-16.595s29.363 5.894 40.065 16.595c8.046 8.047 8.046 21.092 0 29.139-8.048 8.045-21.093 8.046-29.139 0a15.35 15.35 0 00-10.926-4.527 15.35 15.35 0 00-10.926 4.527c-6.026 6.026-6.026 15.829 0 21.853 8.047 8.047 8.047 21.092 0 29.138a20.541 20.541 0 01-14.57 6.035z"
        fill="#c98a2e"/>
    <circle cx="412.289" cy="336.127" r="36.056" fill="#674230"/>
    <path
        d="M376.397 332.674c-.013.139-.025.277-.036.416-.983 11.929 8.817 21.985 20.779 21.551a37.47 37.47 0 002.393-.164c16.973-1.712 30.582-15.435 32.172-32.42l.036-.415c.983-11.928-8.817-21.984-20.779-21.551a37.47 37.47 0 00-2.393.164c-16.972 1.712-30.581 15.435-32.172 32.419z"
        fill="#7a5436"/>
    <path
        d="M376.495 186.488a20.54 20.54 0 01-14.569-6.035c-22.091-22.091-22.091-58.037 0-80.13 10.702-10.702 24.929-16.595 40.065-16.595s29.363 5.894 40.065 16.595c8.046 8.047 8.046 21.092 0 29.139-8.048 8.045-21.093 8.046-29.139 0-2.919-2.918-6.799-4.527-10.926-4.527s-8.008 1.608-10.926 4.527c-6.026 6.026-6.026 15.829 0 21.853 8.047 8.047 8.047 21.092 0 29.138a20.54 20.54 0 01-14.57 6.035z"
        fill="#c98a2e"/>
    <circle cx="401.987" cy="140.393" r="36.056" fill="#674230"/>
    <path
        d="M366.095 136.94c-.013.139-.025.277-.036.416-.983 11.93 8.817 21.985 20.779 21.551a37.47 37.47 0 002.393-.164c16.973-1.712 30.582-15.435 32.172-32.42l.036-.415c.983-11.928-8.817-21.985-20.779-21.551a37.47 37.47 0 00-2.393.164c-16.972 1.711-30.581 15.434-32.172 32.419z"
        fill="#7a5436"/>
    <path
        d="M221.968 310.109a20.54 20.54 0 01-14.569-6.035c-22.091-22.091-22.091-58.037 0-80.13 10.702-10.702 24.929-16.595 40.065-16.595s29.363 5.894 40.065 16.595c8.046 8.047 8.046 21.092 0 29.139-8.048 8.045-21.093 8.046-29.139 0-2.918-2.919-6.799-4.527-10.926-4.527s-8.008 1.608-10.926 4.527c-6.026 6.026-6.026 15.829 0 21.853 8.047 8.047 8.047 21.092 0 29.138a20.541 20.541 0 01-14.57 6.035z"
        fill="#c98a2e"/>
    <circle cx="247.46" cy="264.015" r="36.056" fill="#674230"/>
    <path
        d="M211.568 260.562l-.037.416c-.983 11.93 8.817 21.985 20.779 21.551a37.47 37.47 0 002.393-.164c16.973-1.712 30.582-15.435 32.172-32.42l.036-.415c.983-11.928-8.817-21.985-20.779-21.551a37.47 37.47 0 00-2.393.164c-16.971 1.711-30.58 15.434-32.171 32.419z"
        fill="#7a5436"/>
    <g fill="#ad712c">
        <circle cx="129.803" cy="294.632" r="7.726"/>
        <circle cx="181.312" cy="294.632" r="7.726"/>
        <circle cx="155.557" cy="248.274" r="7.726"/>
        <circle cx="62.841" cy="340.99" r="7.726"/>
        <circle cx="165.859" cy="454.31" r="7.726"/>
        <circle cx="196.765" cy="413.103" r="7.726"/>
        <circle cx="248.274" cy="351.292" r="7.726"/>
        <circle cx="330.688" cy="320.386" r="7.726"/>
        <circle cx="310.085" cy="340.99" r="7.726"/>
        <circle cx="340.99" cy="371.895" r="7.726"/>
        <circle cx="340.99" cy="433.706" r="7.726"/>
        <circle cx="454.31" cy="217.368" r="7.726"/>
        <circle cx="423.404" cy="423.404" r="7.726"/>
        <circle cx="268.877" cy="31.936" r="7.726"/>
        <circle cx="83.445" cy="124.652" r="7.726"/>
        <circle cx="42.237" cy="186.463" r="7.726"/>
        <circle cx="160.708" cy="201.915" r="7.726"/>
        <circle cx="191.614" cy="186.463" r="7.726"/>
        <circle cx="160.708" cy="171.01" r="7.726"/>
        <circle cx="304.934" cy="248.274" r="7.726"/>
        <circle cx="237.972" cy="93.746" r="7.726"/>
        <circle cx="335.839" cy="186.463" r="7.726"/>
        <circle cx="351.292" cy="232.821" r="7.726"/>
        <circle cx="382.197" cy="232.821" r="7.726"/>
        <circle cx="382.197" cy="263.726" r="7.726"/>
        <circle cx="325.537" cy="78.294" r="7.726"/>
        <circle cx="356.443" cy="62.841" r="7.726"/>
    </g>
</svg>
