<?xml version="1.0" encoding="UTF-8"?>
<svg id="icone" xmlns="http://www.w3.org/2000/svg" viewBox="0 0 100 100">
  <defs>
    <style>
      .cls-1 {
        fill: #d73353;
      }
    </style>
  </defs>
  <path class="cls-1" d="m95.28,39.31L60.69,4.72c-2.86-2.86-6.65-4.43-10.69-4.43s-7.84,1.57-10.69,4.43L4.72,39.31c-5.9,5.9-5.9,15.49,0,21.38l34.59,34.59c2.86,2.86,6.65,4.43,10.69,4.43s7.84-1.57,10.69-4.43l34.59-34.59c5.9-5.9,5.9-15.49,0-21.38Zm-8.49,12.9l-34.59,34.59c-.61.61-1.41.91-2.21.91s-1.6-.3-2.21-.91L13.21,52.21c-1.22-1.22-1.22-3.19,0-4.41L47.79,13.21c.61-.61,1.41-.91,2.21-.91s1.6.3,2.21.91l34.59,34.59c1.22,1.22,1.22,3.19,0,4.41Z"/>
  <path class="cls-1" d="m53.74,24.55c-2.06-2.06-5.42-2.06-7.49,0l-21.71,21.71c-2.06,2.06-2.06,5.42,0,7.49l21.71,21.71c1.03,1.03,2.39,1.55,3.74,1.55s2.71-.52,3.74-1.55l21.71-21.71c2.06-2.06,2.06-5.42,0-7.49l-21.71-21.71Z"/>
</svg>
