<?xml version="1.0" encoding="UTF-8" standalone="no"?>
<!-- Generator: Adobe Illustrator 21.0.0, SVG Export Plug-In . SVG Version: 6.00 Build 0)  -->

<svg
   xmlns:dc="http://purl.org/dc/elements/1.1/"
   xmlns:cc="http://creativecommons.org/ns#"
   xmlns:rdf="http://www.w3.org/1999/02/22-rdf-syntax-ns#"
   xmlns:svg="http://www.w3.org/2000/svg"
   xmlns="http://www.w3.org/2000/svg"
   xmlns:sodipodi="http://sodipodi.sourceforge.net/DTD/sodipodi-0.dtd"
   xmlns:inkscape="http://www.inkscape.org/namespaces/inkscape"
   version="1.1"
   id="Calque_1"
   x="0px"
   y="0px"
   viewBox="0 0 20 20"
   style="enable-background:new 0 0 20 20;"
   xml:space="preserve"
   sodipodi:docname="deco.svg"
   inkscape:version="0.92.4 (5da689c313, 2019-01-14)"><metadata
   id="metadata4579"><rdf:RDF><cc:Work
       rdf:about=""><dc:format>image/svg+xml</dc:format><dc:type
         rdf:resource="http://purl.org/dc/dcmitype/StillImage" /></cc:Work></rdf:RDF></metadata><defs
   id="defs4577" /><sodipodi:namedview
   pagecolor="#ffffff"
   bordercolor="#666666"
   borderopacity="1"
   objecttolerance="10"
   gridtolerance="10"
   guidetolerance="10"
   inkscape:pageopacity="0"
   inkscape:pageshadow="2"
   inkscape:window-width="1920"
   inkscape:window-height="1017"
   id="namedview4575"
   showgrid="false"
   inkscape:zoom="64"
   inkscape:cx="12.578518"
   inkscape:cy="12.214114"
   inkscape:window-x="-8"
   inkscape:window-y="-8"
   inkscape:window-maximized="1"
   inkscape:current-layer="g4570" />
<style
   type="text/css"
   id="style4562">
	.st0{fill:#4D4D4D;stroke:#4D4D4D;stroke-miterlimit:10;}
</style>
<g
   id="g4572"
   transform="matrix(0.95246007,0,0,0.99009075,0.47294962,0.09541801)">
	<g
   id="g4570">
		<path
   class="st0"
   d="m 0.7,9.3 h 12.6 c 0.4,0 0.7,0.3 0.7,0.7 0,0.4 -0.3,0.7 -0.7,0.7 H 0.7 C 0.3,10.7 0,10.4 0,10 0,9.6 0.3,9.3 0.7,9.3 Z"
   id="path4564"
   inkscape:connector-curvature="0"
   style="fill:#4d4d4d;stroke:#4d4d4d;stroke-miterlimit:10" />
		<path
   class="st0"
   d="M 9.8779267,5.8171466 C 10.09023,5.7895296 10.385316,5.7871843 10.519696,5.9187463 L 13.684,9.3768175 C 13.96992,9.6892823 14.1,10.3 13.8,10.5 L 10.3,14 C 10,14.3 9.6,14.3 9.4,14 9.3236276,13.923628 9.2666976,13.840774 9.2292102,13.75639 9.1194425,13.509302 9.1763724,13.249085 9.4,13.1 l 3,-3 L 9.4913928,6.659495 C 9.3903513,6.539976 9.3599545,6.4641524 9.3942191,6.3292122 9.4329351,6.1767404 9.4019103,6.2764585 9.4574173,6.1487107 9.5476443,5.9949324 9.5359881,5.990921 9.5699481,5.9570011 9.6929315,5.8341663 9.8779267,5.8171466 9.8779267,5.8171466 Z"
   id="path4566"
   inkscape:connector-curvature="0"
   style="fill:#4d4d4d;stroke:#4d4d4d;stroke-miterlimit:10"
   sodipodi:nodetypes="scscscsccsscss" />
		<path
   class="st0"
   d="m 10.4,0.4 c 5.3,0 9.6,4.3 9.6,9.6 0,5.3 -4.3,9.6 -9.6,9.6 -4,0 -7.5,-2.4 -8.9,-6.1 -0.1,-0.3 0,-0.7 0.4,-0.8 0.3,-0.1 0.7,0 0.8,0.4 1.3,3.2 4.3,5.2 7.7,5.2 4.6,0 8.3,-3.7 8.3,-8.3 C 18.7,5.4 15,1.7 10.4,1.7 7,1.7 4,3.8 2.7,7 2.6,7.3 2.2,7.5 1.9,7.3 1.6,7.2 1.4,6.8 1.5,6.5 3,2.8 6.5,0.4 10.4,0.4 Z"
   id="path4568"
   inkscape:connector-curvature="0"
   style="fill:#4d4d4d;stroke:#4d4d4d;stroke-miterlimit:10" />
	</g>
</g>
</svg>