<?xml version="1.0" encoding="UTF-8" standalone="no"?>
<!-- Generator: Adobe Illustrator 21.0.0, SVG Export Plug-In . SVG Version: 6.00 Build 0)  -->

<svg
   xmlns:dc="http://purl.org/dc/elements/1.1/"
   xmlns:cc="http://creativecommons.org/ns#"
   xmlns:rdf="http://www.w3.org/1999/02/22-rdf-syntax-ns#"
   xmlns:svg="http://www.w3.org/2000/svg"
   xmlns="http://www.w3.org/2000/svg"
   xmlns:sodipodi="http://sodipodi.sourceforge.net/DTD/sodipodi-0.dtd"
   xmlns:inkscape="http://www.inkscape.org/namespaces/inkscape"
   version="1.1"
   id="Calque_1"
   x="0px"
   y="0px"
   viewBox="0 0 22 22"
   style="enable-background:new 0 0 20 20;"
   xml:space="preserve"
   sodipodi:docname="deco.svg"
   inkscape:version="0.92.4 (5da689c313, 2019-01-14)"><metadata
   id="metadata4579"><rdf:RDF><cc:Work
       rdf:about=""><dc:format>image/svg+xml</dc:format><dc:type
         rdf:resource="http://purl.org/dc/dcmitype/StillImage" /></cc:Work></rdf:RDF></metadata><defs
   id="defs4577" /><sodipodi:namedview
   pagecolor="#ffffff"
   bordercolor="#666666"
   borderopacity="1"
   objecttolerance="10"
   gridtolerance="10"
   guidetolerance="10"
   inkscape:pageopacity="0"
   inkscape:pageshadow="2"
   inkscape:window-width="1920"
   inkscape:window-height="1017"
   id="namedview4575"
   showgrid="false"
   inkscape:zoom="32"
   inkscape:cx="3.2472497"
   inkscape:cy="8.7367646"
   inkscape:window-x="1912"
   inkscape:window-y="-8"
   inkscape:window-maximized="1"
   inkscape:current-layer="g4570" />
<style
   type="text/css"
   id="style4562">
	.st0{fill:#4D4D4D;stroke:#4D4D4D;stroke-miterlimit:10;}
</style>
<g
   id="g4572"
   transform="matrix(0.95246007,0,0,0.99009075,0.47294962,0.09541801)">
	<g
   id="g4570">
		
		
		<g
   id="g3736"
   transform="matrix(0.97746548,0,0,0.96758796,1.4201426,1.2672171)"><path
     style="fill:#4d4d4d;stroke:#4d4d4d;stroke-width:0.96580565;stroke-miterlimit:10"
     inkscape:connector-curvature="0"
     id="path4564"
     d="M 0.92569269,9.3928907 H 13.02266 c 0.38403,0 0.672054,0.2914709 0.672054,0.6800983 0,0.388626 -0.288024,0.680097 -0.672054,0.680097 H 0.92569269 c -0.38403069,0 -0.67205372,-0.291471 -0.67205372,-0.680097 0,-0.3886274 0.28802303,-0.6800983 0.67205372,-0.6800983 z"
     class="st0" /><path
     sodipodi:nodetypes="scscscsccsscss"
     style="fill:#4d4d4d;stroke:#4d4d4d;stroke-width:0.96580565;stroke-miterlimit:10"
     inkscape:connector-curvature="0"
     id="path4566"
     d="M 9.7372069,6.00906 C 9.9410343,5.982229 10.224338,5.97995 10.353354,6.107771 l 3.037975,3.3597535 c 0.274505,0.3035809 0.399393,0.8969345 0.111369,1.0912475 l -3.360269,3.400493 c -0.288022,0.291469 -0.6720531,0.291469 -0.8640684,0 -0.073323,-0.07421 -0.1279807,-0.1547 -0.1639712,-0.236687 -0.1053855,-0.240063 -0.050728,-0.492879 0.1639712,-0.637726 L 12.15859,10.170145 9.3661048,6.8274591 C 9.2690971,6.7113383 9.2399139,6.6376705 9.2728105,6.5065668 9.3099806,6.35843 9.280196,6.4553137 9.3334852,6.3311974 9.4201103,6.181791 9.4089194,6.1778937 9.4415234,6.1449382 9.5595974,6.0255956 9.7372069,6.00906 9.7372069,6.00906 Z"
     class="st0" /><path
     style="fill:#4d4d4d;stroke:#4d4d4d;stroke-width:0.96580565;stroke-miterlimit:10"
     inkscape:connector-curvature="0"
     id="path4568"
     d="m 10.238438,0.74593051 c 5.088406,0 9.216736,4.17774479 9.216736,9.32705849 0,5.149314 -4.12833,9.327058 -9.216736,9.327058 -3.8403077,0 -7.2005765,-2.331763 -8.5446839,-5.926568 -0.096008,-0.291471 0,-0.680098 0.3840308,-0.777255 0.2880228,-0.09715 0.6720536,0 0.7680613,0.388628 1.2480997,3.10902 4.1283301,5.052155 7.3925918,5.052155 4.416352,0 7.968636,-3.594802 7.968636,-8.064018 0,-4.4692155 -3.552284,-8.0640193 -7.968636,-8.0640193 -3.2642617,0 -6.1444921,2.040294 -7.3925918,5.1493136 C 2.7498382,7.4497537 2.3658077,7.6440675 2.0777849,7.4497537 1.7897618,7.3525969 1.5977465,6.9639694 1.6937541,6.6724988 3.1338691,3.0776952 6.4941379,0.74593051 10.238438,0.74593051 Z"
     class="st0" /></g>
	</g>
</g>
</svg>