<?xml version="1.0" encoding="iso-8859-1"?>
<!-- Generator: Adobe Illustrator 19.0.0, SVG Export Plug-In . SVG Version: 6.00 Build 0)  -->
<svg version="1.1" id="Capa_1" xmlns="http://www.w3.org/2000/svg" xmlns:xlink="http://www.w3.org/1999/xlink" x="0px" y="0px"
	 viewBox="0 0 512 512" style="enable-background:new 0 0 512 512;" xml:space="preserve">
<g>
	<g>
		<g>
			<path d="M448,287.791c-4.418,0-8,3.582-8,8v56.056h-12.728c-3.137-27.747-28.173-47.697-55.919-44.561
				c-23.426,2.648-41.912,21.135-44.561,44.561H160v-232h280v25.16c0,4.418,3.582,8,8,8s8-3.582,8-8v-33.16c0-4.418-3.582-8-8-8H152
				c-4.418,0-8,3.582-8,8v8H52.384C32.301,119.873,16.026,136.147,16,156.231v11.616c0,4.418,3.582,8,8,8h9.304l-6.104,73.32
				C11.225,253.325,0.056,267.723,0,284.231v67.616c0,4.418,3.582,8,8,8h16.2c2.193,28.608,27.163,50.022,55.771,47.829
				c25.56-1.959,45.869-22.269,47.829-47.829c0.072,0,0.128,0.04,0.2,0.04h16c0,4.418,3.582,8,8,8h175.52
				c5.699,27.345,32.487,44.892,59.832,39.193c19.697-4.105,35.087-19.496,39.192-39.193H448c4.418,0,8-3.582,8-8v-64.096
				C456,291.372,452.418,287.791,448,287.791z M76,391.847c-19.882,0-36-16.118-36-36s16.118-36,36-36s36,16.118,36,36
				C111.978,375.72,95.873,391.825,76,391.847z M144,343.847h-16c-0.469,0.049-0.933,0.142-1.384,0.28
				c-6.434-27.953-34.31-45.397-62.262-38.963c-19.274,4.436-34.355,19.434-38.898,38.683H16v-59.616
				c0.013-11.252,9.132-20.371,20.384-20.384H144V343.847z M144,247.847H43.36l6-72H144V247.847z M144,159.847H32v-3.616
				c0.013-11.252,9.132-20.371,20.384-20.384H144V159.847z M411.555,359.527c-1.028,18.302-16.185,32.607-34.515,32.576h-0.008
				c-16.785-0.037-31.117-12.126-33.984-28.664c1.402-2.45,1.242-5.494-0.408-7.784c1.069-19.03,17.363-33.591,36.394-32.522
				C398.064,324.202,412.625,340.496,411.555,359.527z"/>
			<path d="M440,167.847H328c-4.418,0-8,3.582-8,8s3.582,8,8,8h112c4.418,0,8-3.582,8-8S444.418,167.847,440,167.847z"/>
			<path d="M456,255.847H280c-4.418,0-8,3.582-8,8s3.582,8,8,8h176c4.418,0,8-3.582,8-8S460.418,255.847,456,255.847z"/>
			<path d="M440,207.847h-88c-4.418,0-8,3.582-8,8s3.582,8,8,8h88c4.418,0,8-3.582,8-8S444.418,207.847,440,207.847z"/>
			<path d="M472,183.847h16c4.418,0,8-3.582,8-8s-3.582-8-8-8h-16c-4.418,0-8,3.582-8,8S467.582,183.847,472,183.847z"/>
			<path d="M496,255.847h-16c-4.418,0-8,3.582-8,8s3.582,8,8,8h16c4.418,0,8-3.582,8-8S500.418,255.847,496,255.847z"/>
			<path d="M504,207.847h-32c-4.418,0-8,3.582-8,8s3.582,8,8,8h32c4.418,0,8-3.582,8-8S508.418,207.847,504,207.847z"/>
		</g>
	</g>
</g>
<g>
</g>
<g>
</g>
<g>
</g>
<g>
</g>
<g>
</g>
<g>
</g>
<g>
</g>
<g>
</g>
<g>
</g>
<g>
</g>
<g>
</g>
<g>
</g>
<g>
</g>
<g>
</g>
<g>
</g>
</svg>
