<svg id="Médoc" xmlns="http://www.w3.org/2000/svg" viewBox="0 0 100 100"><defs><style>.cls-1{fill:#FFFFFF;}</style></defs><path class="cls-1" d="M98.52,47.77a.31.31,0,0,1,0-.1,1.7,1.7,0,0,0-.15-.45l0-.09a2.71,2.71,0,0,0-.24-.35s0,0,0-.05L79.39,26.39A1.87,1.87,0,0,0,78,25.78H67.58V20.09a1.9,1.9,0,0,0-1.9-1.89H3.35a1.89,1.89,0,0,0-1.89,1.89V68.35a1.89,1.89,0,0,0,1.89,1.89H11c0,.21,0,.41,0,.62a10.95,10.95,0,0,0,21.89,0c0-.21,0-.41,0-.62H70.35c0,.21,0,.41,0,.62a10.95,10.95,0,0,0,21.89,0c0-.21,0-.41,0-.62h4.47a1.89,1.89,0,0,0,1.89-1.89V48A1.94,1.94,0,0,0,98.52,47.77ZM22,78a7.16,7.16,0,0,1-7.15-7.15c0-.21,0-.41,0-.62h0a7.15,7.15,0,0,1,14.24,0h0c0,.21,0,.41,0,.62A7.16,7.16,0,0,1,22,78Zm59.32,0a7.16,7.16,0,0,1-7.16-7.15c0-.21,0-.41,0-.62a7.15,7.15,0,0,1,14.25,0c0,.21,0,.41,0,.62A7.16,7.16,0,0,1,81.27,78Zm9.64-31.9H68.21a.63.63,0,0,1-.63-.63V30.2a.63.63,0,0,1,.63-.63h8.68a.63.63,0,0,1,.46.2l14,15.29A.63.63,0,0,1,90.91,46.11Z"/></svg>
