<?xml version="1.0" encoding="utf-8"?>
<!-- Generator: Adobe Illustrator 26.3.1, SVG Export Plug-In . SVG Version: 6.00 Build 0)  -->
<svg version="1.1" id="Calque_1" xmlns="http://www.w3.org/2000/svg" xmlns:xlink="http://www.w3.org/1999/xlink" x="0px" y="0px"
	 viewBox="0 0 100 100" style="enable-background:new 0 0 100 100;" xml:space="preserve">
<style type="text/css">
	.st0{fill:#3353D7;}
</style>
<path class="st0" d="M81.2,0.4H18.8c-2.5,0-4.5,2-4.5,4.5v90.3c0,2.5,2,4.5,4.5,4.5h62.5c2.5,0,4.5-2,4.5-4.5V4.9
	C85.7,2.4,83.7,0.4,81.2,0.4z M35.8,60.9h-8c-1.4,0-2.5-1.1-2.5-2.5c0-1.4,1.1-2.5,2.5-2.5h8c1.4,0,2.5,1.1,2.5,2.5
	C38.3,59.8,37.2,60.9,35.8,60.9z M35.8,46.4h-8c-1.4,0-2.5-1.1-2.5-2.5c0-1.4,1.1-2.5,2.5-2.5h8c1.4,0,2.5,1.1,2.5,2.5
	C38.3,45.2,37.2,46.4,35.8,46.4z M35.8,31.8h-8c-1.4,0-2.5-1.1-2.5-2.5c0-1.4,1.1-2.5,2.5-2.5h8c1.4,0,2.5,1.1,2.5,2.5
	C38.3,30.7,37.2,31.8,35.8,31.8z M71.8,77.6h-14c-1.4,0-2.5-1.1-2.5-2.5c0-1.4,1.1-2.5,2.5-2.5h14c1.4,0,2.5,1.1,2.5,2.5
	C74.3,76.5,73.2,77.6,71.8,77.6z M71.8,60.9H47.4c-1.4,0-2.5-1.1-2.5-2.5c0-1.4,1.1-2.5,2.5-2.5h24.5c1.4,0,2.5,1.1,2.5,2.5
	C74.3,59.8,73.2,60.9,71.8,60.9z M71.8,46.4H47.4c-1.4,0-2.5-1.1-2.5-2.5c0-1.4,1.1-2.5,2.5-2.5h24.5c1.4,0,2.5,1.1,2.5,2.5
	C74.3,45.2,73.2,46.4,71.8,46.4z M71.8,31.8H47.4c-1.4,0-2.5-1.1-2.5-2.5c0-1.4,1.1-2.5,2.5-2.5h24.5c1.4,0,2.5,1.1,2.5,2.5
	C74.3,30.7,73.2,31.8,71.8,31.8z"/>
</svg>
