<?xml version="1.0" encoding="UTF-8"?>
<svg id="icone" xmlns="http://www.w3.org/2000/svg" viewBox="0 0 100 100">
  <defs>
    <style>
      .cls-1 {
        fill: #3353d7;
      }
    </style>
  </defs>
  <g>
    <path class="cls-1" d="m72.32,46.47c0,12.33-10,22.33-22.33,22.33s-22.32-10-22.32-22.33c0-4.04,1.07-7.83,2.95-11.08l15.6,10.53c1.15.78,2.46,1.17,3.78,1.17s2.62-.39,3.77-1.17l15.6-10.53c1.87,3.26,2.95,7.05,2.95,11.08Z"/>
    <path class="cls-1" d="m91.48,100c0-15.04-12.19-27.23-27.23-27.23h0,.1c-9.04,4.52-19.67,4.52-28.71,0h.1c-15.04,0-27.22,12.19-27.22,27.22h82.96Z"/>
  </g>
  <path class="cls-1" d="m76.57,23.33l-10.85,7.32-15.29,10.32c-.26.17-.6.17-.86,0l-15.3-10.33-10.84-7.31c-.31-.21-.42-.5-.31-.86s.36-.54.74-.54h52.27c.37,0,.62.18.73.54.11.36,0,.65-.3.86Z"/>
  <path class="cls-1" d="m80.35,1.91l-1.82,12.7c-.11.76-.62,1.34-1.19,1.34H22.59c-.57,0-1.08-.58-1.19-1.34l-1.82-12.7c-.08-.56.07-1.13.41-1.52.16-.19.42-.4.78-.4h58.39c.36,0,.62.21.78.4.34.39.49.96.41,1.52Z"/>
</svg>