<?xml version="1.0" encoding="utf-8"?>
<!-- Generator: Adobe Illustrator 26.3.1, SVG Export Plug-In . SVG Version: 6.00 Build 0)  -->
<svg version="1.1" id="Calque_1" xmlns="http://www.w3.org/2000/svg" xmlns:xlink="http://www.w3.org/1999/xlink" x="0px" y="0px"
	 viewBox="0 0 100 100" style="enable-background:new 0 0 100 100;" xml:space="preserve">
<style type="text/css">
	.st0{fill:#FFFFFF;}
</style>
<g id="icone">
	<g id="croix">
		<g id="Tracé_89">
			<path class="st0" d="M51.2,50c0,2.1-0.8,4.2-2.3,5.7L16.1,88.4c-3.3,2.9-8.4,2.6-11.3-0.8c-2.6-3-2.6-7.5,0-10.6l27.1-27
				L4.8,22.9c-2.9-3.3-2.6-8.4,0.7-11.3c3-2.7,7.5-2.7,10.6,0l32.8,32.8C50.4,45.8,51.2,47.9,51.2,50z"/>
		</g>
	</g>
	<g id="croix-2">
		<g id="Tracé_89-2">
			<path class="st0" d="M97.2,50c0,2.1-0.8,4.2-2.3,5.7L62.1,88.4c-3.3,2.9-8.4,2.6-11.3-0.8c-2.6-3-2.6-7.5,0-10.6l27.1-27
				L50.8,22.9c-2.9-3.3-2.6-8.4,0.7-11.3c3-2.7,7.5-2.7,10.6,0l32.8,32.8C96.4,45.8,97.2,47.9,97.2,50z"/>
		</g>
	</g>
</g>
</svg>
