<?xml version="1.0" encoding="utf-8"?>
<!-- Generator: Adobe Illustrator 26.3.1, SVG Export Plug-In . SVG Version: 6.00 Build 0)  -->
<svg version="1.1" id="Calque_1" xmlns="http://www.w3.org/2000/svg" xmlns:xlink="http://www.w3.org/1999/xlink" x="0px" y="0px"
	 viewBox="0 0 100 100" style="enable-background:new 0 0 100 100;" xml:space="preserve">
<style type="text/css">
	.st0{fill:#3353D7;}
</style>
<g id="icone">
	<g id="croix">
		<g id="Tracé_89">
			<path class="st0" d="M51.1,44.3l32.8-32.8c3-2.6,7.5-2.6,10.6,0c3.3,2.9,3.6,8,0.7,11.3L68.1,50l27.1,27.1c2.7,3,2.7,7.5,0,10.6
				c-2.9,3.3-8,3.7-11.3,0.8L51.1,55.7c-1.5-1.5-2.3-3.5-2.3-5.7C48.8,47.9,49.6,45.8,51.1,44.3z"/>
		</g>
	</g>
	<g id="croix-2">
		<g id="Tracé_89-2">
			<path class="st0" d="M5.1,44.3l32.8-32.8c3-2.6,7.5-2.6,10.6,0c3.3,2.9,3.6,8,0.7,11.3L22.1,50l27.1,27.1c2.7,3,2.7,7.5,0,10.6
				c-2.9,3.3-8,3.7-11.3,0.8L5.1,55.7c-1.5-1.5-2.3-3.5-2.3-5.7C2.8,47.9,3.6,45.8,5.1,44.3z"/>
		</g>
	</g>
</g>
</svg>
