<svg xmlns="http://www.w3.org/2000/svg" viewBox="0 0 100 100">
    <defs>
        <style>.cls-1{fill:#3353d7;}</style>
    </defs>
    <g id="icone">
        <path class="cls-1" d="M26.63,26.26H20.38a3,3,0,0,0,0,6h6.25a3,3,0,1,0,0-6Z"/>
        <path class="cls-1" d="M35.75,26.26a3,3,0,0,0,0,6H55a3,3,0,1,0,0-6Z"/>
        <path class="cls-1" d="M26.63,37.68H20.38a3,3,0,0,0,0,6h6.25a3,3,0,1,0,0-6Z"/>
        <path class="cls-1" d="M55,37.68H35.75a3,3,0,0,0,0,6H55a3,3,0,0,0,0-6Z"/>
        <path class="cls-1" d="M26.63,49.11H20.38a3,3,0,1,0,0,6h6.25a3,3,0,0,0,0-6Z"/>
        <path class="cls-1" d="M55,49.11H35.75a3,3,0,0,0,0,6H55a3,3,0,0,0,0-6Z"/>
        <path class="cls-1" d="M59.1,89.07h6.42a4.75,4.75,0,0,0,4.75-4.75V77.88Z"/>
        <path class="cls-1"
              d="M26.61,87.9a5.7,5.7,0,0,1,1.66-4.21l.61-.62H11.39V6.54h12.5v4.92a3,3,0,0,0,3,3H48.77a3,3,0,0,0,3-3V6.54h12.5v41l3.65-3.66,2.35-2.35V5.29A4.75,4.75,0,0,0,65.52.54H10.14A4.75,4.75,0,0,0,5.39,5.29v79a4.75,4.75,0,0,0,4.75,4.75H26.65ZM29.89,6.54H45.77V8.46H29.89Z"/>
        <path class="cls-1" d="M30.61,87.76l.31,9.68a1.8,1.8,0,0,0,1.74,1.74l9.68.28h0a1.73,1.73,0,0,0,1.2-.49L83.24,59.2,70.75,46.74,31.1,86.51A1.72,1.72,0,0,0,30.61,87.76Z"/>
        <path class="cls-1" d="M94.09,45.81l-10-10a1.75,1.75,0,0,0-1.25-.52h0a1.75,1.75,0,0,0-1.24.52l-6.85,6.87L87.25,55.18l6.84-6.87a1.76,1.76,0,0,0,0-2.5Z"/>
    </g>
</svg>
