<svg width="136" height="96" viewBox="0 0 136 96" fill="none" xmlns="http://www.w3.org/2000/svg">
    <path
        d="M66.4878 37.0737C67.8152 36.2535 69.5609 36.7012 70.3687 38.104L78.6733 53.98L78.6782 53.9897L78.6831 53.9985C78.9379 54.447 79.0767 54.9831 79.0767 55.4946V55.5015C79.0965 57.1509 77.8108 58.4843 76.2456 58.5044H59.5854C59.0898 58.5044 58.6064 58.3659 58.1499 58.0991C56.807 57.2661 56.3433 55.4198 57.1548 53.9995L57.1606 53.9907L57.1655 53.981L65.4995 38.0942L65.4985 38.0933C65.7313 37.6741 66.0797 37.3154 66.478 37.0786L66.479 37.0796L66.4878 37.0737ZM67.896 52.8071C66.7872 52.8071 65.9263 53.7368 65.9263 54.8315C65.9263 55.9397 66.8237 56.856 67.9194 56.856C69.0282 56.8559 69.8892 55.9262 69.8892 54.8315C69.8892 53.7234 68.9916 52.8073 67.896 52.8071ZM67.896 41.2915C66.7742 41.2915 65.9263 42.2593 65.9263 43.3403V50.5103C65.9264 51.6049 66.7872 52.5337 67.896 52.5337C69.0217 52.5336 69.889 51.6116 69.8892 50.5103V43.3403C69.8892 42.2144 68.9982 41.2916 67.896 41.2915Z"
        stroke="black" stroke-width="1.6"/>
</svg>
