<svg xmlns="http://www.w3.org/2000/svg" viewBox="0 0 100 100" fill="none">
    <g>
        <path stroke="black" stroke-width="6.0" d="m44.13755,6.68206c5.46665,-3.37784 12.65598,-1.53407 15.98275,4.24309l34.20092,65.38229l0.02018,0.03995l0.02018,0.03624c1.04934,1.84706 1.62097,4.05488 1.62097,6.16141l0,0.02842c0.08155,6.79274 -5.21337,12.28409 -11.65935,12.36688l-68.61187,0c-2.04103,0 -4.03183,-0.57039 -5.91184,-1.66915c-5.53048,-3.43056 -7.44014,-11.03419 -4.09813,-16.88342l0.02389,-0.03624l0.02018,-0.03995l34.32199,-65.42677l-0.00412,-0.0037c0.95874,-1.7264 2.39356,-3.20364 4.03388,-4.17884l0.00412,0.00412l0.03624,-0.0243l0,-0.00002zm5.7994,64.79502c-4.56638,0 -8.11183,3.82879 -8.11183,8.33711c0,4.56391 3.69577,8.33751 8.20821,8.33751c4.56638,-0.00041 8.11225,-3.8292 8.11225,-8.33751c0,-4.5635 -3.6966,-8.33629 -8.20861,-8.33711l-0.00001,0zm0,-47.42481c-4.61992,0 -8.11183,3.9857 -8.11183,8.43759l0,29.52828c0.00041,4.5079 3.54545,8.33298 8.11183,8.33298c4.63599,-0.00041 8.2078,-3.79749 8.20861,-8.33298l0,-29.52828c0,-4.6368 -3.66941,-8.43718 -8.20861,-8.43759z"/>
    </g>
</svg>
