<?xml version="1.0" encoding="utf-8"?>
<!-- Generator: Adobe Illustrator 21.0.0, SVG Export Plug-In . SVG Version: 6.00 Build 0)  -->
<svg version="1.1" id="Calque_1" xmlns="http://www.w3.org/2000/svg" xmlns:xlink="http://www.w3.org/1999/xlink" x="0px" y="0px"
	 viewBox="0 0 19 19" style="enable-background:new 0 0 19 19;" xml:space="preserve">
<style type="text/css">
	.st0{fill:#1B1464;}
</style>
<g>
	<g>
		<g>
			<path class="st0" d="M18.7,1v5.4c0,0.4-0.3,0.8-0.8,0.8c-0.4,0-0.8-0.3-0.8-0.8V2.8l-9.4,9.4c-0.1,0.1-0.3,0.2-0.5,0.2
				c-0.2,0-0.4-0.1-0.5-0.2c-0.3-0.3-0.3-0.8,0-1.1l9.4-9.4h-3.6c-0.4,0-0.8-0.3-0.8-0.8s0.3-0.8,0.8-0.8H18c0.1,0,0.1,0,0.2,0
				c0,0,0,0,0.1,0c0,0,0,0,0.1,0c0,0,0,0,0.1,0c0,0,0,0,0.1,0c0,0,0,0,0,0c0,0,0,0,0,0c0,0,0,0,0,0c0,0,0,0.1,0.1,0.1c0,0,0,0,0,0.1
				c0,0,0,0,0,0.1c0,0,0,0,0,0.1C18.7,0.8,18.7,0.9,18.7,1z"/>
			<path class="st0" d="M18.3,0.3c0,0,0.1,0,0.1,0.1C18.4,0.4,18.4,0.3,18.3,0.3C18.4,0.3,18.3,0.3,18.3,0.3z"/>
			<path class="st0" d="M18.5,0.4C18.4,0.4,18.4,0.4,18.5,0.4C18.4,0.4,18.4,0.4,18.5,0.4C18.4,0.4,18.4,0.4,18.5,0.4z"/>
			<path class="st0" d="M18.6,0.6C18.6,0.6,18.6,0.6,18.6,0.6c-0.1-0.1-0.1-0.1-0.1-0.1C18.6,0.5,18.6,0.6,18.6,0.6z"/>
			<path class="st0" d="M18.5,0.5C18.5,0.4,18.5,0.4,18.5,0.5C18.5,0.4,18.5,0.4,18.5,0.5C18.5,0.4,18.5,0.4,18.5,0.5z"/>
		</g>
	</g>
	<g>
		<g>
			<path class="st0" d="M16.9,8.2c-0.4,0-0.8,0.3-0.8,0.8v8.3H1.8V2.9h8.3c0.4,0,0.8-0.3,0.8-0.8s-0.3-0.8-0.8-0.8H1
				c-0.4,0-0.8,0.3-0.8,0.8V18c0,0.4,0.3,0.8,0.8,0.8h15.9c0.4,0,0.8-0.3,0.8-0.8V9C17.7,8.5,17.3,8.2,16.9,8.2z"/>
		</g>
	</g>
</g>
</svg>
