<?xml version="1.0" encoding="utf-8"?>
<!-- Generator: Adobe Illustrator 21.0.0, SVG Export Plug-In . SVG Version: 6.00 Build 0)  -->
<svg version="1.1" id="Calque_1" xmlns="http://www.w3.org/2000/svg" xmlns:xlink="http://www.w3.org/1999/xlink" x="0px" y="0px"
	 viewBox="0 0 23 25" style="enable-background:new 0 0 23 25;" xml:space="preserve">
<style type="text/css">
	.st0{fill:#FFFFFF;}
</style>
<g>
	<path class="st0" d="M22.1,0.5H0.9c-0.4,0-0.7,0.2-0.7,0.6c0,0,0,0,0,0V4c0,0.2,0.1,0.3,0.2,0.5l8.1,8.2v11.2
		c0,0.2,0.1,0.4,0.3,0.6c0.1,0.1,0.2,0.1,0.3,0.1l0.3-0.1l4.7-2.3c0.2-0.1,0.4-0.4,0.4-0.6v-8.8l8.1-8.2c0.1-0.1,0.2-0.3,0.2-0.5
		V1.1C22.8,0.7,22.5,0.5,22.1,0.5z M13.3,12c-0.1,0.1-0.2,0.3-0.2,0.5v8.7l-3.3,1.6V12.4c0-0.2-0.1-0.3-0.2-0.5L2.3,4.5h18.4
		L13.3,12z M21.5,3.2h-20V1.8h20V3.2z"/>
</g>
</svg>
