<svg xmlns="http://www.w3.org/2000/svg" viewBox="0 0 100 100"><defs><style>.cls-1{fill:#3353d7;}.cls-2{fill:#fff;}</style></defs><g id="icone"><path class="cls-1" d="M24.62,26.05H18.36a3,3,0,0,0,0,6h6.26a3,3,0,1,0,0-6Z"/><path class="cls-1" d="M33.74,26.05a3,3,0,0,0,0,6H53a3,3,0,1,0,0-6Z"/><path class="cls-1" d="M24.62,37.47H18.36a3,3,0,0,0,0,6h6.26a3,3,0,1,0,0-6Z"/><path class="cls-1" d="M53,37.47H33.74a3,3,0,0,0,0,6H53a3,3,0,0,0,0-6Z"/><path class="cls-1" d="M24.62,48.89H18.36a3,3,0,0,0,0,6h6.26a3,3,0,1,0,0-6Z"/><path class="cls-1" d="M43.6,82.86H9.38V6.33H21.87v4.92a3,3,0,0,0,3,3H46.76a3,3,0,0,0,3-3V6.33H62.25v40.6a29.06,29.06,0,0,1,6-1.31V5.08A4.75,4.75,0,0,0,63.51.33H8.12A4.75,4.75,0,0,0,3.38,5.08v79a4.75,4.75,0,0,0,4.74,4.75h38A28.93,28.93,0,0,1,43.6,82.86ZM27.87,6.33H43.76V8.25H27.87Z"/><path class="cls-1" d="M50.88,54a29.92,29.92,0,0,1,4.61-3.77A3,3,0,0,0,53,48.89H33.74a3,3,0,0,0,0,6H50Z"/><g id="icone-2" data-name="icone"><path class="cls-1" d="M71.5,49.43a25.12,25.12,0,1,0,17.74,7.33A25,25,0,0,0,71.5,49.43Z"/><path class="cls-2" d="M87.6,71.2l-12.77,0,0-12.77a3.34,3.34,0,0,0-6.67,0l0,12.77-12.76,0a3.34,3.34,0,1,0,0,6.67l12.77,0V90.66a3.34,3.34,0,0,0,6.67,0l0-12.77,12.77,0a3.33,3.33,0,0,0,0-6.66Z"/></g></g></svg>