<svg viewBox="0 0 512 512" style="enable-background:new 0 0 512 512" xmlns="http://www.w3.org/2000/svg" xml:space="preserve"><path d="M488 416h-8V168a8 8 0 0 0-8-8H184a8 8 0 0 0-8 8v248H24a8 8 0 0 0-8 8v32a8 8 0 0 0 8 8h24v24a8 8 0 0 0 8 8h48a8 8 0 0 0 8-8v-24h112v24a8 8 0 0 0 8 8h48a8 8 0 0 0 8-8v-24h112v24a8 8 0 0 0 8 8h48a8 8 0 0 0 8-8v-24h24a8 8 0 0 0 8-8v-32a8 8 0 0 0-8-8zM336 304h32v40a8 8 0 0 0 8 8h48a8 8 0 0 0 8-8v-40h32v112H336zm48 0h32v32h-32zm80-16H336V176h32v40a8 8 0 0 0 8 8h48a8 8 0 0 0 8-8v-40h32zm-80-112h32v32h-32zm-144 0h32v32h-32zm-48 0h32v40a8 8 0 0 0 8 8h48a8 8 0 0 0 8-8v-40h32v112H192zm48 128h32v32h-32zm-48 0h32v40a8 8 0 0 0 8 8h48a8 8 0 0 0 8-8v-40h32v112H192zM96 480H64v-16h32zm176 0h-32v-16h32zm176 0h-32v-16h32zm32-32H32v-16h448z"/>
    <path
        d="M432 384h16v16h-16zM288 384h16v16h-16zM432 256h16v16h-16zM288 256h16v16h-16zM18.732 334.021l64 56a8 8 0 0 0 10.536 0l64-56A8 8 0 0 0 160 328v-24a8 8 0 0 0-8-8h-24V48h-16v256a8 8 0 0 0 8 8h24v12.37l-56 49-56-49V312h24a8 8 0 0 0 8-8V48H48v248H24a8 8 0 0 0-8 8v24a8 8 0 0 0 2.732 6.021zM112 16h16v16h-16zM48 16h16v16H48zM186.732 86.021l64 56a8 8 0 0 0 10.536 0l64-56A8 8 0 0 0 328 80V56a8 8 0 0 0-8-8h-24V16h-16v40a8 8 0 0 0 8 8h24v12.37l-56 49-56-49V64h24a8 8 0 0 0 8-8V16h-16v32h-24a8 8 0 0 0-8 8v24a8 8 0 0 0 2.732 6.021zM488 48h-24V16h-16v40a8 8 0 0 0 8 8h24v12.37l-56 49-56-49V64h24a8 8 0 0 0 8-8V16h-16v32h-24a8 8 0 0 0-8 8v24a8 8 0 0 0 2.732 6.021l64 56a8 8 0 0 0 10.536 0l64-56A8 8 0 0 0 496 80V56a8 8 0 0 0-8-8z"/></svg>
