<?xml version="1.0" encoding="iso-8859-1"?>
<svg version="1.1" viewBox="0 0 512 512"
     style="enable-background:new 0 0 512 512;" xmlns="http://www.w3.org/2000/svg" xml:space="preserve">
    <g id="Outline">
        <path
            d="m488 416h-8v-248a8 8 0 0 0 -8-8h-288a8 8 0 0 0 -8 8v248h-152a8 8 0 0 0 -8 8v32a8 8 0 0 0 8 8h24v24a8 8 0 0 0 8 8h48a8 8 0 0 0 8-8v-24h112v24a8 8 0 0 0 8 8h48a8 8 0 0 0 8-8v-24h112v24a8 8 0 0 0 8 8h48a8 8 0 0 0 8-8v-24h24a8 8 0 0 0 8-8v-32a8 8 0 0 0 -8-8zm-152-112h32v40a8 8 0 0 0 8 8h48a8 8 0 0 0 8-8v-40h32v112h-128zm48 0h32v32h-32zm80-16h-128v-112h32v40a8 8 0 0 0 8 8h48a8 8 0 0 0 8-8v-40h32zm-80-112h32v32h-32zm-144 0h32v32h-32zm-48 0h32v40a8 8 0 0 0 8 8h48a8 8 0 0 0 8-8v-40h32v112h-128zm48 128h32v32h-32zm-48 0h32v40a8 8 0 0 0 8 8h48a8 8 0 0 0 8-8v-40h32v112h-128zm-96 176h-32v-16h32zm176 0h-32v-16h32zm176 0h-32v-16h32zm32-32h-448v-16h448z"/>
        <path d="m432 384h16v16h-16z"/>
        <path d="m288 384h16v16h-16z"/>
        <path d="m432 256h16v16h-16z"/>
        <path d="m288 256h16v16h-16z"/>
        <path
            d="m18.732 334.021 64 56a8 8 0 0 0 10.536 0l64-56a8 8 0 0 0 2.732-6.021v-24a8 8 0 0 0 -8-8h-24v-248h-16v256a8 8 0 0 0 8 8h24v12.37l-56 49-56-49v-12.37h24a8 8 0 0 0 8-8v-256h-16v248h-24a8 8 0 0 0 -8 8v24a8 8 0 0 0 2.732 6.021z"/>
        <path d="m112 16h16v16h-16z"/>
        <path d="m48 16h16v16h-16z"/>
        <path
            d="m186.732 86.021 64 56a8 8 0 0 0 10.536 0l64-56a8 8 0 0 0 2.732-6.021v-24a8 8 0 0 0 -8-8h-24v-32h-16v40a8 8 0 0 0 8 8h24v12.37l-56 49-56-49v-12.37h24a8 8 0 0 0 8-8v-40h-16v32h-24a8 8 0 0 0 -8 8v24a8 8 0 0 0 2.732 6.021z"/>
        <path
            d="m488 48h-24v-32h-16v40a8 8 0 0 0 8 8h24v12.37l-56 49-56-49v-12.37h24a8 8 0 0 0 8-8v-40h-16v32h-24a8 8 0 0 0 -8 8v24a8 8 0 0 0 2.732 6.021l64 56a8 8 0 0 0 10.536 0l64-56a8 8 0 0 0 2.732-6.021v-24a8 8 0 0 0 -8-8z"/>
    </g>
</svg>
