<svg id="Calque_1" data-name="Calque 1" xmlns="http://www.w3.org/2000/svg" viewBox="0 0 97 100">
    <path fill="#3353d7"
          d="M43.8,76.24H37.19v5.44A1.28,1.28,0,0,1,35.91,83h-3a1.28,1.28,0,0,1-1.28-1.28V76.24H25.05a2.32,2.32,0,0,0-2.31,2.31V97.3a2.31,2.31,0,0,0,2.31,2.3H43.8a2.3,2.3,0,0,0,2.3-2.3V78.55A2.31,2.31,0,0,0,43.8,76.24Z"/>
    <path fill="#3353d7"
          d="M72,76.24H65.34v5.44A1.28,1.28,0,0,1,64.06,83h-3a1.28,1.28,0,0,1-1.28-1.28V76.24H53.2a2.31,2.31,0,0,0-2.3,2.31V97.3a2.3,2.3,0,0,0,2.3,2.3H72a2.31,2.31,0,0,0,2.31-2.3V78.55A2.32,2.32,0,0,0,72,76.24Z"/>
    <path fill="#3353d7"
          d="M57.87,48.6h-6.6V54A1.28,1.28,0,0,1,50,55.32H47A1.28,1.28,0,0,1,45.73,54V48.6h-6.6a2.31,2.31,0,0,0-2.31,2.3V69.65A2.32,2.32,0,0,0,39.13,72H57.87a2.32,2.32,0,0,0,2.31-2.31V50.9A2.31,2.31,0,0,0,57.87,48.6Z"/>
    <g id="warehouse">
        <path id="Icon_awesome-warehouse" data-name="Icon awesome-warehouse" fill="#3353d7"
              d="M92.08,23.07l-40.74-22a6.26,6.26,0,0,0-5.8,0l-40.68,22A9.6,9.6,0,0,0,.22,31.65v66.4A1.44,1.44,0,0,0,1.5,99.6H14a1.43,1.43,0,0,0,1.28-1.55V50a5.76,5.76,0,0,1,5.12-6.2h56.1A5.77,5.77,0,0,1,81.66,50V98.05a1.43,1.43,0,0,0,1.28,1.55H95.5a1.43,1.43,0,0,0,1.28-1.55V31.65A9.59,9.59,0,0,0,92.08,23.07Z"/>
    </g>
</svg>
