<?xml version="1.0" encoding="UTF-8"?>
<svg id="général" xmlns="http://www.w3.org/2000/svg" viewBox="0 0 100 100">
    <defs>
        <style>
            .cls-1 {
            fill: #fff;
            }

            .cls-2 {
            fill: #3353d7;
            }
        </style>
    </defs>
    <g>
        <circle class="cls-1" cx="50" cy="50" r="49"/>
        <path class="cls-2" d="M50,100C22.43,100,0,77.57,0,50S22.43,0,50,0s50,22.43,50,50-22.43,50-50,50Zm0-98C23.53,2,2,23.53,2,50s21.53,48,48,48,48-21.53,48-48S76.47,2,50,2Z"/>
    </g>
    <path class="cls-2" d="M82.54,48.5s0-.04,0-.07c-.02-.11-.05-.21-.1-.31,0-.02-.02-.04-.03-.06-.04-.08-.1-.16-.16-.23,0-.01-.01-.02-.02-.04l-12.5-13.64c-.24-.26-.58-.41-.94-.41h-6.99v-3.81c0-.7-.57-1.27-1.27-1.27H18.72c-.7,0-1.27,.57-1.27,1.27V62.3c0,.7,.57,1.27,1.27,1.27h5.15c0,.14-.02,.27-.02,.41,0,4.05,3.29,7.34,7.34,7.34s7.34-3.29,7.34-7.34c0-.14-.01-.28-.02-.41h25.14c0,.14-.02,.27-.02,.41,0,4.05,3.29,7.34,7.34,7.34s7.34-3.29,7.34-7.34c0-.14-.01-.28-.02-.41h3c.7,0,1.27-.57,1.27-1.27v-13.64c0-.05,0-.11-.02-.16Zm-51.34,20.28c-2.64,0-4.8-2.15-4.8-4.8,0-.14,0-.28,.02-.41h0c.21-2.45,2.27-4.38,4.78-4.38s4.56,1.93,4.78,4.38h0c.01,.14,.02,.27,.02,.41,0,2.64-2.15,4.8-4.8,4.8Zm39.78,0c-2.64,0-4.8-2.15-4.8-4.8,0-.14,0-.28,.02-.41,.21-2.45,2.27-4.38,4.78-4.38s4.56,1.93,4.78,4.38c.01,.14,.02,.27,.02,.41,0,2.64-2.15,4.8-4.8,4.8Zm6.46-21.39h-15.22c-.23,0-.42-.19-.42-.42v-10.25c0-.23,.19-.42,.42-.42h5.82c.12,0,.23,.05,.31,.14l9.4,10.25c.25,.27,.06,.71-.31,.71Z"/>
</svg>
