<?xml version="1.0" encoding="UTF-8"?>
<svg id="icone" xmlns="http://www.w3.org/2000/svg" viewBox="0 0 100 100">
  <path d="M45.44,4.74V29.72c0,2.55-2.06,4.61-4.61,4.61H11.34c-2.55,0-4.61-2.06-4.61-4.61V4.74C6.73,2.19,8.79,.13,11.34,.13h9.21V6.67c0,1.96,1.59,3.54,3.54,3.54h3.98c1.96,0,3.55-1.58,3.55-3.54V.13h9.21c2.55,0,4.61,2.06,4.61,4.61Z"/>
  <path d="M88.05,.13h-9.21V6.67c0,1.96-1.59,3.54-3.54,3.54h-3.98c-1.96,0-3.54-1.59-3.54-3.54V.13h-9.21c-2.54,0-4.61,2.06-4.61,4.61V29.72c0,2.54,2.06,4.61,4.61,4.61h29.5c2.54,0,4.61-2.06,4.61-4.61V4.74c0-2.54-2.06-4.61-4.61-4.61Z"/>
  <path d="M45.44,46.2v24.99c0,2.54-2.06,4.6-4.61,4.6H11.34c-2.55,0-4.61-2.06-4.61-4.6v-24.99c0-2.55,2.06-4.61,4.61-4.61h9.21v6.54c0,1.96,1.59,3.54,3.54,3.54h3.98c1.96,0,3.55-1.58,3.55-3.54v-6.54h9.21c2.55,0,4.61,2.06,4.61,4.61Z"/>
  <path d="M92.66,46.2v24.99c0,2.54-2.06,4.6-4.61,4.6h-29.49c-2.55,0-4.61-2.06-4.61-4.6v-24.99c0-2.55,2.06-4.61,4.61-4.61h9.21v6.54c0,1.96,1.59,3.54,3.54,3.54h3.98c1.96,0,3.55-1.58,3.55-3.54v-6.54h9.21c2.55,0,4.61,2.06,4.61,4.61Z"/>
  <rect y="84.21" width="100" height="15.79" rx="4" ry="4"/>
</svg>