<svg id="icone_menu" data-name="icone menu" xmlns="http://www.w3.org/2000/svg" viewBox="0 0 100 100"><defs><style>.cls-1{fill:#3353d7;}.cls-2{fill:#fff;}</style></defs><path class="cls-1" d="M50,88.9a39,39,0,1,1,39-39A39.05,39.05,0,0,1,50,88.9Z"/><path class="cls-2" d="M66.29,34.19H55.53v6a2.86,2.86,0,0,1-2.71,3h-5a2.86,2.86,0,0,1-2.71-3v-6H33.71a2.86,2.86,0,0,0-2.71,3V62.81a2.86,2.86,0,0,0,2.71,3H66.29a2.86,2.86,0,0,0,2.71-3V37.19A2.86,2.86,0,0,0,66.29,34.19Z"/><path class="cls-1" d="M6,28.1a6,6,0,0,1-6-6V6A6,6,0,0,1,6,0H22a6,6,0,0,1,0,12H12V22.1A6,6,0,0,1,6,28.1Z"/><path class="cls-1" d="M94,28a6,6,0,0,1-6-6V12H77.9a6,6,0,0,1,0-12H94a6,6,0,0,1,6,6V22A6,6,0,0,1,94,28Z"/><path class="cls-1" d="M22,100H6a6,6,0,0,1-6-6V77.9a6,6,0,0,1,12,0V88H22a6,6,0,1,1,0,12Z"/><path class="cls-1" d="M94,100H77.9a6,6,0,0,1,0-12H88v-10a6,6,0,0,1,12,0V94A6,6,0,0,1,94,100Z"/></svg>