<svg id="icone_menu" data-name="icone menu" xmlns="http://www.w3.org/2000/svg" viewBox="0 0 100 100"><defs><style>.cls-1{fill:#3353d7;}</style></defs><path class="cls-1" d="M87.25,73.81l-7-6.9V44.71a29.85,29.85,0,0,0-21.2-28.8v-.8a9.15,9.15,0,0,0-14.3-7.5,8.85,8.85,0,0,0-3.9,7.5v.8c0,.1,0,.2-.1.2a29.77,29.77,0,0,0-21,28.7v22.1l-7,6.8a5.14,5.14,0,0,0-1.5,3.7v.9a5.16,5.16,0,0,0,5.2,5.2h25.7V86a7.87,7.87,0,0,0,5.4,7.6,8,8,0,0,0,10.5-7.5v-2.6h25.6a5,5,0,0,0,5.1-5.1v-.9A5.14,5.14,0,0,0,87.25,73.81Z"/></svg>