<?xml version="1.0" encoding="iso-8859-1"?>
<svg id="Panier" xmlns="http://www.w3.org/2000/svg" viewBox="0 0 100 100">
    <path
        d="M94.62,82.33H92.48V58.07a3,3,0,0,0-3-3h-12v-29a3,3,0,0,0-3-3h-44a3,3,0,0,0-3,3V82.33h-.92a9.51,9.51,0,0,0-5.21-5.74V14.73a3,3,0,0,0-1.65-2.68l-13-6.49A3,3,0,0,0,4,10.93l11.31,5.65V76.05A9.48,9.48,0,1,0,26.51,88.33H91.62v3.43a3,3,0,0,0,6,0V85.33A3,3,0,0,0,94.62,82.33Zm-8.14-.26h-53v-21H51.67v8.29a3,3,0,0,0,3,3H65.29a3,3,0,0,0,3-3V61.07H86.48Zm-28.81-21h4.62v5.29H57.67Zm-7.5-32h4.62v5H50.17Zm-16.69,0H44.17v8a3,3,0,0,0,3,3H57.79a3,3,0,0,0,3-3v-8H71.48v26h-38ZM17.54,88.76A3.49,3.49,0,1,1,21,85.27,3.49,3.49,0,0,1,17.54,88.76Z"/>
</svg>
