<svg id="icone_menu" data-name="icone menu" xmlns="http://www.w3.org/2000/svg" viewBox="0 0 100 100"><defs><style>.cls-1{fill:#3353d7}</style></defs><path class="cls-1" d="M99.79 58.13a3.13 3.13 0 0 0 0-.43v-.14a2.06 2.06 0 0 0-.15-.48.61.61 0 0 0 0-.12 3.9 3.9 0 0 0-.19-.35l-.09-.13a.86.86 0 0 0-.07-.1L80.46 32.17A3 3 0 0 0 78.09 31H41.48A27.28 27.28 0 0 0 44 21.09a18.11 18.11 0 0 0-36.22 0A27.11 27.11 0 0 0 10.31 31H3.2a3 3 0 0 0-3 3v48.42a3 3 0 0 0 3 3h6.61a12.06 12.06 0 0 0 24.1 0h35.4a12.06 12.06 0 0 0 24.11 0h3.38a3 3 0 0 0 3-3V58.21s-.01-.05-.01-.08Zm-86-37a12.11 12.11 0 0 1 24.22 0c0 2.51-1.25 6.06-3.1 9.92-.6 1.24-1.26 2.51-2 3.79l-.19.33c-.28.51-.57 1-.86 1.53l-.3.51-.79 1.34-.36.58c-.25.42-.51.83-.76 1.24l-.39.62-.76 1.18-.39.6-.8 1.2-.34.5c-.37.55-.74 1.09-1.11 1.61-.36-.52-.74-1.06-1.11-1.61l-.34-.51-.8-1.19-.39-.6-.73-1.17-.39-.62c-.25-.41-.5-.82-.76-1.23L21 38.5c-.26-.44-.53-.88-.79-1.33l-.3-.52c-.29-.5-.57-1-.85-1.51l-.2-.34c-.7-1.28-1.36-2.55-2-3.79-1.86-3.86-3.08-7.41-3.08-9.92Zm14.12 64.29a4.86 4.86 0 0 1-.07.55 4.7 4.7 0 0 1-.12.51c-.05.17-.1.32-.16.48a.19.19 0 0 0 0 .07c-.06.15-.13.3-.19.44l-.05.09-.21.4a.61.61 0 0 0-.07.1l-.24.36-.09.12c-.08.1-.16.21-.25.31l-.12.13c-.09.09-.17.18-.27.27l-.14.13a3.11 3.11 0 0 1-.28.23l-.18.14-.27.19-.21.13-.28.16-.25.12-.26.12-.29.1-.26.1-.32.08-.25.06-.38.06h-.2a6.08 6.08 0 0 1-.61 0h-.81l-.38-.06-.25-.06-.32-.08-.26-.1-.28-.1-.27-.12-.32-.03-.28-.16-.17-.16-.27-.19-.18-.14a2 2 0 0 1-.27-.23l-.15-.13-.27-.27-.11-.13-.3-.28v-.12l-.24-.36-.06-.1c-.08-.13-.15-.26-.22-.4a.36.36 0 0 1 0-.09 3.43 3.43 0 0 1-.19-.44v-.07c-.06-.16-.11-.31-.16-.48a4.7 4.7 0 0 1-.12-.51 4.86 4.86 0 0 1-.07-.55v-.48a6.07 6.07 0 0 1 3.56-5.52 5.89 5.89 0 0 1 .58-.24 5.5 5.5 0 0 1 .58-.16l.55-.1h1.5l.55.1h.05a5.5 5.5 0 0 1 .58.16c.2.07.39.15.59.24a6.08 6.08 0 0 1 3.55 5.52 3.87 3.87 0 0 1-.12.39Zm59.51 0a4.86 4.86 0 0 1-.07.55c0 .17-.07.34-.11.51a3.82 3.82 0 0 1-.15.48v.07c-.06.15-.12.3-.19.44v.09c-.07.14-.14.27-.22.4l-.06.1-.24.36-.09.12-.26.31-.11.13-.27.27-.15.13-.27.23-.18.14-.28.19a1.48 1.48 0 0 1-.21.13l-.27.16-.25.12-.27.12-.28.1-.26.1-.32.08-.25.06-.38.06L82 91h-.6a6.08 6.08 0 0 1-.61 0h-.2l-.39-.06-.24-.06-.32-.08-.27-.1-.28-.1-.27-.12-.24-.12-.28-.16-.24-.2-.28-.19-.18-.14-.27-.23-.15-.13-.26-.27-.12-.13c-.09-.1-.17-.21-.25-.31l-.09-.12a3.75 3.75 0 0 1-.24-.36l-.07-.1c-.07-.13-.15-.26-.21-.4v-.09c-.07-.14-.13-.29-.19-.44v-.07c0-.16-.11-.31-.15-.48a4.7 4.7 0 0 1-.12-.51c0-.18 0-.36-.07-.55V85a6.08 6.08 0 0 1 3.55-5.52 6.07 6.07 0 0 1 .59-.24A5.32 5.32 0 0 1 80 79h.06l.54-.1H82.11l.55.1a5.5 5.5 0 0 1 .58.16 6.07 6.07 0 0 1 .59.24 6.08 6.08 0 0 1 3.55 5.52c.06.18.05.34.04.5ZM68.73 55.21V37h7.89l14.07 18.2Z"/><circle class="cls-1" cx="25.89" cy="21.09" r="5.89" transform="rotate(-13.28 25.886 21.08)"/></svg>