<?xml version="1.0" encoding="utf-8"?>
<!-- Generator: Adobe Illustrator 26.0.3, SVG Export Plug-In . SVG Version: 6.00 Build 0)  -->
<svg version="1.1" id="icone_menu" xmlns="http://www.w3.org/2000/svg" xmlns:xlink="http://www.w3.org/1999/xlink" x="0px" y="0px"
	 viewBox="0 0 100 100" style="enable-background:new 0 0 100 100;" xml:space="preserve">
<style type="text/css">
	.st0{fill:#3353D7;}
</style>
<path class="st0" d="M50,10.9c-21.5,0-39,17.5-39,39c0,21.5,17.5,39,39,39c21.5,0,39-17.5,39-39C89,28.4,71.5,10.9,50,10.9z
	 M69,62.8c0.1,1.6-1.1,2.9-2.7,3H33.7c-1.6-0.1-2.8-1.4-2.7-3V37.2c-0.1-1.6,1.1-2.9,2.7-3h11.4v6c-0.1,1.6,1.1,2.9,2.7,3h5
	c1.6-0.1,2.8-1.4,2.7-3v-6h10.8c1.6,0.1,2.8,1.4,2.7,3V62.8z"/>
<path class="st0" d="M6,28.1c-3.3,0-6-2.7-6-6V6c0-3.3,2.7-6,6-6h16c3.3,0,6,2.7,6,6s-2.7,6-6,6H12v10.1C12,25.4,9.3,28.1,6,28.1z"
	/>
<path class="st0" d="M94,28c-3.3,0-6-2.7-6-6V12H77.9c-3.3,0-6-2.7-6-6s2.7-6,6-6H94c3.3,0,6,2.7,6,6v16C100,25.3,97.3,28,94,28z"/>
<path class="st0" d="M22,100H6c-3.3,0-6-2.7-6-6V77.9c0-3.3,2.7-6,6-6s6,2.7,6,6V88h10c3.3,0,6,2.7,6,6S25.3,100,22,100z"/>
<path class="st0" d="M94,100H77.9c-3.3,0-6-2.7-6-6s2.7-6,6-6H88V78c0-3.3,2.7-6,6-6s6,2.7,6,6v16C100,97.3,97.3,100,94,100z"/>
</svg>
