<svg id="icone_menu" data-name="icone menu" xmlns="http://www.w3.org/2000/svg" viewBox="0 0 100 100"><defs><style>.cls-1{fill:#3353d7;}</style></defs><path class="cls-1" d="M93.81,32.2H75V6.89a3,3,0,0,0-3-3H57v6a3,3,0,0,1-3,3H46.9a3,3,0,0,1-3-3v-6H28a3,3,0,0,0-3,3V32.2H6.19a6,6,0,1,0,0,12H93.81a6,6,0,0,0,0-12Z"/><path class="cls-1" d="M94,84.11V60.89a3,3,0,0,0-3-3H79v6a3,3,0,0,1-3,3H70.7a3,3,0,0,1-3-3v-6H55a3,3,0,0,0-3,3V84.11H47.9V60.89a3,3,0,0,0-3-3H33v6a3,3,0,0,1-3,3H24.51a3,3,0,0,1-3-3v-6H8.86a3,3,0,0,0-3,3V84.11a6,6,0,0,0,.14,12H94a6,6,0,0,0,0-12Z"/></svg>