<?xml version="1.0" encoding="UTF-8"?>
<svg id="menu_demande_" data-name="menu demande +" xmlns="http://www.w3.org/2000/svg" viewBox="0 0 100 100">
  <path d="m96.27,63.46c-.02-.09-.04-.19-.07-.28-.12-.38-.31-.72-.55-1.02l-17.16-22.2c-.57-.74-1.44-1.17-2.37-1.17h-31.25c.09.49.13,1,.13,1.52v4.48h16.75v38.55h-27.34c-1.92-3.58-5.7-6.03-10.04-6.03s-8.12,2.45-10.03,6.03h-4.14v-38.55h16.8v-4.48c0-.52.04-1.03.13-1.52H7.2c-1.65,0-3,1.34-3,3v44.55c0,1.66,1.35,3,3,3h5.84c.35,5.95,5.3,10.67,11.33,10.67s10.98-4.72,11.34-10.67h32.09c.35,5.95,5.3,10.67,11.33,10.67s10.98-4.72,11.34-10.67h2.86c1.66,0,3-1.34,3-3v-22.27c0-.21-.02-.41-.06-.61Zm-9.05-2.39h-19.47v-16.28h6.89l12.58,16.28Zm-62.85,32.94c-2.72,0-4.97-2.04-5.3-4.67-.04-.22-.05-.45-.05-.68,0-2.77,2.11-5.05,4.81-5.32h1.08c2.7.27,4.82,2.55,4.82,5.32,0,.23-.01.46-.05.68-.33,2.63-2.59,4.67-5.31,4.67Zm43.38-26.94h22.58v16.27h-1.16c-1.92-3.58-5.7-6.03-10.04-6.03s-8.12,2.45-10.03,6.03h-1.35v-16.27Zm11.38,26.94c-2.72,0-4.97-2.04-5.3-4.67-.04-.22-.05-.45-.05-.68,0-2.77,2.11-5.05,4.81-5.32h1.08c2.7.27,4.82,2.55,4.82,5.32,0,.23-.01.46-.05.68-.33,2.63-2.59,4.67-5.31,4.67Z"/>
  <path d="m48.79,58.41l-10.63,10.63c-.58.59-1.35.88-2.12.88s-1.53-.29-2.12-.88l-10.63-10.63c-1.17-1.17-1.17-3.07,0-4.24.59-.59,1.36-.88,2.12-.88s1.54.29,2.13.88l5.46,5.46v-19.32c0-.56.15-1.08.41-1.52.52-.89,1.49-1.48,2.59-1.48s2.07.59,2.59,1.48c.26.44.41.96.41,1.52v19.41l5.55-5.55c.59-.59,1.35-.88,2.12-.88s1.54.29,2.12.88c1.17,1.17,1.17,3.07,0,4.24Z"/>
  <path d="m65,0H7c-1.66,0-3,1.34-3,3v26.22c0,1.66,1.34,3,3,3h58c1.66,0,3-1.34,3-3V3c0-1.66-1.34-3-3-3ZM10,6h8.74v6.01c0,1.66,1.34,3,3,3h.41c1.66,0,3-1.34,3-3v-6.01h7.84v20.22H10V6Zm52,20.22h-22.98V6h8.71v6.01c0,1.66,1.34,3,3,3h.41c1.66,0,3-1.34,3-3v-6.01h7.87v20.22Z"/>
</svg>