<svg id="icone_menu" data-name="icone menu" xmlns="http://www.w3.org/2000/svg" viewBox="0 0 100 100"><defs><style>.cls-1{fill:#3353d7;}.cls-2{fill:#fff;}</style></defs><circle class="cls-1" cx="50" cy="50" r="48.1"/><circle class="cls-2" cx="50" cy="74.93" r="7"/><path class="cls-2" d="M62.94,62.07a6,6,0,0,1-4.24-1.75,12.31,12.31,0,0,0-17.4,0,6,6,0,1,1-8.49-8.49,24.35,24.35,0,0,1,34.38,0,6,6,0,0,1-4.25,10.24Z"/><path class="cls-2" d="M72.47,42.52a6,6,0,0,1-4.24-1.76,25.81,25.81,0,0,0-36.46,0,6,6,0,1,1-8.49-8.49,37.84,37.84,0,0,1,53.44,0,6,6,0,0,1-4.25,10.25Z"/></svg>