<?xml version="1.0" encoding="utf-8"?>
<!-- Generator: Adobe Illustrator 26.0.2, SVG Export Plug-In . SVG Version: 6.00 Build 0)  -->
<svg version="1.1" id="icone_menu" xmlns="http://www.w3.org/2000/svg" xmlns:xlink="http://www.w3.org/1999/xlink" x="0px" y="0px"
	 viewBox="0 0 100 100" style="enable-background:new 0 0 100 100;" xml:space="preserve">
<style type="text/css">
	.st0{fill:#3353D7;}
</style>
<path class="st0" d="M50,1.9C23.4,1.9,1.9,23.4,1.9,50S23.4,98.1,50,98.1S98.1,76.6,98.1,50S76.6,1.9,50,1.9z M50,81.9
	c-3.9,0-7-3.1-7-7s3.1-7,7-7s7,3.1,7,7S53.9,81.9,50,81.9z M67.2,60.3c-1.1,1.1-2.7,1.8-4.2,1.8c-1.6,0-3.1-0.6-4.2-1.8
	c-4.8-4.8-12.6-4.8-17.4,0c-2.3,2.3-6.1,2.3-8.5,0c-2.3-2.3-2.3-6.1,0-8.5c9.5-9.5,24.9-9.5,34.4,0C69.5,54.2,69.5,58,67.2,60.3z
	 M76.7,40.8c-1.1,1.1-2.7,1.8-4.3,1.8c-1.6,0-3.1-0.6-4.2-1.8c-10.1-10.1-26.4-10.1-36.5,0c-2.3,2.3-6.1,2.3-8.5,0
	c-2.3-2.3-2.3-6.1,0-8.5C38,17.5,62,17.5,76.7,32.3C79.1,34.6,79.1,38.4,76.7,40.8z"/>
</svg>
