<svg xmlns="http://www.w3.org/2000/svg" viewBox="0 0 512 512" style="enable-background:new 0 0 512 512" xml:space="preserve"><path d="M448 287.791a8 8 0 0 0-8 8v56.056h-12.728c-3.137-27.747-28.173-47.697-55.919-44.561-23.426 2.648-41.912 21.135-44.561 44.561H160v-232h280v25.16a8 8 0 0 0 16 0v-33.16a8 8 0 0 0-8-8H152a8 8 0 0 0-8 8v8H52.384c-20.083.026-36.358 16.3-36.384 36.384v11.616a8 8 0 0 0 8 8h9.304l-6.104 73.32C11.225 253.325.056 267.723 0 284.231v67.616a8 8 0 0 0 8 8h16.2c2.193 28.608 27.163 50.022 55.771 47.829 25.56-1.959 45.869-22.269 47.829-47.829.072 0 .128.04.2.04h16a8 8 0 0 0 8 8h175.52c5.699 27.345 32.487 44.892 59.832 39.193a50.575 50.575 0 0 0 39.192-39.193H448a8 8 0 0 0 8-8v-64.096a8 8 0 0 0-8-8zM76 391.847c-19.882 0-36-16.118-36-36s16.118-36 36-36 36 16.118 36 36c-.022 19.873-16.127 35.978-36 36zm68-48h-16a7.336 7.336 0 0 0-1.384.28c-6.434-27.953-34.31-45.397-62.262-38.963a51.935 51.935 0 0 0-38.898 38.683H16v-59.616c.013-11.252 9.132-20.371 20.384-20.384H144v80zm0-96H43.36l6-72H144v72zm0-88H32v-3.616c.013-11.252 9.132-20.371 20.384-20.384H144v24zm267.555 199.68c-1.028 18.302-16.185 32.607-34.515 32.576h-.008c-16.785-.037-31.117-12.126-33.984-28.664a7.2 7.2 0 0 0-.408-7.784c1.069-19.03 17.363-33.591 36.394-32.522 19.03 1.069 33.591 17.363 32.521 36.394z"/>
    <path
        d="M440 167.847H328a8 8 0 0 0 0 16h112a8 8 0 0 0 0-16zM456 255.847H280a8 8 0 0 0 0 16h176a8 8 0 0 0 0-16zM440 207.847h-88a8 8 0 0 0 0 16h88a8 8 0 0 0 0-16zM472 183.847h16a8 8 0 0 0 0-16h-16a8 8 0 0 0 0 16zM496 255.847h-16a8 8 0 0 0 0 16h16a8 8 0 0 0 0-16zM504 207.847h-32a8 8 0 0 0 0 16h32a8 8 0 0 0 0-16z"/></svg>
