<?xml version="1.0" encoding="utf-8"?>
<svg version="1.1" id="Panier" xmlns="http://www.w3.org/2000/svg" xmlns:xlink="http://www.w3.org/1999/xlink" x="0px" y="0px"
	 viewBox="0 0 100 100" style="enable-background:new 0 0 100 100;" xml:space="preserve">

<path fill="#1D1D1B" d="M90.1-54.3H10C3.7-54.3-1.4-49-1.4-42.6C-1.4-36.2,3.7-31,9.9-31h80.1c6.2,0,11.3-5.2,11.3-11.6
	C101.4-49,96.3-54.3,90.1-54.3z M29.8-39c-1.8,0-3.2-1.4-3.2-3.2c0-1.8,1.4-3.2,3.2-3.2c1.8,0,3.2,1.4,3.2,3.2
	C33-40.5,31.6-39,29.8-39z M48.8-39c-1.8,0-3.2-1.4-3.2-3.2c0-1.8,1.4-3.2,3.2-3.2c1.8,0,3.2,1.4,3.2,3.2C52-40.5,50.5-39,48.8-39z
	 M67.7-39c-1.8,0-3.2-1.4-3.2-3.2c0-1.8,1.4-3.2,3.2-3.2c1.8,0,3.2,1.4,3.2,3.2C70.9-40.5,69.5-39,67.7-39z"/>
<g>
	<path fill="none" stroke="#1D1D1B" stroke-width="4" stroke-miterlimit="10" d="M84.4,82H15.6C9.1,82,3.7,76.6,3.7,70v-1.6c0-6.6,5.4-11.9,11.9-11.9h68.8c6.6,0,11.9,5.4,11.9,11.9V70
		C96.3,76.6,90.9,82,84.4,82z"/>
	<path fill="none" stroke="#1D1D1B" stroke-width="3" stroke-miterlimit="10" d="M21.1,74.9L21.1,74.9c-3.1,0-5.7-2.6-5.7-5.7v0c0-3.1,2.6-5.7,5.7-5.7h0c3.1,0,5.7,2.6,5.7,5.7v0
		C26.8,72.3,24.3,74.9,21.1,74.9z"/>
	<path fill="none" stroke="#1D1D1B" stroke-width="3" stroke-miterlimit="10" d="M40.5,74.9L40.5,74.9c-3.1,0-5.7-2.6-5.7-5.7v0c0-3.1,2.6-5.7,5.7-5.7h0c3.1,0,5.7,2.6,5.7,5.7v0
		C46.2,72.3,43.7,74.9,40.5,74.9z"/>
	<path fill="none" stroke="#1D1D1B" stroke-width="3" stroke-miterlimit="10" d="M59.9,74.9L59.9,74.9c-3.1,0-5.7-2.6-5.7-5.7v0c0-3.1,2.6-5.7,5.7-5.7h0c3.1,0,5.7,2.6,5.7,5.7v0
		C65.6,72.3,63.1,74.9,59.9,74.9z"/>
	<path fill="none" stroke="#1D1D1B" stroke-width="3" stroke-miterlimit="10" d="M79.3,74.9L79.3,74.9c-3.1,0-5.7-2.6-5.7-5.7v0c0-3.1,2.6-5.7,5.7-5.7h0c3.1,0,5.7,2.6,5.7,5.7v0
		C85,72.3,82.4,74.9,79.3,74.9z"/>
</g>
<g>
	<path fill="none" stroke="#1D1D1B" stroke-width="5" stroke-miterlimit="10" d="M69.6,55.9H30.4c-0.4,0-0.7-0.3-0.7-0.7V18.7c0-0.4,0.3-0.7,0.7-0.7h39.3c0.4,0,0.7,0.3,0.7,0.7v36.4
		C70.3,55.6,70,55.9,69.6,55.9z"/>
	<path fill="none" stroke="#1D1D1B" stroke-width="5" stroke-miterlimit="10" d="M51.4,27h-2.8c-0.4,0-0.7-0.3-0.7-0.7v-6.4c0-0.4,0.3-0.7,0.7-0.7h2.8c0.4,0,0.7,0.3,0.7,0.7v6.4
		C52.1,26.7,51.8,27,51.4,27z"/>
</g>
</svg>
