<?xml version="1.0" encoding="utf-8"?>
<!-- Generator: Adobe Illustrator 21.0.0, SVG Export Plug-In . SVG Version: 6.00 Build 0)  -->
<svg version="1.1" id="Calque_1" xmlns="http://www.w3.org/2000/svg" xmlns:xlink="http://www.w3.org/1999/xlink" x="0px" y="0px"
	 viewBox="0 0 19 21" style="enable-background:new 0 0 19 21;" xml:space="preserve">
<style type="text/css">
	.st0{fill:#1B1464;}
</style>
<g>
	<path class="st0" d="M10,8.4v1c0,0.3,0.1,0.6,0.2,0.8c0.2,0.3,0.5,0.5,0.8,0.5c0.3,0,0.7-0.2,1-0.5l4.8-4.8L12,0.6
		c-0.3-0.3-0.6-0.5-1-0.5c-0.5,0-1,0.4-1,1.3v0.9c-4.9,0.3-8.9,4-9.5,8.9c0,0.3,0.1,0.5,0.4,0.6c0.1,0,0.1,0,0.2,0
		c0.2,0,0.4-0.1,0.5-0.2c1.6-2.2,4.2-3.5,6.9-3.5C9,8.2,9.5,8.3,10,8.4z M2.2,9.3c1.4-3.6,5-6,9-5.7l0-2L15,5.4l-3.9,3.9l0-1.9
		C10.3,7.2,9.4,7,8.5,7C6.9,7,5.3,7.4,4,8.1C3.3,8.4,2.7,8.8,2.2,9.3z"/>
	<path class="st0" d="M18.2,9c-0.3-0.1-0.5,0-0.7,0.2c-1.6,2.2-4.2,3.5-6.9,3.5c-0.5,0-1,0-1.5-0.1v-1c0-0.9-0.5-1.3-1-1.3
		c-0.3,0-0.7,0.2-1,0.5l-4.8,4.8L7,20.4c0.3,0.3,0.6,0.5,1,0.5c0.5,0,1-0.4,1-1.3v-0.9c4.9-0.3,8.9-4,9.5-8.9
		C18.6,9.4,18.4,9.1,18.2,9z M7.8,17.4l0,2L4,15.6l3.9-3.9l0,1.9c0.9,0.3,1.8,0.4,2.7,0.4c1.6,0,3.1-0.4,4.5-1.1
		c0.6-0.3,1.2-0.7,1.8-1.2C15.4,15.3,11.8,17.7,7.8,17.4z"/>
</g>
</svg>
