<?xml version="1.0" encoding="UTF-8"?>
<svg id="icone" xmlns="http://www.w3.org/2000/svg" viewBox="0 0 100 100">
  <defs>
    <style>
      .cls-1 {
        fill: #fff;
      }
    </style>
  </defs>
  <path class="cls-1" d="M6.7,56.97c-1.66,0-3-1.34-3-3V9.97c0-1.66,1.34-3,3-3s3,1.34,3,3V53.97c0,1.66-1.34,3-3,3Z"/>
  <path class="cls-1" d="M35.7,56.97c-1.66,0-3-1.34-3-3V9.97c0-1.66,1.34-3,3-3s3,1.34,3,3V53.97c0,1.66-1.34,3-3,3Z"/>
  <path class="cls-1" d="M21.2,56.97c-3.03,0-5.5-2.47-5.5-5.5V12.47c0-3.03,2.47-5.5,5.5-5.5s5.5,2.47,5.5,5.5V51.47c0,3.03-2.47,5.5-5.5,5.5Z"/>
  <path class="cls-1" d="M49.14,45.94c.5-.51,1.03-.99,1.56-1.45V9.97c0-1.66-1.34-3-3-3s-3,1.34-3,3V51.57c1.24-2,2.71-3.9,4.44-5.63Z"/>
  <path class="cls-1" d="M67.7,36.99V12.47c0-3.03-2.47-5.5-5.5-5.5s-5.5,2.47-5.5,5.5v27.89c3.4-1.79,7.12-2.93,11-3.36Z"/>
  <path class="cls-1" d="M84.7,39.88V12.47c0-3.03-2.47-5.5-5.5-5.5s-5.5,2.47-5.5,5.5v24.44c3.86,.31,7.58,1.32,11,2.97Z"/>
  <path class="cls-1" d="M88.91,50.13c-9.82-9.8-25.73-9.77-35.52,.05-9.8,9.82-9.77,25.73,.05,35.52,9.82,9.8,25.73,9.77,35.52-.05,9.8-9.82,9.77-25.73-.05-35.52Zm-1.63,21.1l-12.77,.02,.02,12.77c-.04,1.78-1.47,3.22-3.25,3.26-1.84,.04-3.37-1.41-3.41-3.25l-.02-12.77-12.77,.02c-1.84,0-3.34-1.49-3.34-3.33,0-1.84,1.49-3.34,3.33-3.34l12.77-.02-.02-12.77c0-1.84,1.49-3.33,3.33-3.34,1.84,0,3.33,1.49,3.34,3.33l.02,12.77,12.77-.02c1.78,.04,3.22,1.47,3.26,3.25,.04,1.84-1.41,3.37-3.25,3.41Z"/>
</svg>