<svg id="icone-notif" xmlns="http://www.w3.org/2000/svg" viewBox="0 0 100 100"><path fill="#FFFFFF" d="M90.93,72l-6.34-6.24V44A33.94,33.94,0,0,0,62.47,11.77a12.66,12.66,0,0,0-19.63-9A12.34,12.34,0,0,0,37.39,12a33.84,33.84,0,0,0-22,32.12V65.72L9.05,71.89A8.52,8.52,0,0,0,6.57,78v.94a8.57,8.57,0,0,0,8.56,8.56H38.68v.48a11.37,11.37,0,0,0,7.84,10.91,11.9,11.9,0,0,0,3.56.55,11.29,11.29,0,0,0,6.63-2.13,11.65,11.65,0,0,0,4.81-9.22v-.59H85a8.61,8.61,0,0,0,6.16-2.59A8.17,8.17,0,0,0,93.43,79v-.88A8.54,8.54,0,0,0,90.93,72ZM53,92.14a5.09,5.09,0,0,1-4.63.69h0A5,5,0,0,1,45,88.29H55.2A5.26,5.26,0,0,1,53,92.14ZM86.59,80.49a2.25,2.25,0,0,1-1.62.66H15.13a2.23,2.23,0,0,1-2.25-2.25V78a2.17,2.17,0,0,1,.6-1.58l7.28-7.07a3.15,3.15,0,0,0,.95-2.26v-23A27.68,27.68,0,0,1,41.33,17.26,3.28,3.28,0,0,0,43.64,14v-.83a6.1,6.1,0,0,1,2.61-5.15,6.21,6.21,0,0,1,6.59-.42,6.48,6.48,0,0,1,3.41,5.57V14a3.14,3.14,0,0,0,2.21,3A27.8,27.8,0,0,1,78.28,44V67.05a3.19,3.19,0,0,0,.94,2.25l7.26,7.15a2.18,2.18,0,0,1,.64,1.62v1A1.9,1.9,0,0,1,86.59,80.49Z"/></svg>
