<?xml version="1.0" encoding="utf-8"?>
<!-- Generator: Adobe Illustrator 21.0.0, SVG Export Plug-In . SVG Version: 6.00 Build 0)  -->
<svg version="1.1" id="Calque_1" xmlns="http://www.w3.org/2000/svg" xmlns:xlink="http://www.w3.org/1999/xlink" x="0px" y="0px"
	 viewBox="0 0 25 18" style="enable-background:new 0 0 25 18;" xml:space="preserve">
<style type="text/css">
	.st0{fill:#4D4D4D;}
</style>
<g>
	<g>
		<g>
			<path class="st0" d="M21.4,8H8.2c-0.6,0-1,0.4-1,1c0,0.6,0.4,1,1,1h13.2l-1.9,1.9c-0.4,0.4-0.4,1,0,1.4c0.2,0.2,0.4,0.3,0.7,0.3
				s0.5-0.1,0.7-0.3l3.6-3.6c0.1-0.1,0.2-0.2,0.2-0.3c0-0.1,0.1-0.2,0.1-0.4c0-0.1,0-0.3-0.1-0.4c-0.1-0.1-0.1-0.2-0.2-0.3l-3.6-3.6
				c-0.2-0.2-0.4-0.3-0.7-0.3c-0.3,0-0.5,0.1-0.7,0.3c-0.4,0.4-0.4,1,0,1.4L21.4,8z"/>
			<path class="st0" d="M3.5,18h11.2c1.8,0,3.3-1.5,3.3-3.3l0-3c0-0.5-0.5-1-1-1c-0.3,0-0.6,0.2-0.8,0.4l-0.2,0v3.5
				c0,0.7-0.6,1.3-1.3,1.3H3.5c-0.7,0-1.3-0.6-1.3-1.3V3.4C2.2,2.6,2.8,2,3.5,2h11.2c0.7,0,1.3,0.6,1.3,1.3l0,3.5h0.2
				c0.2,0.2,0.5,0.4,0.8,0.4c0.5,0,1-0.4,1-1V3.4c0-1.8-1.5-3.3-3.3-3.3H3.5C1.7,0,0.2,1.5,0.2,3.4v11.2C0.2,16.5,1.7,18,3.5,18z"/>
		</g>
	</g>
</g>
</svg>
