<?xml version="1.0" encoding="utf-8"?>
<!-- Generator: Adobe Illustrator 21.0.0, SVG Export Plug-In . SVG Version: 6.00 Build 0)  -->
<svg version="1.1" id="Calque_1" xmlns="http://www.w3.org/2000/svg" xmlns:xlink="http://www.w3.org/1999/xlink" x="0px" y="0px"
	 viewBox="0 0 25 26" style="enable-background:new 0 0 25 26;" xml:space="preserve">
<style type="text/css">
	.st0{fill:#4D4D4D;}
</style>
<g>
	<path class="st0" d="M9.3,23.5c0.4-0.1,0.9-0.3,1.3-0.5l0.8,0.6c0.3,0.2,0.6,0.2,0.9,0l1.1-1.1c0.2-0.2,0.3-0.6,0-0.9l-0.6-0.8
		c0.2-0.4,0.4-0.8,0.6-1.3l1-0.1c0.3,0,0.6-0.3,0.6-0.7v-1.6c0-0.3-0.2-0.6-0.6-0.7l-1-0.1c-0.1-0.5-0.3-1-0.6-1.4l0.6-0.8
		c0.2-0.3,0.2-0.6,0-0.9l-1.1-1.1c-0.2-0.2-0.6-0.3-0.9,0l-0.8,0.6c-0.4-0.2-0.9-0.4-1.4-0.6l-0.1-0.9c0-0.3-0.3-0.6-0.7-0.6H6.9
		c-0.3,0-0.6,0.2-0.7,0.6l-0.1,0.9c-0.5,0.1-0.9,0.3-1.4,0.6L4,12.2c-0.3-0.2-0.6-0.2-0.9,0l-1.1,1.1c-0.2,0.2-0.3,0.6,0,0.9
		l0.5,0.7c-0.3,0.4-0.5,0.9-0.6,1.4l-0.9,0.1c-0.3,0-0.6,0.3-0.6,0.7v1.6c0,0.3,0.2,0.6,0.6,0.7L2,19.4c0.1,0.5,0.3,1,0.6,1.5
		L2,21.6c-0.2,0.3-0.2,0.6,0,0.9l1.1,1.1c0.2,0.2,0.6,0.3,0.9,0L4.8,23c0.4,0.2,0.9,0.4,1.4,0.5l0.1,1c0,0.3,0.3,0.6,0.7,0.6h1.6
		c0.3,0,0.6-0.2,0.7-0.6L9.3,23.5z M5.1,17.9c0-1.4,1.2-2.6,2.6-2.6s2.6,1.2,2.6,2.6c0,1.4-1.2,2.6-2.6,2.6S5.1,19.3,5.1,17.9z"/>
	<path class="st0" d="M9.6,2.6L9,3.4C8.7,3.6,8.7,4,9,4.2l0.4,0.5C9.2,5.1,9.1,5.5,9,5.9L8.4,6C8.1,6.1,7.8,6.4,7.9,6.7L8,7.8
		c0,0.3,0.3,0.6,0.6,0.6l0.6,0c0.1,0.4,0.4,0.8,0.6,1.2l-0.4,0.5c-0.2,0.3-0.1,0.6,0.1,0.9l0.8,0.7c0.3,0.2,0.6,0.2,0.9,0l0.5-0.5
		c0.4,0.2,0.8,0.3,1.2,0.3l0.1,0.7c0.1,0.3,0.4,0.5,0.7,0.5l1.1-0.1c0.3,0,0.6-0.3,0.6-0.6l0-0.7c0.3-0.1,0.7-0.3,1-0.5l0.6,0.4
		c0.3,0.2,0.6,0.1,0.9-0.1l0.7-0.8c0.2-0.3,0.2-0.6,0-0.9l-0.5-0.5c0.2-0.4,0.3-0.7,0.4-1.1l0.7-0.1c0.3-0.1,0.5-0.4,0.5-0.7
		l-0.1-1.1c0-0.3-0.3-0.6-0.6-0.6l-0.7,0c-0.1-0.4-0.3-0.8-0.6-1.1l0.4-0.6c0.2-0.3,0.1-0.6-0.1-0.9l-0.8-0.7
		c-0.3-0.2-0.6-0.2-0.9,0l-0.5,0.5C15.4,2.2,15,2.1,14.6,2l-0.1-0.7c-0.1-0.3-0.4-0.5-0.7-0.5L12.7,1c-0.3,0-0.6,0.3-0.6,0.6l0,0.7
		c-0.4,0.1-0.7,0.3-1.1,0.5l-0.5-0.4C10.2,2.2,9.9,2.3,9.6,2.6z M15.8,6.6c0.1,1.2-0.8,2.2-1.9,2.3c-1.2,0.1-2.2-0.8-2.3-1.9
		c-0.1-1.2,0.8-2.2,1.9-2.3C14.7,4.6,15.7,5.4,15.8,6.6z"/>
	<path class="st0" d="M18.7,19.8c0,0.3,0.3,0.6,0.6,0.6l0.7,0c0.3,0,0.6-0.2,0.7-0.6l0.1-0.5c0.3-0.1,0.6-0.2,0.8-0.3l0.4,0.3
		c0.3,0.2,0.6,0.2,0.9,0l0.5-0.5c0.2-0.2,0.3-0.6,0.1-0.9L23,17.5c0.2-0.3,0.3-0.6,0.4-0.9l0.5-0.1c0.3,0,0.6-0.3,0.6-0.6l0-0.7
		c0-0.3-0.2-0.6-0.6-0.7l-0.5-0.1c-0.1-0.3-0.2-0.6-0.4-0.9l0.3-0.4c0.2-0.3,0.2-0.6,0-0.9L22.9,12c-0.2-0.2-0.6-0.3-0.9-0.1
		l-0.4,0.3c-0.3-0.2-0.6-0.3-0.9-0.4l0-0.4c0-0.3-0.3-0.6-0.6-0.6l-0.7,0c-0.3,0-0.6,0.2-0.7,0.6l-0.1,0.4c-0.3,0.1-0.6,0.2-0.9,0.4
		l-0.3-0.3c-0.3-0.2-0.6-0.2-0.9,0l-0.5,0.5c-0.2,0.2-0.3,0.6-0.1,0.9l0.2,0.3c-0.2,0.3-0.3,0.6-0.4,0.9l-0.4,0
		c-0.3,0-0.6,0.3-0.6,0.6l0,0.7c0,0.3,0.2,0.6,0.6,0.7l0.4,0.1c0.1,0.3,0.2,0.7,0.4,1L16,17.8c-0.2,0.3-0.2,0.6,0,0.9l0.5,0.5
		c0.2,0.2,0.6,0.3,0.9,0.1l0.4-0.3c0.3,0.2,0.6,0.3,0.9,0.4L18.7,19.8z M18,15.5c0-0.9,0.8-1.7,1.7-1.7c0.9,0,1.7,0.8,1.7,1.7
		c0,0.9-0.8,1.7-1.7,1.7C18.7,17.3,17.9,16.5,18,15.5z"/>
</g>
</svg>
