<svg id="Calque_1" data-name="Calque 1" xmlns="http://www.w3.org/2000/svg" viewBox="0 0 71 100">
    <path id="Icon_awesome-euro-sign" data-name="Icon awesome-euro-sign" fill="#3353d7"
          d="M69.06,85.1A2.68,2.68,0,0,0,65.92,83l-.07,0a46.56,46.56,0,0,1-10.11,1.2,28.63,28.63,0,0,1-27-19H54a2.68,2.68,0,0,0,2.6-2.09L58,56.81a2.67,2.67,0,0,0-2-3.19,2.78,2.78,0,0,0-.58-.06H25.56a47.82,47.82,0,0,1,0-9.42H58.21a2.66,2.66,0,0,0,2.6-2.09l1.45-6.63a2.67,2.67,0,0,0-2-3.18,2.6,2.6,0,0,0-.56-.06H28.89A27.93,27.93,0,0,1,55.06,15.49a43.5,43.5,0,0,1,8.43.91,2.65,2.65,0,0,0,3.11-1.92l2.67-9.85a2.67,2.67,0,0,0-1.88-3.28l-.19,0A64.83,64.83,0,0,0,55.49.15,47.57,47.57,0,0,0,10,32.19H2.59A2.68,2.68,0,0,0-.08,34.86h0v6.63a2.68,2.68,0,0,0,2.67,2.67h4.8a67,67,0,0,0,0,9.4H2.59A2.67,2.67,0,0,0-.08,56.23h0v6.31a2.68,2.68,0,0,0,2.67,2.67h6.7A46.62,46.62,0,0,0,55.47,99.84a55.66,55.66,0,0,0,13.6-1.73A2.67,2.67,0,0,0,71,95l-2-9.9Z"/>
</svg>
