<?xml version="1.0" encoding="utf-8"?>
<!-- Generator: Adobe Illustrator 21.0.0, SVG Export Plug-In . SVG Version: 6.00 Build 0)  -->
<svg version="1.1" id="Calque_1" xmlns="http://www.w3.org/2000/svg" xmlns:xlink="http://www.w3.org/1999/xlink" x="0px" y="0px"
	 viewBox="0 0 20 19" style="enable-background:new 0 0 20 19;" xml:space="preserve">
<style type="text/css">
	.st0{fill:#1B1464;}
</style>
<g>
	<g>
		<g>
			<path class="st0" d="M19.6,4.8h-3.3V0.3H3.7v4.5H0.4c-0.2,0-0.3,0.1-0.3,0.3v9.1c0,0.2,0.1,0.3,0.3,0.3h3.3v4.2h12.5v-4.2h3.3
				c0.2,0,0.3-0.1,0.3-0.3V5.1C19.9,4.9,19.8,4.8,19.6,4.8z M5.1,1.6h9.9v3.2H5.1V1.6z M14.9,17.4H5.1V12h9.9
				C14.9,12.1,14.9,17.3,14.9,17.4z M18.6,13c0,0.1-0.1,0.2-0.2,0.2h-2.1v-2.5H3.7v2.5H1.4V6.1h17.2V13L18.6,13z"/>
		</g>
	</g>
	<g>
		<g>
			<path class="st0" d="M15.6,7.3h-1.7c-0.4,0-0.7,0.3-0.7,0.7c0,0.4,0.3,0.7,0.7,0.7h1.7c0.4,0,0.7-0.3,0.7-0.7
				C16.3,7.6,16,7.3,15.6,7.3z"/>
		</g>
	</g>
	<g>
		<g>
			<path class="st0" d="M12.9,15.1H7.1c-0.4,0-0.7,0.3-0.7,0.7s0.3,0.7,0.7,0.7h5.7c0.4,0,0.7-0.3,0.7-0.7S13.2,15.1,12.9,15.1z"/>
		</g>
	</g>
	<g>
		<g>
			<path class="st0" d="M12.9,13H7.1c-0.4,0-0.7,0.3-0.7,0.7s0.3,0.7,0.7,0.7h5.7c0.4,0,0.7-0.3,0.7-0.7S13.2,13,12.9,13z"/>
		</g>
	</g>
</g>
</svg>
