<?xml version="1.0" encoding="utf-8"?>
<!-- Generator: Adobe Illustrator 28.1.0, SVG Export Plug-In . SVG Version: 6.00 Build 0)  -->
<svg version="1.1" id="Panier" xmlns="http://www.w3.org/2000/svg" xmlns:xlink="http://www.w3.org/1999/xlink" x="0px" y="0px"
	 viewBox="0 0 100 100" style="enable-background:new 0 0 100 100;" xml:space="preserve">
<style type="text/css">
	.st0{fill:#1D1D1B;stroke:#1D1D1B;stroke-width:6;stroke-miterlimit:10;}
	.st1{fill:#1D1D1B;}
</style>
<path class="st0" d="M27.2,47.02H15.48c-0.92,0-1.66-0.75-1.66-1.66V33.65c0-0.92,0.75-1.66,1.66-1.66H27.2
	c0.92,0,1.66,0.75,1.66,1.66v11.72C28.85,46.27,28.11,47.02,27.2,47.02z"/>
<path class="st1" d="M90.05,54.2H9.95C3.7,54.2-1.4,59.44-1.4,65.82c0,6.4,5.1,11.62,11.34,11.62h80.11
	c6.25,0,11.35-5.23,11.34-11.62C101.4,59.42,96.3,54.2,90.05,54.2z M29.82,69.44c-1.76,0-3.19-1.44-3.19-3.19
	c0-1.76,1.44-3.19,3.19-3.19c1.76,0,3.19,1.44,3.19,3.19C33.01,67.99,31.57,69.44,29.82,69.44z M48.78,69.44
	c-1.76,0-3.19-1.44-3.19-3.19c0-1.76,1.44-3.19,3.19-3.19c1.76,0,3.19,1.44,3.19,3.19C51.97,67.99,50.53,69.44,48.78,69.44z
	 M67.74,69.44c-1.76,0-3.19-1.44-3.19-3.19c0-1.76,1.44-3.19,3.19-3.19c1.76,0,3.19,1.44,3.19,3.19
	C70.93,67.99,69.5,69.44,67.74,69.44z"/>
<path class="st0" d="M54.64,47.02H42.92c-0.92,0-1.66-0.75-1.66-1.66V33.65c0-0.92,0.75-1.66,1.66-1.66h11.72
	c0.92,0,1.66,0.75,1.66,1.66v11.72C56.29,46.27,55.56,47.02,54.64,47.02z"/>
<path class="st0" d="M82.08,47.02H70.36c-0.92,0-1.66-0.75-1.66-1.66V33.65c0-0.92,0.75-1.66,1.66-1.66h11.72
	c0.92,0,1.66,0.75,1.66,1.66v11.72C83.73,46.27,83,47.02,82.08,47.02z"/>
</svg>
