<?xml version="1.0" encoding="utf-8"?>
<!-- Generator: Adobe Illustrator 21.0.0, SVG Export Plug-In . SVG Version: 6.00 Build 0)  -->
<svg version="1.1" id="Calque_1" xmlns="http://www.w3.org/2000/svg" xmlns:xlink="http://www.w3.org/1999/xlink" x="0px" y="0px"
	 viewBox="0 0 24 24" style="enable-background:new 0 0 24 24;" xml:space="preserve">
<style type="text/css">
	.st0{fill:#4D4D4D;}
</style>
<g>
	<path class="st0" d="M19.9,0.5H4.1c-2,0-3.6,1.6-3.6,3.6v15.7c0,2,1.6,3.6,3.6,3.6h15.7c2,0,3.6-1.6,3.6-3.6V4.1
		C23.5,2.1,21.9,0.5,19.9,0.5z M21.1,19.9c0,0.7-0.5,1.2-1.2,1.2H4.1c-0.7,0-1.2-0.5-1.2-1.2V4.1c0-0.7,0.5-1.2,1.2-1.2h15.7
		c0.7,0,1.2,0.5,1.2,1.2L21.1,19.9L21.1,19.9z"/>
	<path class="st0" d="M16.5,7.3c-0.4,0-0.8,0.2-1,0.4L10,13.2l-1.4-1.4c-0.3-0.3-0.6-0.4-1-0.4c-0.4,0-0.8,0.2-1,0.4
		c-0.3,0.3-0.4,0.6-0.4,1s0.2,0.8,0.4,1L9,16.3c0.3,0.3,0.6,0.4,1,0.4c0.4,0,0.8-0.2,1-0.4l6.4-6.5c0.6-0.6,0.6-1.5,0-2.1
		C17.2,7.5,16.9,7.3,16.5,7.3z"/>
</g>
</svg>
