<?xml version="1.0" encoding="UTF-8"?>
<svg id="icone" xmlns="http://www.w3.org/2000/svg" viewBox="0 0 101 100">
  <defs>
    <style>
      .cls-1 {
        fill: #3756ce;
      }
    </style>
  </defs>
  <path class="cls-1" d="M41.31,54.19h-12.91v10.62c0,1.38-1.12,2.5-2.5,2.5h-5.8c-1.38,0-2.5-1.12-2.5-2.5v-10.62H4.69c-2.48,0-4.49,2.02-4.5,4.5v36.62c0,2.48,2.02,4.49,4.5,4.5H41.31c2.48,0,4.49-2.02,4.5-4.5V58.69c0-2.48-2.02-4.49-4.5-4.5Z"/>
  <path class="cls-1" d="M96.31,54.19h-12.91v10.62c0,1.38-1.12,2.5-2.5,2.5h-5.8c-1.38,0-2.5-1.12-2.5-2.5v-10.62h-12.91c-2.48,0-4.49,2.02-4.5,4.5v36.62c0,2.48,2.02,4.49,4.5,4.5h36.62c2.48,0,4.49-2.02,4.5-4.5V58.69c0-2.48-2.02-4.49-4.5-4.5Z"/>
  <path class="cls-1" d="M68.81,.19h-12.91V10.81c0,1.38-1.12,2.5-2.5,2.5h-5.8c-1.38,0-2.5-1.12-2.5-2.5V.19h-12.91c-2.48,0-4.49,2.02-4.5,4.5V41.31c0,2.48,2.02,4.49,4.5,4.5h36.62c2.48,0,4.49-2.02,4.5-4.5V4.69c0-2.48-2.02-4.49-4.5-4.5Z"/>
</svg>