<?xml version="1.0" encoding="UTF-8"?>
<svg id="icone" xmlns="http://www.w3.org/2000/svg" viewBox="0 0 100 100">
  <defs>
    <style>
      .cls-1 {
        fill: #3756cf;
      }
    </style>
  </defs>
  <path id="Soustraction_5" data-name="Soustraction 5" class="cls-1" d="M50,99.75h0c-3.59,0-6.5-2.91-6.51-6.5v-.05c0-3.6,2.92-6.51,6.51-6.51,3.6,0,6.51,2.92,6.51,6.51,0,3.6-2.91,6.52-6.51,6.53v.02h0Zm0-21.12c-3.6,0-6.51-2.92-6.51-6.51v-11.82c-.07-8.18,4.76-15.62,12.27-18.87,5.66-2.44,9.2-8.14,8.89-14.3-.46-7.45-6.39-13.38-13.84-13.85-.26-.01-.54-.02-.79-.02-3.76-.01-7.37,1.43-10.09,4.03-2.93,2.76-4.59,6.61-4.58,10.63,0,3.6-2.92,6.51-6.51,6.51-3.6,0-6.51-2.92-6.51-6.51,.01-7.59,3.13-14.85,8.63-20.08C36.08,2.96,42.89,.24,49.97,.25c.5,0,1.01,.01,1.51,.04,14.08,.87,25.3,12.09,26.17,26.17,.58,11.61-6.11,22.36-16.79,26.95h-.02c-2.68,1.24-4.37,3.94-4.33,6.89v11.82c0,3.6-2.92,6.52-6.52,6.52Z"/>
</svg>