<?xml version="1.0" encoding="UTF-8"?>
<svg xmlns="http://www.w3.org/2000/svg" viewBox="0 0 100 100">
    <path fill="#3756ce" class="cls-1" d="M50,0C22.39,0,0,22.39,0,50s22.39,50,50,50,50-22.39,50-50S77.61,0,50,0Zm-.39,81.06c-2.21,0-4-1.78-4-3.99v-.03c0-2.21,1.79-4,4-4s4,1.79,4,4-1.79,4.01-4,4.01Zm6.66-28.46c-1.59,.68-2.66,2.38-2.66,4.23v7.26c0,2.21-1.79,4-4,4s-4-1.79-4-4v-7.26c0-5.09,2.95-9.64,7.53-11.59,3.46-1.48,5.66-5,5.46-8.78-.24-4.53-3.97-8.26-8.5-8.5-2.49-.13-4.88,.74-6.68,2.46-1.81,1.72-2.81,4.04-2.81,6.53,0,2.21-1.79,4-4,4s-4-1.79-4-4c0-4.64,1.93-9.14,5.3-12.33,3.42-3.24,7.91-4.89,12.61-4.64,8.56,.45,15.62,7.51,16.07,16.07,.37,7.11-3.77,13.76-10.31,16.55Z"/>
</svg>
