<?xml version="1.0" encoding="UTF-8"?>
<svg id="icone" xmlns="http://www.w3.org/2000/svg" viewBox="0 0 100 100">
  <defs>
    <style>
      .cls-1 {
        fill: #00dda8;
      }

      .cls-2 {
        fill: #3353d7;
      }
    </style>
  </defs>
  <path id="Icon_awesome-box-open" data-name="Icon awesome-box-open" class="cls-2" d="M55.3,35.26c-.58,.16-1.15,.24-1.73,.24-2.14,0-4.03-1.15-5.1-2.96l-7.98-13.25-7.99,13.25c-1.39,2.39-4.19,3.46-6.83,2.72l-17.11-4.86v22.14c0,1.81,1.23,3.45,3.04,3.87l26.91,6.74c1.24,.33,2.55,.33,3.87,0l5.48-1.37,24.48-24.56v-6.82l-17.04,4.86Zm24.94-13.42c-.09-.08-.09-.16-.17-.33l-6.42-12.75c-.41-.74-1.23-1.24-2.06-1.16l-31.1,3.95,11.44,18.93c.49,.83,1.4,1.15,2.3,.91l24.61-7c1.07-.33,1.72-1.4,1.4-2.55ZM9.3,7.6c-.83-.08-1.65,.33-2.06,1.16L.82,21.51c-.49,.99-.08,2.22,.91,2.72,.08,.08,.24,.08,.33,.16l24.6,7.08c.91,.25,1.81-.08,2.31-.91l11.52-19.01L9.3,7.6Z"/>
  <g>
    <path class="cls-1" d="M88.02,52.14l-39.65,39.77c-.32,.31-.75,.49-1.2,.49h-.05l-9.68-.28c-.95-.03-1.71-.79-1.74-1.73l-.31-9.69c-.02-.46,.16-.92,.49-1.25l19.5-19.56,16.96-17,3.19-3.2,12.49,12.45Z"/>
    <path class="cls-1" d="M98.87,38.76l-9.99-9.96c-.33-.33-.78-.52-1.25-.52h0c-.47,0-.91,.18-1.25,.52l-6.85,6.87,12.49,12.45,6.85-6.87c.33-.33,.52-.78,.52-1.25,0-.47-.18-.91-.52-1.25Z"/>
  </g>
</svg>