<svg id="Calque_1" data-name="Calque 1" xmlns="http://www.w3.org/2000/svg" viewBox="0 0 108 100"><defs><style>.cls-1{fill:#d73353;}.cls-2{fill:#fff;}</style></defs><path id="Icon_awesome-box-open" data-name="Icon awesome-box-open" d="M64.47,65.74a7.32,7.32,0,0,1-6.25-3.56L48.49,46.06,38.78,62.18a7.29,7.29,0,0,1-8.3,3.27L9.76,59.52V86.45a4.82,4.82,0,0,0,3.66,4.69l32.7,8.18a9.79,9.79,0,0,0,4.69,0l32.74-8.18a4.86,4.86,0,0,0,3.66-4.69V59.53L66.5,65.45A7,7,0,0,1,64.47,65.74Zm32.17-17L88.85,33.21a2.47,2.47,0,0,0-2.53-1.35L48.49,36.69l13.87,23a2.49,2.49,0,0,0,2.8,1.11L95.1,52.26a2.48,2.48,0,0,0,1.7-3.08,2.05,2.05,0,0,0-.16-.41ZM8.13,33.21.34,48.76a2.48,2.48,0,0,0,1.09,3.32,2.32,2.32,0,0,0,.44.16L31.8,60.79a2.49,2.49,0,0,0,2.8-1.1l13.9-23L10.64,31.87A2.47,2.47,0,0,0,8.13,33.21Z"/><path class="cls-1" d="M106.81,35.67,89.34,3.55a7.24,7.24,0,0,0-12.46,0L59.4,35.67a7.25,7.25,0,0,0,6.23,10.95h35A7.25,7.25,0,0,0,106.81,35.67Zm-23.7,5.15a2.9,2.9,0,1,1,2.9-2.9A2.9,2.9,0,0,1,83.11,40.82ZM86,29.22a2.9,2.9,0,0,1-5.8,0V14.73a2.9,2.9,0,0,1,5.8,0Z"/><path class="cls-2" d="M83.11,40.82a2.9,2.9,0,1,0-2.9-2.9A2.9,2.9,0,0,0,83.11,40.82Z"/><path class="cls-2" d="M83.11,32.12a2.9,2.9,0,0,0,2.9-2.9V14.73a2.9,2.9,0,0,0-5.8,0V29.22A2.9,2.9,0,0,0,83.11,32.12Z"/></svg>