<svg xmlns="http://www.w3.org/2000/svg" viewBox="0 0 100 100"><defs><style>.cls-1{fill:#fff;}.cls-2{fill:#d73353;}</style></defs><g id="général"><path d="M99.63,57.36a.28.28,0,0,1,0-.09,1.87,1.87,0,0,0-.13-.4s0,0,0-.08a2.11,2.11,0,0,0-.21-.31l0,0L82.75,38.49A1.67,1.67,0,0,0,81.52,38h-9.2v-5a1.67,1.67,0,0,0-1.67-1.67h-55A1.68,1.68,0,0,0,14,32.93V75.52a1.68,1.68,0,0,0,1.68,1.67h6.78c0,.18,0,.36,0,.54a9.66,9.66,0,1,0,19.32,0c0-.18,0-.36,0-.54H74.77c0,.18,0,.36,0,.54a9.66,9.66,0,1,0,19.31,0c0-.18,0-.36,0-.54h4a1.67,1.67,0,0,0,1.67-1.67V57.57A1.49,1.49,0,0,0,99.63,57.36ZM32.06,84.05a6.32,6.32,0,0,1-6.31-6.32c0-.18,0-.36,0-.54h0a6.31,6.31,0,0,1,12.57,0h0a4.89,4.89,0,0,1,0,.54A6.32,6.32,0,0,1,32.06,84.05Zm52.34,0a6.32,6.32,0,0,1-6.31-6.32,4.89,4.89,0,0,1,0-.54,6.31,6.31,0,0,1,12.57,0c0,.18,0,.36,0,.54A6.33,6.33,0,0,1,84.4,84.05ZM92.91,55.9h-20a.56.56,0,0,1-.56-.56V41.85a.56.56,0,0,1,.56-.56h7.66a.58.58,0,0,1,.41.18L93.32,55A.56.56,0,0,1,92.91,55.9Z"/><g id="icone"><path class="cls-1" d="M22.55,23.23a2.61,2.61,0,0,0-2.61,2.6h0v13a2.61,2.61,0,1,0,5.21,0v-13a2.6,2.6,0,0,0-2.6-2.61Z"/><circle class="cls-1" cx="22.55" cy="46.66" r="2.61"/><path class="cls-2" d="M43.83,44.64,28.15,15.8A6.5,6.5,0,0,0,17,15.8L1.26,44.64a6.53,6.53,0,0,0,5.6,9.84H38.29a6.5,6.5,0,0,0,5.54-9.84ZM19.94,25.84a2.61,2.61,0,1,1,5.21,0h0v13a2.61,2.61,0,1,1-5.21,0Zm2.61,23.43a2.61,2.61,0,1,1,2.6-2.61h0A2.6,2.6,0,0,1,22.55,49.27Z"/></g></g></svg>