<?xml version="1.0" encoding="utf-8"?>
<!-- Generator: Adobe Illustrator 21.0.0, SVG Export Plug-In . SVG Version: 6.00 Build 0)  -->
<svg version="1.1" id="Calque_1" xmlns="http://www.w3.org/2000/svg" xmlns:xlink="http://www.w3.org/1999/xlink" x="0px" y="0px"
	 viewBox="0 0 18 18" style="enable-background:new 0 0 18 18;" xml:space="preserve">
<style type="text/css">
	.st0{fill:#1B1464;}
</style>
<g>
	<path class="st0" d="M13.2,11.6c1.1-1.6,1.7-3.6,1.3-5.7C13.9,3,11.6,0.7,8.7,0.1c-5.1-1-9.6,3.5-8.6,8.6c0.5,2.9,2.9,5.2,5.8,5.8
		c2.2,0.4,4.2-0.1,5.7-1.3l4.8,4.8l1.6-1.6L13.2,11.6L13.2,11.6z M7.3,12.4c-2.9,0-5.2-2.4-5.1-5.3c0.1-2.7,2.3-4.8,5-4.9
		c3.4,0,6,3.3,4.8,6.9C11.4,11.1,9.4,12.4,7.3,12.4L7.3,12.4z"/>
</g>
</svg>
