<svg xmlns="http://www.w3.org/2000/svg" viewBox="0 0 100 100"><defs><style>.cls-1{fill:#3353d7;fill-rule:evenodd;}</style></defs><g id="icone"><path id="setting" class="cls-1" d="M64.38,14a38.39,38.39,0,0,1,9.79,5.49l13.2-3.78,11,19.06-9.64,9.31a39,39,0,0,1,0,11.82l9.64,9.31-11,19.06L74.17,80.5A38.56,38.56,0,0,1,64.38,86L61,99.5H39L35.47,85.37a38.24,38.24,0,0,1-8.64-5.16l-14.2,4.07-11-19.06L12.47,54.74a38.88,38.88,0,0,1,0-9.48L1.63,34.78l11-19.06,14.2,4.07a38.24,38.24,0,0,1,8.64-5.16L39,.5H61ZM50,33.54A16.46,16.46,0,1,1,33.54,50,16.46,16.46,0,0,1,50,33.54Z"/></g></svg>