<?xml version="1.0" encoding="UTF-8"?>
<svg id="menu_demande_" data-name="menu demande +" xmlns="http://www.w3.org/2000/svg" viewBox="0 0 100 100">
  <defs>
    <style>
      .cls-1 {
        fill: #3353d7;
        fill-rule: evenodd;
      }
    </style>
  </defs>
  <polygon class="cls-1" points="90.67 18.42 86.44 18.43 86.4 18.43 82.2 18.45 72.49 18.48 72.48 8.78 72.48 .3 90.67 18.42"/>
  <path class="cls-1" d="m69.72,30.49h-.04c-2.45,0-4.75-.95-6.48-2.68-1.75-1.73-2.71-4.04-2.71-6.5V.03H14C11.25.03,9.03,2.25,9.03,5v90.01c0,2.74,2.22,4.96,4.97,4.96h72c2.74,0,4.97-2.22,4.97-4.96V30.42l-21.25.07Zm3.17,52.79H28.44c-3.31,0-6-2.69-6-6s2.69-6,6-6h44.46c3.31,0,6,2.69,6,6s-2.69,6-6,6Zm0-27.62H28.44c-3.31,0-6-2.69-6-6s2.69-6,6-6h44.46c3.31,0,6,2.69,6,6s-2.69,6-6,6Z"/>
</svg>