<?xml version="1.0" encoding="UTF-8"?>
<svg id="icone" xmlns="http://www.w3.org/2000/svg" viewBox="0 0 100 100">
    <path d="m14.84,75.47l11.37.33h.06c.52,0,1.02-.21,1.38-.57l46.53-46.66-14.61-14.57L13.03,60.65c-.38.38-.58.9-.56,1.44l.36,11.37c.03,1.09.92,1.97,2.01,2Z"/>
    <path d="m86.94,15.75c.79-.79.79-2.08,0-2.88l-11.73-11.7c-.38-.38-.89-.6-1.44-.6h0c-.54,0-1.06.21-1.44.6l-8.02,8.04,14.61,14.57,8.02-8.04Zm-.71-2.17h0Z"/>
    <path d="m91.1,87.13H8.9c-3.31,0-6,2.69-6,6s2.69,6,6,6h82.21c3.31,0,6-2.69,6-6s-2.69-6-6-6Z"/>
</svg>
