<?xml version="1.0" encoding="UTF-8"?>
<svg id="icone" xmlns="http://www.w3.org/2000/svg" viewBox="0 0 100 100">
  <defs>
    <style>
      .cls-1 {
        fill: #3353d7;
      }
    </style>
  </defs>
  <path class="cls-1" d="m98.24,45.76l-10.32-10.32c-2.34-2.34-6.14-2.34-8.48,0-2.34,2.34-2.34,6.14,0,8.48l.08.08h-23.52v-23.52l.08.08c1.17,1.17,2.71,1.76,4.24,1.76s3.07-.59,4.24-1.76c2.34-2.34,2.34-6.14,0-8.48L54.24,1.76c-2.34-2.34-6.14-2.34-8.48,0l-10.32,10.32c-2.34,2.34-2.34,6.14,0,8.48,2.34,2.34,6.14,2.34,8.48,0l.08-.08v23.52h-23.52l.08-.08c2.34-2.34,2.34-6.14,0-8.48-2.34-2.34-6.14-2.34-8.48,0L1.77,45.75c-.28.28-.54.6-.76.93-.01.02-.02.04-.04.06-.2.31-.37.63-.51.98-.01.02-.02.05-.03.08-.13.33-.24.68-.31,1.04,0,.02,0,.04,0,.06C.04,49.25,0,49.62,0,50s.04.75.11,1.1c0,.02,0,.04,0,.06.07.36.18.71.31,1.04,0,.02.02.05.03.07.14.34.31.67.51.98.01.02.02.04.04.06.22.34.48.65.76.93l10.31,10.31c1.17,1.17,2.71,1.76,4.24,1.76s3.07-.59,4.24-1.76c2.34-2.34,2.34-6.14,0-8.48l-.08-.08h23.52v23.52l-.08-.08c-2.34-2.34-6.14-2.34-8.48,0-2.34,2.34-2.34,6.14,0,8.48l10.29,10.29c.29.3.61.56.96.79,0,0,.02.01.03.02.32.21.66.39,1.01.53.01,0,.02,0,.04.01.35.14.71.25,1.08.32,0,0,0,0,.01,0,.37.07.75.11,1.14.11s.77-.04,1.14-.11c0,0,0,0,.01,0,.38-.07.74-.18,1.08-.32.01,0,.02,0,.04-.01.36-.15.69-.32,1.01-.53,0,0,.02-.01.03-.02.35-.23.67-.49.96-.79l10.29-10.29c2.34-2.34,2.34-6.14,0-8.48-2.34-2.34-6.14-2.34-8.48,0l-.08.08v-23.52h23.52l-.08.08c-2.34,2.34-2.34,6.14,0,8.48,1.17,1.17,2.71,1.76,4.24,1.76s3.07-.59,4.24-1.76l10.32-10.32c2.34-2.34,2.34-6.14,0-8.48Z"/>
</svg>