<?xml version="1.0" encoding="utf-8"?>
<!-- Generator: Adobe Illustrator 21.0.0, SVG Export Plug-In . SVG Version: 6.00 Build 0)  -->
<svg version="1.1" id="Calque_1" xmlns="http://www.w3.org/2000/svg" xmlns:xlink="http://www.w3.org/1999/xlink" x="0px" y="0px"
	 viewBox="0 0 26 26" style="enable-background:new 0 0 26 26;" xml:space="preserve">
<style type="text/css">
	.st0{fill:#4D4D4D;stroke:#4D4D4D;stroke-width:0.2;stroke-miterlimit:10;}
</style>
<path class="st0" d="M25.3,9.5V8.7h-1.6V3c0-0.2-0.2-0.4-0.4-0.4h0h-9c-0.2,0-0.4,0.2-0.4,0.4v0v5.7h-1.2V3c0-0.2-0.2-0.4-0.4-0.4h0
	h-9C3,2.6,2.8,2.8,2.8,3v0v5.7H1.6V0.9H0.7v23.7c0,0.2,0.2,0.4,0.4,0.4h0h24.1v-0.8h-1.6v-5.7c0-0.2-0.2-0.4-0.4-0.4h0h-9
	c-0.2,0-0.4,0.2-0.4,0.4v0v5.7h-1.2v-5.7c0-0.2-0.2-0.4-0.4-0.4h0h-9c-0.2,0-0.4,0.2-0.4,0.4v0v5.7H1.6v-7h23.7v-0.8h-1.6v-5.7
	c0-0.2-0.2-0.4-0.4-0.4h0h-9c-0.2,0-0.4,0.2-0.4,0.4v0v5.7h-1.2v-5.7c0-0.2-0.2-0.4-0.4-0.4h0h-9c-0.2,0-0.4,0.2-0.4,0.4v0v5.7H1.6
	v-7H25.3z M17.9,3.4h1.6V5h-1.6V3.4z M14.6,3.4h2.5v2c0,0.2,0.2,0.4,0.4,0.4h0H20c0.2,0,0.4-0.2,0.4-0.4v0v-2h2.5v5.3h-8.2V3.4z
	 M6.9,3.4h1.6V5H6.9V3.4z M3.6,3.4H6v2c0,0.2,0.2,0.4,0.4,0.4h0h2.5c0.2,0,0.4-0.2,0.4-0.4v0v-2h2.5v5.3H3.6V3.4z M17.9,18.9h1.6
	v1.6h-1.6V18.9z M14.6,18.9h2.5v2c0,0.2,0.2,0.4,0.4,0.4h0H20c0.2,0,0.4-0.2,0.4-0.4v0v-2h2.5v5.3h-8.2V18.9z M6.9,18.9h1.6v1.6H6.9
	V18.9z M3.6,18.9H6v2c0,0.2,0.2,0.4,0.4,0.4h0h2.5c0.2,0,0.4-0.2,0.4-0.4v0v-2h2.5v5.3H3.6V18.9z M17.9,11.6h1.6v1.6h-1.6V11.6z
	 M14.6,11.2h2.5v2.5c0,0.2,0.2,0.4,0.4,0.4h0H20c0.2,0,0.4-0.2,0.4-0.4v0v-2.5h2.5v5.3h-8.2V11.2z M6.9,11.2h1.6v1.6H6.9V11.2z
	 M3.6,11.2H6v2c0,0.2,0.2,0.4,0.4,0.4h0h2.5c0.2,0,0.4-0.2,0.4-0.4v0v-2h2.5v5.3H3.6V11.2z"/>
</svg>
