<?xml version="1.0" encoding="utf-8"?>
<!-- Generator: Adobe Illustrator 26.1.0, SVG Export Plug-In . SVG Version: 6.00 Build 0)  -->
<svg version="1.1" id="Calque_1" xmlns="http://www.w3.org/2000/svg" xmlns:xlink="http://www.w3.org/1999/xlink" x="0px" y="0px"
	 viewBox="0 0 100 100" style="enable-background:new 0 0 100 100;" xml:space="preserve">
<style type="text/css">
	.st0{fill:#D73353;}
</style>
<path class="st0" d="M65.1,64c-0.2-0.3-0.5-0.5-0.7-0.8V15.8C64.3,8,58,1.7,50.2,1.7c-7.8,0-14.1,6.3-14.1,14.1v47.1
	c-8.3,7.6-8.9,20.6-1.2,28.9c7.6,8.3,20.6,8.9,28.9,1.2C72.2,85.3,72.7,72.4,65.1,64z M55,87.2c-5.1,2.7-11.5,0.8-14.2-4.3
	c-2.7-5.1-0.8-11.5,4.3-14.2v-38c0-0.4,0-0.7,0-1.1c0.3-2.7,2.8-4.7,5.5-4.4c2.7,0.3,4.7,2.8,4.4,5.5v38v0c1.8,1,3.3,2.5,4.3,4.3
	C62,78.1,60.1,84.5,55,87.2z"/>
</svg>
