<svg xmlns="http://www.w3.org/2000/svg" viewBox="0 0 100 100"><defs><style>.cls-1{fill:#fff;}</style></defs><g id="général"><path d="M72,17.07H28a25.94,25.94,0,0,0-12.8,48.52L10,79.76a2.36,2.36,0,0,0,2.22,3.17,2.44,2.44,0,0,0,1.14-.29L38.18,69H72a26,26,0,0,0,0-51.92Z"/><path class="cls-1" d="M23.67,38.14A4.9,4.9,0,1,1,18.78,43,4.89,4.89,0,0,1,23.67,38.14Z"/><path class="cls-1" d="M77.17,38.14A4.9,4.9,0,1,1,72.27,43,4.89,4.89,0,0,1,77.17,38.14Z"/><path class="cls-1" d="M50.42,38.14A4.9,4.9,0,1,1,45.53,43,4.9,4.9,0,0,1,50.42,38.14Z"/></g></svg>
