<svg id="Calque_1" data-name="Calque 1" xmlns="http://www.w3.org/2000/svg" viewBox="0 0 100 100">
    <style>svg{fill:#ffffff;}</style>
    <path d="M9.69,45a8,8,0,1,0-5-10.15h0A8,8,0,0,0,9.69,45Z"/>
    <path d="M19.46,58.82a8,8,0,1,0-5.4,9.93A8,8,0,0,0,19.46,58.82Z"/>
    <path d="M30,74.36a8,8,0,0,0-9.92,12.55h0A8,8,0,0,0,30.24,74.55Z"/>
    <path d="M21.58,12a8,8,0,1,0,11.17,1.77h0A8,8,0,0,0,21.58,12Z"/>
    <path d="M47.55,81a8,8,0,1,0-.83,16h.42a8,8,0,0,0,.41-16Z"/>
    <path d="M49.2,3h-.6a8,8,0,1,0,.1,16h.5A31,31,0,0,1,65.73,76.26h0A8,8,0,0,0,74.28,89.8h0A47,47,0,0,0,49.2,3Z"/>
</svg>
