<?xml version="1.0" encoding="utf-8"?>
<!-- Generator: Adobe Illustrator 21.0.0, SVG Export Plug-In . SVG Version: 6.00 Build 0)  -->
<svg version="1.1" id="Calque_1" xmlns="http://www.w3.org/2000/svg" xmlns:xlink="http://www.w3.org/1999/xlink" x="0px" y="0px"
	 viewBox="0 0 26 26" style="enable-background:new 0 0 26 26;" xml:space="preserve">
<style type="text/css">
	.st0{fill:#4D4D4D;}
</style>
<g>
	<path class="st0" d="M17.5,7.8h-9c-0.4,0-0.7,0.3-0.7,0.7v9c0,0.4,0.3,0.7,0.7,0.7h9c0.4,0,0.7-0.3,0.7-0.7v-9
		C18.2,8.1,17.9,7.8,17.5,7.8z M12.3,9.3h1.5v1.5h-1.5V9.3z M16.7,16.7H9.3V9.3h1.5v2.2c0,0.4,0.3,0.7,0.7,0.7h3
		c0.4,0,0.7-0.3,0.7-0.7V9.3h1.5V16.7z"/>
	<path class="st0" d="M25,12.3h-2.3c-0.4-4.8-4.2-8.6-9-9V1c0-0.4-0.3-0.7-0.7-0.7S12.3,0.5,12.3,1v2.3c-4.8,0.4-8.6,4.2-9,9H1
		c-0.4,0-0.7,0.3-0.7,0.7s0.3,0.7,0.7,0.7h2.3c0.4,4.8,4.2,8.6,9,9V25c0,0.4,0.3,0.7,0.7,0.7s0.7-0.3,0.7-0.7v-2.3
		c4.8-0.4,8.6-4.2,9-9H25c0.4,0,0.7-0.3,0.7-0.7S25.5,12.3,25,12.3z M13.7,21.2v-0.7c0-0.4-0.3-0.7-0.7-0.7s-0.7,0.3-0.7,0.7v0.7
		c-3.9-0.4-7.1-3.5-7.5-7.5h0.7c0.4,0,0.7-0.3,0.7-0.7s-0.3-0.7-0.7-0.7H4.8c0.4-3.9,3.5-7.1,7.5-7.5v0.7c0,0.4,0.3,0.7,0.7,0.7
		s0.7-0.3,0.7-0.7V4.8c3.9,0.4,7.1,3.5,7.5,7.5h-0.7c-0.4,0-0.7,0.3-0.7,0.7s0.3,0.7,0.7,0.7h0.7C20.9,17.7,17.7,20.9,13.7,21.2z"/>
	<path class="st0" d="M2.5,6.3c0.4,0,0.7-0.3,0.7-0.7V3.3h2.2c0.4,0,0.7-0.3,0.7-0.7S5.9,1.8,5.5,1.8h-3c-0.4,0-0.7,0.3-0.7,0.7v3
		C1.8,5.9,2.1,6.3,2.5,6.3z"/>
	<path class="st0" d="M5.5,22.7H3.3v-2.2c0-0.4-0.3-0.7-0.7-0.7s-0.7,0.3-0.7,0.7v3c0,0.4,0.3,0.7,0.7,0.7h3c0.4,0,0.7-0.3,0.7-0.7
		S5.9,22.7,5.5,22.7z"/>
	<path class="st0" d="M23.5,19.7c-0.4,0-0.7,0.3-0.7,0.7v2.2h-2.2c-0.4,0-0.7,0.3-0.7,0.7s0.3,0.7,0.7,0.7h3c0.4,0,0.7-0.3,0.7-0.7
		v-3C24.2,20.1,23.9,19.7,23.5,19.7z"/>
	<path class="st0" d="M20.5,3.3h2.2v2.2c0,0.4,0.3,0.7,0.7,0.7s0.7-0.3,0.7-0.7v-3c0-0.4-0.3-0.7-0.7-0.7h-3c-0.4,0-0.7,0.3-0.7,0.7
		S20.1,3.3,20.5,3.3z"/>
</g>
</svg>
