<?xml version="1.0" encoding="utf-8"?>
<!-- Generator: Adobe Illustrator 26.0.2, SVG Export Plug-In . SVG Version: 6.00 Build 0)  -->
<svg version="1.1" id="Calque_1" xmlns="http://www.w3.org/2000/svg" xmlns:xlink="http://www.w3.org/1999/xlink" x="0px" y="0px"
	 viewBox="0 0 100 100" style="enable-background:new 0 0 100 100;" xml:space="preserve">
<style type="text/css">
	.st0{fill:#FFFFFF;}
</style>
<g id="icone">
	<path class="st0" d="M57.7,2.8h-0.3C35.1,2.9,17,21,17,43.3c0,0.8,0,1.7,0.1,2.5h26.2c1.1,0,2.3,0.2,3.4,0.5h7.8v7.8
		c0.3,1.1,0.5,2.3,0.5,3.4v19.5c0,2.3-0.7,4.6-2,6.5c1.5,0.2,2.9,0.2,4.4,0.2l0,0c22.4,0,40.5-18.1,40.6-40.4S79.9,2.8,57.5,2.8
		c0,0,0,0,0,0L57.7,2.8z M36.3,40.3H23.2c0.5-5.8,2.5-11.4,5.7-16.2c3.3,1,6.7,1.7,10.1,2.3C37.4,30.9,36.5,35.5,36.3,40.3z M33,19
		c4.3-4.3,9.6-7.4,15.5-9c-2.9,3.2-5.3,6.8-7.2,10.7C38.5,20.3,35.7,19.7,33,19z M54.5,40.3H42.3c0.3-4.5,1.2-8.9,2.8-13.1
		c3.1,0.3,6.3,0.5,9.5,0.6V40.3z M54.5,21.9c-2.3-0.1-4.6-0.2-6.8-0.4c1.8-3.3,4.1-6.4,6.8-9.1V21.9z M86.2,24.2
		c3.2,4.8,5.2,10.4,5.7,16.1H78.7c-0.2-4.7-1.1-9.4-2.7-13.8C79.5,25.9,82.9,25.1,86.2,24.2z M82.1,19.1c-2.8,0.7-5.5,1.3-8.4,1.7
		c-1.9-3.9-4.4-7.5-7.3-10.8C72.4,11.6,77.8,14.7,82.1,19.1z M60.5,12.4c2.7,2.7,5,5.8,6.8,9.1c-2.2,0.2-4.5,0.3-6.8,0.4V12.4z
		 M60.5,27.8c3.2-0.1,6.4-0.2,9.5-0.6c1.6,4.2,2.5,8.6,2.8,13H60.5V27.8z M60.5,46.3h12.2c-0.3,4.5-1.3,9-2.9,13.2
		c-3-0.3-6.2-0.5-9.3-0.5L60.5,46.3z M60.5,64.9c2.2,0,4.4,0.2,6.6,0.3c-1.8,3.2-4,6.2-6.6,8.8L60.5,64.9z M66.3,76.7
		c2.9-3.2,5.3-6.8,7.2-10.7c2.8,0.4,5.6,1,8.4,1.7C77.6,72,72.2,75.1,66.3,76.7z M86.1,62.6c-3.3-1-6.7-1.7-10.2-2.3
		c1.6-4.5,2.5-9.2,2.8-14h13.2C91.4,52.2,89.4,57.8,86.1,62.6z"/>
	<polygon class="st0" points="23.7,70.3 31.5,70.3 27.6,61.1 	"/>
	<path class="st0" d="M43.3,49.8H11.8c-4.3,0-7.8,3.4-7.8,7.7c0,0,0,0,0,0v19.5c0,4.3,3.5,7.7,7.7,7.7c0,0,0,0,0,0h3
		c-0.1,3.7-1.3,7.3-3.3,10.4c-0.7,0.9-0.5,2.1,0.4,2.8c0.4,0.3,0.8,0.4,1.2,0.4c0.2,0,0.5,0,0.7-0.1c0.5-0.2,11.5-4.5,13.8-13.3
		c0,0,0-0.1,0-0.1h15.8c4.3,0,7.7-3.5,7.7-7.7V57.5C51,53.3,47.6,49.8,43.3,49.8z M38.7,79.5c-0.5,0.4-1.1,0.7-1.7,0.7
		c-0.4,0-0.8-0.1-1.2-0.4c-0.4-0.3-0.7-0.7-0.8-1.1l-1.8-4.2H22l-1.8,4.2c-0.2,0.4-0.5,0.8-0.8,1.1c-0.4,0.2-0.8,0.4-1.2,0.4
		c-0.6,0-1.3-0.2-1.7-0.7c-0.5-0.4-0.8-1-0.8-1.7c0-0.4,0.1-0.8,0.3-1.1l9-20.1c0.2-0.5,0.6-1,1-1.3c1-0.6,2.2-0.6,3.1,0
		c0.5,0.3,0.9,0.7,1.1,1.3l9,20.1c0.2,0.4,0.2,0.7,0.3,1.1C39.5,78.4,39.2,79.1,38.7,79.5z"/>
</g>
</svg>
