<?xml version="1.0" encoding="UTF-8"?>
<svg id="icone_menu" data-name="icone menu" xmlns="http://www.w3.org/2000/svg" viewBox="0 0 100 100">
  <path d="M59.72,44.51V24.54c0-1.66-1.34-3-3-3h-22.23v-7.01c0-1.14-.65-2.18-1.67-2.69-1.02-.51-2.24-.39-3.15,.3L3.46,32.11c-.74,.57-1.18,1.45-1.18,2.39s.44,1.82,1.18,2.39l26.21,19.97c.53,.41,1.17,.61,1.82,.61,.45,0,.91-.1,1.33-.31,1.02-.51,1.67-1.55,1.67-2.69v-6.96h22.23c1.66,0,3-1.34,3-3Z"/>
  <path d="M96.54,63.11l-26.21-19.97c-.91-.69-2.13-.81-3.15-.3-1.02,.51-1.67,1.55-1.67,2.69v7.01h-22.23c-1.66,0-3,1.34-3,3v19.98c0,1.66,1.34,3,3,3h22.23v6.96c0,1.14,.65,2.18,1.67,2.69,.42,.21,.88,.31,1.33,.31,.65,0,1.29-.21,1.82-.61l26.21-19.97c.74-.57,1.18-1.45,1.18-2.39s-.44-1.82-1.18-2.39Z"/>
</svg>