<svg id="icone_menu" data-name="icone menu" xmlns="http://www.w3.org/2000/svg" viewBox="0 0 100 100">
    <path
        d="M99.79,58.13a3.13,3.13,0,0,0,0-.43l0-.14a2.06,2.06,0,0,0-.15-.48.61.61,0,0,0,0-.12,3.9,3.9,0,0,0-.19-.35l-.09-.13a.86.86,0,0,0-.07-.1L80.46,32.17A3,3,0,0,0,78.09,31H41.48A27.28,27.28,0,0,0,44,21.09a18.11,18.11,0,0,0-36.22,0A27.11,27.11,0,0,0,10.31,31H3.2a3,3,0,0,0-3,3V82.42a3,3,0,0,0,3,3H9.81a12.06,12.06,0,0,0,24.1,0h35.4a12.06,12.06,0,0,0,24.11,0H96.8a3,3,0,0,0,3-3V58.21S99.79,58.16,99.79,58.13Zm-86-37a12.11,12.11,0,0,1,24.22,0c0,2.51-1.25,6.06-3.1,9.92l-.53,1.07-.24.48c-.2.39-.41.78-.62,1.17-.06.12-.12.24-.19.36l-.71,1.3a1.62,1.62,0,0,0-.1.18c-.27.48-.54,1-.82,1.44-1.86,3.19-3.9,6.33-5.8,9C24,43.34,22,40.2,20.1,37c-.28-.47-.55-1-.82-1.43l-.11-.18-.71-1.3-.19-.36c-.21-.39-.41-.78-.61-1.17l-.24-.48c-.18-.36-.37-.72-.54-1.07h0C15,27.15,13.78,23.6,13.78,21.09ZM27.91,85.42h0a4.86,4.86,0,0,1-.07.55v0a4.7,4.7,0,0,1-.12.51.43.43,0,0,1,0,0c-.05.17-.1.32-.16.48a.19.19,0,0,0,0,.07c-.06.15-.13.3-.19.44l-.05.09-.21.4a.61.61,0,0,0-.07.1l-.24.36-.09.12c-.08.1-.16.21-.25.31l-.12.13c-.09.09-.17.18-.27.27l-.14.13a3.11,3.11,0,0,1-.28.23l-.18.14-.27.19-.21.13-.28.16-.25.12-.26.12-.29.1-.26.1-.32.08-.25.06-.38.06-.2,0a6.08,6.08,0,0,1-.61,0c-.2,0-.41,0-.61,0l-.2,0-.38-.06-.25-.06-.32-.08-.26-.1-.28-.1-.27-.12L19,90.32l-.28-.16L18.55,90l-.27-.19-.18-.14a2,2,0,0,1-.27-.23l-.15-.13-.27-.27-.11-.13L17,88.63,17,88.51l-.24-.36-.06-.1c-.08-.13-.15-.26-.22-.4a.36.36,0,0,1,0-.09,3.43,3.43,0,0,1-.19-.44l0-.07c-.06-.16-.11-.31-.16-.48a.43.43,0,0,1,0,0,4.7,4.7,0,0,1-.12-.51v0a4.86,4.86,0,0,1-.07-.55h0c0-.16,0-.32,0-.48a6.07,6.07,0,0,1,3.56-5.52h0a5.89,5.89,0,0,1,.58-.24h0a5.5,5.5,0,0,1,.58-.16h0l.55-.1h.1c.21,0,.43,0,.65,0s.44,0,.65,0h.1l.55.1h.05a5.5,5.5,0,0,1,.58.16h0c.2.07.39.15.59.24h0a6.08,6.08,0,0,1,3.55,5.52A3.87,3.87,0,0,1,27.91,85.42ZM62.73,58.21V79.42H32.59a12.06,12.06,0,0,0-21.46,0H6.2V37h7a134.53,134.53,0,0,0,9.85,15.34,3.53,3.53,0,0,0,5.66,0A134.53,134.53,0,0,0,38.57,37H62.73Zm6-21.2h7.89l14.07,18.2h-22ZM87.42,85.42h0a4.86,4.86,0,0,1-.07.55v0c0,.17-.07.34-.11.51s0,0,0,0a3.82,3.82,0,0,1-.15.48l0,.07c-.06.15-.12.3-.19.44l0,.09c-.07.14-.14.27-.22.4l-.06.1-.24.36-.09.12-.26.31-.11.13-.27.27-.15.13-.27.23-.18.14-.28.19a1.48,1.48,0,0,1-.21.13l-.27.16-.25.12-.27.12-.28.1-.26.1-.32.08-.25.06-.38.06L82,91q-.3,0-.6,0a6.08,6.08,0,0,1-.61,0l-.2,0-.39-.06-.24-.06-.32-.08-.27-.1-.28-.1-.27-.12-.24-.12-.28-.16L78.06,90l-.28-.19-.18-.14-.27-.23-.15-.13-.26-.27-.12-.13c-.09-.1-.17-.21-.25-.31l-.09-.12a3.75,3.75,0,0,1-.24-.36l-.07-.1c-.07-.13-.15-.26-.21-.4l0-.09c-.07-.14-.13-.29-.19-.44l0-.07c0-.16-.11-.31-.15-.48a.07.07,0,0,1,0,0,4.7,4.7,0,0,1-.12-.51v0c0-.18,0-.36-.07-.55h0c0-.16,0-.32,0-.48a6.08,6.08,0,0,1,3.55-5.52h0a6.07,6.07,0,0,1,.59-.24h0A5.32,5.32,0,0,1,80,79h.06l.54-.1h.1c.22,0,.44,0,.66,0s.44,0,.65,0h.1l.55.1h0a5.5,5.5,0,0,1,.58.16h0a6.07,6.07,0,0,1,.59.24h0a6.08,6.08,0,0,1,3.55,5.52C87.44,85.1,87.43,85.26,87.42,85.42Zm6.38-6H92.1a12.06,12.06,0,0,0-21.46,0H68.73V61.21H93.8Z"/>
    <path d="M25.89,30a8.89,8.89,0,1,1,8.89-8.89A8.9,8.9,0,0,1,25.89,30Zm0-11.78a2.89,2.89,0,1,0,2.89,2.89A2.9,2.9,0,0,0,25.89,18.2Z"/>
</svg>
