<?xml version="1.0" encoding="utf-8"?>
<!-- Generator: Adobe Illustrator 26.3.1, SVG Export Plug-In . SVG Version: 6.00 Build 0)  -->
<svg version="1.1" id="Calque_1" xmlns="http://www.w3.org/2000/svg" xmlns:xlink="http://www.w3.org/1999/xlink" x="0px" y="0px"
	 viewBox="0 0 86 100" style="enable-background:new 0 0 86 100;" xml:space="preserve">
<path d="M83.5,10.3H58V2.7c0-1.4-1.1-2.5-2.5-2.5h-25c-1.4,0-2.5,1.1-2.5,2.5v7.6H2.5c-1.4,0-2.5,1.1-2.5,2.5s1.1,2.5,2.5,2.5h81
	c1.4,0,2.5-1.1,2.5-2.5S84.9,10.3,83.5,10.3z M33,5.2h20v5.1H33V5.2z"/>
<path d="M6.7,20.8v74.5c0,2.5,2,4.5,4.5,4.5h63.6c2.5,0,4.5-2,4.5-4.5V20.8H6.7z M23.5,83.9c0,1.4-1.1,2.5-2.5,2.5s-2.5-1.1-2.5-2.5
	V33.3c0-1.4,1.1-2.5,2.5-2.5s2.5,1.1,2.5,2.5V83.9z M45.5,83.9c0,1.4-1.1,2.5-2.5,2.5s-2.5-1.1-2.5-2.5V33.3c0-1.4,1.1-2.5,2.5-2.5
	s2.5,1.1,2.5,2.5V83.9z M67.5,83.9c0,1.4-1.1,2.5-2.5,2.5s-2.5-1.1-2.5-2.5V33.3c0-1.4,1.1-2.5,2.5-2.5s2.5,1.1,2.5,2.5V83.9z"/>
</svg>
