<svg version="1.1" id="Calque_1" xmlns="http://www.w3.org/2000/svg" x="0" y="0" viewBox="0 0 86 100" style="enable-background:new 0 0 86 100" xml:space="preserve"><style>.st0{fill:#3353d7}</style><path class="st0" d="M83.5 10.3H58V2.7C58 1.3 56.9.2 55.5.2h-25C29.1.2 28 1.3 28 2.7v7.6H2.5c-1.4 0-2.5 1.1-2.5 2.5s1.1 2.5 2.5 2.5h81c1.4 0 2.5-1.1 2.5-2.5s-1.1-2.5-2.5-2.5zM33 5.2h20v5.1H33V5.2zM6.7 20.8v74.5c0 2.5 2 4.5 4.5 4.5h63.6c2.5 0 4.5-2 4.5-4.5V20.8H6.7zm16.8 63.1c0 1.4-1.1 2.5-2.5 2.5s-2.5-1.1-2.5-2.5V33.3c0-1.4 1.1-2.5 2.5-2.5s2.5 1.1 2.5 2.5v50.6zm22 0c0 1.4-1.1 2.5-2.5 2.5s-2.5-1.1-2.5-2.5V33.3c0-1.4 1.1-2.5 2.5-2.5s2.5 1.1 2.5 2.5v50.6zm22 0c0 1.4-1.1 2.5-2.5 2.5s-2.5-1.1-2.5-2.5V33.3c0-1.4 1.1-2.5 2.5-2.5s2.5 1.1 2.5 2.5v50.6z"/></svg>
