<?xml version="1.0" encoding="UTF-8"?>
<svg xmlns="http://www.w3.org/2000/svg" viewBox="0 0 100 100">
    <circle fill="#3353d7" class="cls-1" cx="40.33" cy="20.73" r="20.1"/>
    <path fill="#3353d7" class="cls-1"
          d="M26.12,81.15c1.02-1.04,15.9-9.54,16.03-9.6,1.02-.49,2.09-.75,3.17-.75,1.76,0,3.48,.82,5.26,2.51,.71,.67,1.64,1.86,3.11,3.73,.5,.64,1.19,1.53,1.61,2.03,1.71-1.04,5.7-3.71,12.26-9.48,4.07-3.57,6.35-6.43,7.64-8.48-3.97-8.14-12.3-13.75-21.96-13.78-8.13,4.06-17.7,4.06-25.83,0-13.49,.05-24.42,11-24.42,24.5v12.2c0,.47,.38,.85,.84,.85H24.59c.08-1.33,.48-2.67,1.53-3.74Z"/>
    <path fill="#3353d7" class="cls-1"
          d="M29.42,88.46c3.87,9.27,12.94,10.9,15.9,10.9,.87,0,14.42,.72,33.9-17.76,15.68-14.87,17.59-30.86,17.76-33.9,.16-2.96-.69-10.38-10.9-15.9-1.27-.68-3.77-.99-4.42-.34-.29,.29-8.86,14.39-9.09,14.86-.23,.47-.34,.93-.34,1.38,0,.64,.46,1.45,1.38,2.42,.92,.97,1.92,1.85,3,2.66,1.08,.81,2.08,1.66,3,2.56,.92,.9,1.38,1.64,1.38,2.22-.06,1.5-1.3,6.89-10.69,15.15-9.39,8.25-13.92,10.58-14.35,10.74-.44,.16-.8,.24-1.09,.24-.58,0-1.32-.46-2.22-1.38-.9-.92-3.93-5.07-4.9-5.99-.97-.92-1.77-1.38-2.42-1.38-.45,0-.91,.11-1.38,.34-.47,.23-14.59,8.49-14.86,8.77-.73,.75-.22,3.1,.34,4.42"/>
</svg>
