<svg xmlns="http://www.w3.org/2000/svg" viewBox="0 0 100 100"><defs><style>.cls-1{fill:#3353d7;}</style></defs><g id="icone"><circle class="cls-1" cx="37" cy="18.97" r="15.93"/><path class="cls-1" d="M68.74,44.25,29.09,84a1.68,1.68,0,0,0-.49,1.25L28.91,95a1.78,1.78,0,0,0,1.73,1.73l9.69.28h.05a1.73,1.73,0,0,0,1.2-.49L81.23,56.7Z"/><path class="cls-1" d="M26.75,40.05h0Z"/><path class="cls-1" d="M61.24,46.1a19.36,19.36,0,0,0-14-6.05,22.9,22.9,0,0,1-20.47,0A19.43,19.43,0,0,0,7.4,59.47v9.68a.67.67,0,0,0,.67.67H37.59Z"/><path class="cls-1" d="M47.17,40.05h0Z"/><path class="cls-1" d="M92.08,43.31l-10-10a1.76,1.76,0,0,0-1.25-.51h0a1.78,1.78,0,0,0-1.25.51l-6.85,6.87L85.23,52.68l6.85-6.87a1.76,1.76,0,0,0,0-2.5Z"/></g></svg>