<svg xmlns="http://www.w3.org/2000/svg" viewBox="0 0 100 100"><defs><style>.cls-1{fill:#3353d7;}</style></defs><g id="icone"><circle class="cls-1" cx="37.2" cy="18.97" r="15.93"/><path class="cls-1" d="M27,40.05Z"/><path class="cls-1" d="M46.66,51.28A28.86,28.86,0,0,1,59,43.92a19.31,19.31,0,0,0-11.55-3.87,22.9,22.9,0,0,1-20.47,0A19.43,19.43,0,0,0,7.6,59.47v9.68a.67.67,0,0,0,.67.67h30A28.93,28.93,0,0,1,46.66,51.28Z"/><path class="cls-1" d="M47.37,40.05h0Z"/><path class="cls-1" d="M85,54.05a25.12,25.12,0,1,0,0,35.53A25.07,25.07,0,0,0,85,54.05Zm-1.63,21.1-12.77,0,0,12.77a3.33,3.33,0,0,1-6.66,0l0-12.76-12.77,0a3.34,3.34,0,0,1,0-6.67l12.77,0,0-12.77a3.33,3.33,0,1,1,6.66,0l0,12.77,12.77,0a3.33,3.33,0,0,1,0,6.66Z"/></g></svg>