<svg xmlns="http://www.w3.org/2000/svg" viewBox="0 0 100 100"><defs><style>.cls-1{fill:#3353d7;}</style></defs><g id="icone"><circle class="cls-1" cx="50" cy="50" r="13.43"/><path class="cls-1" d="M97.78,45.78A99.46,99.46,0,0,0,80.84,28.87c-10.4-8-20.78-12.08-30.84-12.08S29.56,20.86,19.16,28.87A99.46,99.46,0,0,0,2.22,45.78a6.82,6.82,0,0,0,0,8.44A99.46,99.46,0,0,0,19.16,71.13c10.4,8,20.78,12.08,30.84,12.08s20.44-4.07,30.84-12.08A99.46,99.46,0,0,0,97.78,54.22,6.82,6.82,0,0,0,97.78,45.78ZM50,70.75A20.75,20.75,0,1,1,70.75,50,20.78,20.78,0,0,1,50,70.75Z"/><circle class="cls-1" cx="50" cy="50" r="13.43"/></g></svg>