<svg xmlns="http://www.w3.org/2000/svg" viewBox="0 0 100 100"><defs><style>.cls-1{fill:#3353d7;}</style></defs><g id="icone"><path class="cls-1" d="M34.85,85.28a1.66,1.66,0,0,0-.46,1.22l.47,9.42a1.74,1.74,0,0,0,1.72,1.66l9.44.11h0a1.67,1.67,0,0,0,1.16-.5L85.14,57.8,72.77,45.89Z"/><path class="cls-1" d="M95.47,44.58l-9.89-9.53a1.7,1.7,0,0,0-1.22-.48h0a1.73,1.73,0,0,0-1.2.53L76.6,41.9,89,53.81,95.52,47A1.7,1.7,0,0,0,96,45.79,1.73,1.73,0,0,0,95.47,44.58Z"/><path class="cls-1" d="M27,61.93c-1,1.24-3.18,1.85-6.54,1.85H18.91v5.48H43L49,63a3.93,3.93,0,0,1-1.4-1q-1.54-1.8-1.55-6.39V8.29h5.77C56,8.29,59.07,9.18,61,11s3.39,5.26,4.44,10.39H71V2.31H4V21.37H9.58a20.83,20.83,0,0,1,1.95-7.68,8.77,8.77,0,0,1,4-4.32q2.37-1.08,7.41-1.08h5.63v47.3C28.54,58.58,28,60.7,27,61.93Z"/></g></svg>