<svg id="Calque_1" data-name="Calque 1" xmlns="http://www.w3.org/2000/svg" viewBox="0 0 64 100"><defs><style>.cls-1{fill:#666;}</style></defs><path class="cls-1" d="M54.74,0,9.26,0a9.13,9.13,0,0,0-9.1,9.1V90.94a9.13,9.13,0,0,0,9.1,9.1H54.74a9.13,9.13,0,0,0,9.1-9.1V9.06A9.08,9.08,0,0,0,54.74,0Zm0,81.83H9.26V18.16H54.74Z"/><path class="cls-1" d="M17.24,64.34a2.49,2.49,0,0,0,3.54,0l10.81-10.8,10.8,10.8a2.5,2.5,0,0,0,3.54-3.53L35.12,50,45.93,39.19a2.5,2.5,0,0,0-3.54-3.53L31.59,46.47,20.78,35.66a2.5,2.5,0,1,0-3.54,3.53L28.05,50,17.24,60.81A2.5,2.5,0,0,0,17.24,64.34Z"/></svg>