<svg id="Calque_1" data-name="Calque 1" xmlns="http://www.w3.org/2000/svg" viewBox="0 0 64 100"><defs><style>.cls-1{fill:#3353d7;}</style></defs><g id="Icon_material-smartphone" data-name="Icon material-smartphone"><path class="cls-1" d="M54.62.28,9.38.24a9.08,9.08,0,0,0-9,9V90.71a9.08,9.08,0,0,0,9.05,9.05H54.62a9.08,9.08,0,0,0,9.05-9.05V9.29A9,9,0,0,0,54.62.28Zm0,81.39H9.38V18.33H54.62Z"/></g><g id="Tracé_49" data-name="Tracé 49"><path class="cls-1" d="M30.35,69.09A3,3,0,0,1,28,67.93L17,53.68A3,3,0,1,1,21.7,50l8,10.28,12.28-27.6a3,3,0,1,1,5.48,2.44L33.09,67.31a3,3,0,0,1-2.38,1.76A2.17,2.17,0,0,1,30.35,69.09Z"/></g></svg>