<svg id="Calque_1" data-name="Calque 1" xmlns="http://www.w3.org/2000/svg" viewBox="0 0 101 100"><defs><style>.cls-1{fill:#3353d7;}</style></defs><path class="cls-1" d="M41.31,54.19H28.4V64.81a2.5,2.5,0,0,1-2.5,2.5H20.1a2.5,2.5,0,0,1-2.5-2.5V54.19H4.69a4.51,4.51,0,0,0-4.5,4.5V95.31a4.51,4.51,0,0,0,4.5,4.5H41.31a4.51,4.51,0,0,0,4.5-4.5V58.69A4.51,4.51,0,0,0,41.31,54.19Z"/><path class="cls-1" d="M96.31,54.19H83.4V64.81a2.5,2.5,0,0,1-2.5,2.5H75.1a2.5,2.5,0,0,1-2.5-2.5V54.19H59.69a4.51,4.51,0,0,0-4.5,4.5V95.31a4.51,4.51,0,0,0,4.5,4.5H96.31a4.51,4.51,0,0,0,4.5-4.5V58.69A4.51,4.51,0,0,0,96.31,54.19Z"/><path class="cls-1" d="M68.81.19H55.9V10.81a2.5,2.5,0,0,1-2.5,2.5H47.6a2.5,2.5,0,0,1-2.5-2.5V.19H32.19a4.51,4.51,0,0,0-4.5,4.5V41.31a4.51,4.51,0,0,0,4.5,4.5H68.81a4.51,4.51,0,0,0,4.5-4.5V4.69A4.51,4.51,0,0,0,68.81.19Z"/></svg>