<svg id="Calque_1" data-name="Calque 1" xmlns="http://www.w3.org/2000/svg" viewBox="0 0 101 100"><defs><style>.cls-1{fill:#3353d7;}</style></defs><path class="cls-1" d="M51.84,34.26H44.72a2.5,2.5,0,0,1,0-5h7.12a2.5,2.5,0,1,1,0,5Z"/><path class="cls-1" d="M84.14,34.27H62.22a2.5,2.5,0,1,1,0-5H84.14a2.5,2.5,0,0,1,0,5Z"/><path class="cls-1" d="M84.14,47.27H62.22a2.5,2.5,0,0,1,0-5H84.14a2.5,2.5,0,0,1,0,5Z"/><path class="cls-1" d="M84.14,60.27H62.22a2.5,2.5,0,0,1,0-5H84.14a2.5,2.5,0,0,1,0,5Z"/><path class="cls-1" d="M46.14,47.26h5.7a2.5,2.5,0,0,0,0-5h-5.7Z"/><path class="cls-1" d="M46.14,60.26h5.7a2.5,2.5,0,0,0,0-5h-5.7Z"/><path class="cls-1" d="M96.08,0h-63a4.51,4.51,0,0,0-4.5,4.5V39h5V5H49.63v5.37a2.5,2.5,0,0,0,2.5,2.5H77a2.5,2.5,0,0,0,2.5-2.5V5h16V95H61.69v5H96.08a4.51,4.51,0,0,0,4.5-4.5V4.5A4.51,4.51,0,0,0,96.08,0ZM74.53,7.87H54.63V5h19.9Z"/><path class="cls-1" d="M23.77,73.69H16.44v6A1.41,1.41,0,0,1,15,81.14H11.73a1.41,1.41,0,0,1-1.42-1.41v-6H3A2.56,2.56,0,0,0,.42,76.25V97A2.56,2.56,0,0,0,3,99.6H23.77A2.56,2.56,0,0,0,26.33,97V76.25A2.56,2.56,0,0,0,23.77,73.69Z"/><path class="cls-1" d="M55,73.69H47.67v6a1.42,1.42,0,0,1-1.42,1.41H43a1.42,1.42,0,0,1-1.42-1.41v-6H34.2a2.56,2.56,0,0,0-2.55,2.56V97A2.56,2.56,0,0,0,34.2,99.6H55A2.56,2.56,0,0,0,57.55,97V76.25A2.56,2.56,0,0,0,55,73.69Z"/><path class="cls-1" d="M39.39,43H32.05v6a1.42,1.42,0,0,1-1.41,1.42h-3.3a1.43,1.43,0,0,1-1.42-1.42V43H18.59A2.56,2.56,0,0,0,16,45.59V66.38a2.56,2.56,0,0,0,2.55,2.56h20.8a2.56,2.56,0,0,0,2.55-2.56V45.59A2.56,2.56,0,0,0,39.39,43Z"/><path class="cls-1" d="M84.14,75.27H71.57a2.5,2.5,0,0,1,0-5H84.14a2.5,2.5,0,0,1,0,5Z"/></svg>
