<svg width="257" height="256" viewBox="0 0 257 256" fill="none" xmlns="http://www.w3.org/2000/svg">
<rect width="257" height="256" fill="white"/>
<path d="M0 7C0 3.13401 3.13401 0 7 0H250C253.866 0 257 3.13401 257 7V256H0V7Z" fill="black"/>
<path d="M10 30C10 28.3431 11.3431 27 13 27H244C245.657 27 247 28.3431 247 30V256H10V30Z" fill="#8B8B8B"/>
<path d="M217.529 32.6667H216.833V31.8333H215.167V32.6667H214.471C214.167 32.6667 213.917 32.9167 213.917 33.2208V39.6083C213.917 39.9167 214.167 40.1667 214.471 40.1667H217.525C217.833 40.1667 218.083 39.9167 218.083 39.6125V33.2208C218.083 32.9167 217.833 32.6667 217.529 32.6667ZM215.583 39.3333V37.0417H214.75L216.417 33.9167V36.2083H217.25L215.583 39.3333Z" fill="white"/>
<path d="M196.833 40.1667H205.167V31.8333L196.833 40.1667Z" fill="white"/>
<path d="M187.004 39.9542L191.85 33.9167C191.663 33.775 189.796 32.25 187 32.25C184.2 32.25 182.338 33.775 182.15 33.9167L186.996 39.9542L187 39.9583L187.004 39.9542V39.9542Z" fill="white"/>
<rect x="113" y="12" width="30" height="4" rx="2" fill="#323232"/>
<rect x="14" y="45" width="228" height="56" rx="4" fill="#FAFAFB"/>
<rect x="14" y="108" width="228" height="70" rx="4" fill="#FAFAFB"/>
<path d="M20.7378 38H19.75V34.1924L18.5708 34.5581V33.7549L20.6318 33.0166H20.7378V38ZM25.769 38H22.3579V37.3232L23.9678 35.6074C24.1888 35.3659 24.3517 35.1551 24.4565 34.9751C24.5636 34.7951 24.6172 34.6242 24.6172 34.4624C24.6172 34.2414 24.5614 34.0682 24.4497 33.9429C24.3381 33.8153 24.1785 33.7515 23.9712 33.7515C23.7479 33.7515 23.5713 33.8289 23.4414 33.9839C23.3138 34.1366 23.25 34.3382 23.25 34.5889H22.2588C22.2588 34.2858 22.3306 34.009 22.4741 33.7583C22.62 33.5076 22.825 33.3117 23.0894 33.1704C23.3537 33.0269 23.6533 32.9551 23.9883 32.9551C24.501 32.9551 24.8986 33.0781 25.1812 33.3242C25.466 33.5703 25.6084 33.9178 25.6084 34.3667C25.6084 34.6128 25.5446 34.8634 25.417 35.1187C25.2894 35.3739 25.0706 35.6712 24.7607 36.0107L23.6294 37.2036H25.769V38ZM26.4663 37.5146C26.4663 37.3574 26.5187 37.2298 26.6235 37.1318C26.7306 37.0339 26.8639 36.9849 27.0234 36.9849C27.1852 36.9849 27.3185 37.0339 27.4233 37.1318C27.5304 37.2298 27.584 37.3574 27.584 37.5146C27.584 37.6696 27.5316 37.7961 27.4268 37.894C27.3219 37.9897 27.1875 38.0376 27.0234 38.0376C26.8617 38.0376 26.7284 37.9897 26.6235 37.894C26.5187 37.7961 26.4663 37.6696 26.4663 37.5146ZM26.4663 34.7153C26.4663 34.5581 26.5187 34.4305 26.6235 34.3325C26.7306 34.2345 26.8639 34.1855 27.0234 34.1855C27.1852 34.1855 27.3185 34.2345 27.4233 34.3325C27.5304 34.4305 27.584 34.5581 27.584 34.7153C27.584 34.8703 27.5316 34.9967 27.4268 35.0947C27.3219 35.1904 27.1875 35.2383 27.0234 35.2383C26.8617 35.2383 26.7284 35.1904 26.6235 35.0947C26.5187 34.9967 26.4663 34.8703 26.4663 34.7153ZM29.3579 35.0742H29.8843C30.1349 35.0742 30.3206 35.0116 30.4414 34.8862C30.5622 34.7609 30.6226 34.5946 30.6226 34.3872C30.6226 34.1867 30.5622 34.0306 30.4414 33.9189C30.3229 33.8073 30.1589 33.7515 29.9492 33.7515C29.7601 33.7515 29.6017 33.8039 29.4741 33.9087C29.3465 34.0112 29.2827 34.1457 29.2827 34.312H28.2949C28.2949 34.0522 28.3644 33.8198 28.5034 33.6147C28.6447 33.4074 28.8407 33.2456 29.0913 33.1294C29.3442 33.0132 29.6222 32.9551 29.9253 32.9551C30.4517 32.9551 30.8641 33.0815 31.1626 33.3345C31.4611 33.5851 31.6104 33.9315 31.6104 34.3735C31.6104 34.6014 31.5409 34.811 31.4019 35.0024C31.2629 35.1938 31.0806 35.3408 30.855 35.4434C31.1353 35.5436 31.3438 35.694 31.4805 35.8945C31.6195 36.0951 31.689 36.332 31.689 36.6055C31.689 37.0475 31.5272 37.4019 31.2036 37.6685C30.8823 37.9351 30.4562 38.0684 29.9253 38.0684C29.4285 38.0684 29.0218 37.9373 28.7051 37.6753C28.3906 37.4132 28.2334 37.0669 28.2334 36.6362H29.2212C29.2212 36.8231 29.2907 36.9757 29.4297 37.0942C29.571 37.2127 29.7441 37.272 29.9492 37.272C30.1839 37.272 30.3674 37.2104 30.4995 37.0874C30.634 36.9621 30.7012 36.7969 30.7012 36.5918C30.7012 36.0951 30.4277 35.8467 29.8809 35.8467H29.3579V35.0742ZM35.7222 35.9424C35.7222 36.6305 35.5798 37.1569 35.2949 37.5215C35.0101 37.8861 34.5931 38.0684 34.0439 38.0684C33.5016 38.0684 33.0869 37.8895 32.7998 37.5317C32.5127 37.174 32.3657 36.6613 32.3589 35.9937V35.0776C32.3589 34.3826 32.5024 33.8551 32.7896 33.4951C33.0789 33.1351 33.4948 32.9551 34.0371 32.9551C34.5794 32.9551 34.9941 33.134 35.2812 33.4917C35.5684 33.8472 35.7153 34.3587 35.7222 35.0264V35.9424ZM34.7344 34.9375C34.7344 34.5251 34.6774 34.2254 34.5635 34.0386C34.4518 33.8494 34.2764 33.7549 34.0371 33.7549C33.8047 33.7549 33.6326 33.8449 33.521 34.0249C33.4116 34.2026 33.3535 34.4818 33.3467 34.8623V36.0723C33.3467 36.4779 33.4014 36.7798 33.5107 36.978C33.6224 37.174 33.8001 37.272 34.0439 37.272C34.2855 37.272 34.4598 37.1774 34.5669 36.9883C34.674 36.7992 34.7298 36.5098 34.7344 36.1201V34.9375Z" fill="white"/>
<path d="M42.3223 118.802H40.2339V121H39.5776V116.023H42.6606V116.563H40.2339V118.266H42.3223V118.802ZM43.105 119.117C43.105 118.754 43.1756 118.429 43.3169 118.139C43.4604 117.85 43.6587 117.626 43.9116 117.469C44.1668 117.312 44.4574 117.233 44.7832 117.233C45.2868 117.233 45.6935 117.408 46.0034 117.756C46.3156 118.105 46.4717 118.569 46.4717 119.147V119.192C46.4717 119.552 46.4022 119.875 46.2632 120.163C46.1265 120.447 45.9294 120.67 45.6719 120.829C45.4167 120.989 45.1227 121.068 44.79 121.068C44.2887 121.068 43.882 120.894 43.5698 120.545C43.2599 120.197 43.105 119.735 43.105 119.161V119.117ZM43.7407 119.192C43.7407 119.602 43.8353 119.931 44.0244 120.18C44.2158 120.428 44.471 120.552 44.79 120.552C45.1113 120.552 45.3665 120.427 45.5557 120.176C45.7448 119.923 45.8394 119.57 45.8394 119.117C45.8394 118.711 45.7425 118.383 45.5488 118.132C45.3574 117.879 45.1022 117.753 44.7832 117.753C44.471 117.753 44.2192 117.877 44.0278 118.125C43.8364 118.374 43.7407 118.729 43.7407 119.192ZM47.9517 121H47.3193V115.75H47.9517V121ZM49.6538 121H49.0215V115.75H49.6538V121ZM50.5015 119.117C50.5015 118.754 50.5721 118.429 50.7134 118.139C50.8569 117.85 51.0552 117.626 51.3081 117.469C51.5633 117.312 51.8538 117.233 52.1797 117.233C52.6833 117.233 53.09 117.408 53.3999 117.756C53.7121 118.105 53.8682 118.569 53.8682 119.147V119.192C53.8682 119.552 53.7987 119.875 53.6597 120.163C53.5229 120.447 53.3258 120.67 53.0684 120.829C52.8132 120.989 52.5192 121.068 52.1865 121.068C51.6852 121.068 51.2785 120.894 50.9663 120.545C50.6564 120.197 50.5015 119.735 50.5015 119.161V119.117ZM51.1372 119.192C51.1372 119.602 51.2318 119.931 51.4209 120.18C51.6123 120.428 51.8675 120.552 52.1865 120.552C52.5078 120.552 52.763 120.427 52.9521 120.176C53.1413 119.923 53.2358 119.57 53.2358 119.117C53.2358 118.711 53.139 118.383 52.9453 118.132C52.7539 117.879 52.4987 117.753 52.1797 117.753C51.8675 117.753 51.6157 117.877 51.4243 118.125C51.2329 118.374 51.1372 118.729 51.1372 119.192ZM57.9355 120.128L58.6465 117.302H59.2788L58.2021 121H57.6895L56.7905 118.197L55.9155 121H55.4028L54.3296 117.302H54.9585L55.6865 120.07L56.5479 117.302H57.0571L57.9355 120.128ZM65.4346 120.347C65.266 120.589 65.0301 120.77 64.7271 120.891C64.4263 121.009 64.0754 121.068 63.6743 121.068C63.2687 121.068 62.9087 120.974 62.5942 120.785C62.2798 120.593 62.036 120.322 61.8628 119.971C61.6919 119.62 61.6042 119.214 61.5996 118.751V118.317C61.5996 117.567 61.7739 116.986 62.1226 116.574C62.4735 116.161 62.9657 115.955 63.5991 115.955C64.1187 115.955 64.5368 116.088 64.8535 116.355C65.1702 116.619 65.3639 116.995 65.4346 117.483H64.7783C64.6553 116.824 64.2633 116.495 63.6025 116.495C63.1628 116.495 62.8289 116.65 62.6011 116.96C62.3755 117.268 62.2616 117.714 62.2593 118.3V118.707C62.2593 119.265 62.3869 119.709 62.6421 120.04C62.8973 120.368 63.2425 120.532 63.6777 120.532C63.9238 120.532 64.1392 120.504 64.3237 120.45C64.5083 120.395 64.661 120.303 64.7817 120.173V119.055H63.6299V118.522H65.4346V120.347ZM69.9702 116.563H68.3706V121H67.7178V116.563H66.1216V116.023H69.9702V116.563ZM72.2021 118.361C72.2021 118.163 72.2648 118 72.3901 117.873C72.5177 117.745 72.6864 117.681 72.896 117.681C73.1034 117.681 73.272 117.744 73.4019 117.869C73.5317 117.992 73.5967 118.16 73.5967 118.372V118.498C73.5967 118.696 73.534 118.858 73.4087 118.983C73.2834 119.109 73.1136 119.171 72.8994 119.171C72.6875 119.171 72.5177 119.109 72.3901 118.983C72.2648 118.856 72.2021 118.692 72.2021 118.491V118.361ZM76.9907 121H76.3584V117.302H76.9907V121ZM76.3071 116.321C76.3071 116.218 76.3379 116.132 76.3994 116.061C76.4632 115.99 76.5566 115.955 76.6797 115.955C76.8027 115.955 76.8962 115.99 76.96 116.061C77.0238 116.132 77.0557 116.218 77.0557 116.321C77.0557 116.423 77.0238 116.509 76.96 116.577C76.8962 116.646 76.8027 116.68 76.6797 116.68C76.5566 116.68 76.4632 116.646 76.3994 116.577C76.3379 116.509 76.3071 116.423 76.3071 116.321ZM78.6929 121H78.0605V115.75H78.6929V121ZM82.6543 120.074L83.5156 117.302H84.1924L82.7056 121.571C82.4754 122.186 82.1097 122.494 81.6084 122.494L81.4888 122.483L81.2529 122.439V121.926L81.4238 121.94C81.638 121.94 81.8044 121.897 81.9229 121.81C82.0436 121.723 82.1427 121.565 82.2202 121.335L82.3604 120.959L81.041 117.302H81.7314L82.6543 120.074ZM88.7793 121C88.7428 120.927 88.7132 120.797 88.6904 120.61C88.3965 120.916 88.0456 121.068 87.6377 121.068C87.2731 121.068 86.9735 120.966 86.7388 120.761C86.5063 120.553 86.3901 120.291 86.3901 119.975C86.3901 119.59 86.536 119.291 86.8276 119.079C87.1216 118.865 87.534 118.758 88.0649 118.758H88.6802V118.467C88.6802 118.246 88.6141 118.071 88.4819 117.941C88.3498 117.809 88.1549 117.743 87.8975 117.743C87.6719 117.743 87.4827 117.8 87.3301 117.914C87.1774 118.028 87.1011 118.165 87.1011 118.327H86.4653C86.4653 118.143 86.5303 117.965 86.6602 117.794C86.7923 117.621 86.9701 117.484 87.1934 117.384C87.4189 117.284 87.6662 117.233 87.9351 117.233C88.3612 117.233 88.695 117.34 88.9365 117.555C89.1781 117.767 89.3034 118.059 89.3125 118.433V120.135C89.3125 120.475 89.3558 120.745 89.4424 120.945V121H88.7793ZM87.73 120.518C87.9282 120.518 88.1162 120.467 88.2939 120.364C88.4717 120.262 88.6004 120.128 88.6802 119.964V119.206H88.1846C87.4098 119.206 87.0225 119.432 87.0225 119.886C87.0225 120.084 87.0885 120.239 87.2207 120.351C87.3529 120.462 87.5226 120.518 87.73 120.518ZM94.3232 120.634C94.0771 120.924 93.716 121.068 93.2397 121.068C92.8455 121.068 92.5448 120.954 92.3374 120.727C92.1323 120.496 92.0286 120.157 92.0264 119.708V117.302H92.6587V119.691C92.6587 120.251 92.8866 120.532 93.3423 120.532C93.8254 120.532 94.1466 120.352 94.3062 119.992V117.302H94.9385V121H94.3369L94.3232 120.634ZM96.5005 117.302L96.521 117.767C96.8035 117.411 97.1727 117.233 97.6284 117.233C98.41 117.233 98.8042 117.674 98.811 118.556V121H98.1787V118.553C98.1764 118.286 98.1149 118.089 97.9941 117.961C97.8757 117.834 97.6899 117.77 97.437 117.77C97.2319 117.77 97.0519 117.825 96.897 117.934C96.742 118.043 96.6213 118.187 96.5347 118.365V121H95.9023V117.302H96.5005ZM101.299 121.068C100.798 121.068 100.39 120.904 100.076 120.576C99.7612 120.246 99.604 119.805 99.604 119.253V119.137C99.604 118.77 99.6735 118.443 99.8125 118.156C99.9538 117.867 100.15 117.641 100.4 117.479C100.653 117.315 100.927 117.233 101.221 117.233C101.701 117.233 102.075 117.392 102.342 117.708C102.608 118.025 102.742 118.479 102.742 119.069V119.332H100.236C100.245 119.697 100.351 119.992 100.554 120.217C100.759 120.441 101.019 120.552 101.333 120.552C101.557 120.552 101.746 120.507 101.901 120.416C102.056 120.324 102.191 120.204 102.308 120.053L102.694 120.354C102.384 120.83 101.919 121.068 101.299 121.068ZM101.221 117.753C100.965 117.753 100.751 117.846 100.578 118.033C100.405 118.218 100.298 118.478 100.257 118.812H102.109V118.765C102.091 118.443 102.005 118.195 101.85 118.02C101.695 117.842 101.485 117.753 101.221 117.753ZM105.845 117.75C106.125 117.405 106.49 117.233 106.939 117.233C107.721 117.233 108.115 117.674 108.122 118.556V121H107.489V118.553C107.487 118.286 107.425 118.089 107.305 117.961C107.186 117.834 107 117.77 106.748 117.77C106.542 117.77 106.362 117.825 106.208 117.934C106.053 118.043 105.932 118.187 105.845 118.365V121H105.213V115.75H105.845V117.75ZM110.603 121.068C110.102 121.068 109.694 120.904 109.379 120.576C109.065 120.246 108.908 119.805 108.908 119.253V119.137C108.908 118.77 108.977 118.443 109.116 118.156C109.257 117.867 109.453 117.641 109.704 117.479C109.957 117.315 110.23 117.233 110.524 117.233C111.005 117.233 111.379 117.392 111.646 117.708C111.912 118.025 112.045 118.479 112.045 119.069V119.332H109.54C109.549 119.697 109.655 119.992 109.858 120.217C110.063 120.441 110.323 120.552 110.637 120.552C110.861 120.552 111.05 120.507 111.205 120.416C111.36 120.324 111.495 120.204 111.611 120.053L111.998 120.354C111.688 120.83 111.223 121.068 110.603 121.068ZM110.524 117.753C110.269 117.753 110.055 117.846 109.882 118.033C109.709 118.218 109.602 118.478 109.561 118.812H111.413V118.765C111.395 118.443 111.308 118.195 111.153 118.02C110.998 117.842 110.789 117.753 110.524 117.753ZM115.063 120.634C114.817 120.924 114.456 121.068 113.98 121.068C113.586 121.068 113.285 120.954 113.078 120.727C112.873 120.496 112.769 120.157 112.767 119.708V117.302H113.399V119.691C113.399 120.251 113.627 120.532 114.083 120.532C114.566 120.532 114.887 120.352 115.046 119.992V117.302H115.679V121H115.077L115.063 120.634ZM118.43 117.869C118.334 117.853 118.231 117.845 118.119 117.845C117.704 117.845 117.423 118.022 117.275 118.375V121H116.643V117.302H117.258L117.268 117.729C117.475 117.399 117.769 117.233 118.15 117.233C118.273 117.233 118.366 117.249 118.43 117.281V117.869ZM120.481 121.068C119.98 121.068 119.572 120.904 119.257 120.576C118.943 120.246 118.786 119.805 118.786 119.253V119.137C118.786 118.77 118.855 118.443 118.994 118.156C119.135 117.867 119.331 117.641 119.582 117.479C119.835 117.315 120.108 117.233 120.402 117.233C120.883 117.233 121.257 117.392 121.523 117.708C121.79 118.025 121.923 118.479 121.923 119.069V119.332H119.418C119.427 119.697 119.533 119.992 119.736 120.217C119.941 120.441 120.201 120.552 120.515 120.552C120.738 120.552 120.928 120.507 121.083 120.416C121.237 120.324 121.373 120.204 121.489 120.053L121.875 120.354C121.566 120.83 121.101 121.068 120.481 121.068ZM120.402 117.753C120.147 117.753 119.933 117.846 119.76 118.033C119.587 118.218 119.479 118.478 119.438 118.812H121.291V118.765C121.273 118.443 121.186 118.195 121.031 118.02C120.876 117.842 120.667 117.753 120.402 117.753Z" fill="#1E1766"/>
<path d="M224.738 38H223.75V34.1924L222.571 34.5581V33.7549L224.632 33.0166H224.738V38ZM229.708 35.9424C229.708 36.6305 229.565 37.1569 229.28 37.5215C228.995 37.8861 228.578 38.0684 228.029 38.0684C227.487 38.0684 227.072 37.8895 226.785 37.5317C226.498 37.174 226.351 36.6613 226.344 35.9937V35.0776C226.344 34.3826 226.488 33.8551 226.775 33.4951C227.064 33.1351 227.48 32.9551 228.022 32.9551C228.565 32.9551 228.979 33.134 229.267 33.4917C229.554 33.8472 229.701 34.3587 229.708 35.0264V35.9424ZM228.72 34.9375C228.72 34.5251 228.663 34.2254 228.549 34.0386C228.437 33.8494 228.262 33.7549 228.022 33.7549C227.79 33.7549 227.618 33.8449 227.506 34.0249C227.397 34.2026 227.339 34.4818 227.332 34.8623V36.0723C227.332 36.4779 227.387 36.7798 227.496 36.978C227.608 37.174 227.785 37.272 228.029 37.272C228.271 37.272 228.445 37.1774 228.552 36.9883C228.659 36.7992 228.715 36.5098 228.72 36.1201V34.9375ZM233.727 35.9424C233.727 36.6305 233.585 37.1569 233.3 37.5215C233.015 37.8861 232.598 38.0684 232.049 38.0684C231.507 38.0684 231.092 37.8895 230.805 37.5317C230.518 37.174 230.371 36.6613 230.364 35.9937V35.0776C230.364 34.3826 230.507 33.8551 230.794 33.4951C231.084 33.1351 231.5 32.9551 232.042 32.9551C232.584 32.9551 232.999 33.134 233.286 33.4917C233.573 33.8472 233.72 34.3587 233.727 35.0264V35.9424ZM232.739 34.9375C232.739 34.5251 232.682 34.2254 232.568 34.0386C232.457 33.8494 232.281 33.7549 232.042 33.7549C231.81 33.7549 231.638 33.8449 231.526 34.0249C231.417 34.2026 231.358 34.4818 231.352 34.8623V36.0723C231.352 36.4779 231.406 36.7798 231.516 36.978C231.627 37.174 231.805 37.272 232.049 37.272C232.29 37.272 232.465 37.1774 232.572 36.9883C232.679 36.7992 232.735 36.5098 232.739 36.1201V34.9375ZM234.383 33.9805C234.383 33.6751 234.482 33.4279 234.681 33.2388C234.879 33.0474 235.139 32.9517 235.46 32.9517C235.786 32.9517 236.048 33.0462 236.246 33.2354C236.444 33.4222 236.543 33.6763 236.543 33.9976V34.2437C236.543 34.5513 236.444 34.7985 236.246 34.9854C236.048 35.1722 235.788 35.2656 235.467 35.2656C235.143 35.2656 234.881 35.1722 234.681 34.9854C234.482 34.7962 234.383 34.5422 234.383 34.2231V33.9805ZM235.04 34.2437C235.04 34.3804 235.078 34.4909 235.156 34.5752C235.236 34.6572 235.339 34.6982 235.467 34.6982C235.594 34.6982 235.696 34.6561 235.771 34.5718C235.846 34.4875 235.884 34.3747 235.884 34.2334V33.9805C235.884 33.8438 235.846 33.7332 235.771 33.6489C235.696 33.5646 235.592 33.5225 235.46 33.5225C235.335 33.5225 235.233 33.5646 235.156 33.6489C235.078 33.731 235.04 33.846 235.04 33.9941V34.2437ZM236.762 36.7798C236.762 36.4722 236.862 36.2249 237.063 36.0381C237.264 35.849 237.523 35.7544 237.842 35.7544C238.166 35.7544 238.427 35.8478 238.625 36.0347C238.826 36.2192 238.926 36.4744 238.926 36.8003V37.0464C238.926 37.3517 238.828 37.599 238.632 37.7881C238.436 37.9749 238.175 38.0684 237.849 38.0684C237.521 38.0684 237.258 37.9738 237.06 37.7847C236.861 37.5955 236.762 37.3449 236.762 37.0327V36.7798ZM237.418 37.0464C237.418 37.1717 237.459 37.2788 237.542 37.3677C237.624 37.4565 237.726 37.501 237.849 37.501C238.127 37.501 238.266 37.3472 238.266 37.0396V36.7798C238.266 36.6431 238.227 36.5337 238.15 36.4517C238.072 36.3674 237.97 36.3252 237.842 36.3252C237.715 36.3252 237.612 36.3674 237.535 36.4517C237.457 36.5337 237.418 36.6465 237.418 36.79V37.0464ZM235.662 37.6274L235.18 37.3677L237.61 33.478L238.092 33.7378L235.662 37.6274Z" fill="white"/>
<circle cx="35.5" cy="73.5" r="13.5" fill="#048475"/>
<circle cx="72.5" cy="73.5" r="13.5" fill="#048475"/>
<circle cx="109.5" cy="73.5" r="13.5" fill="#048475"/>
<circle cx="146.5" cy="73.5" r="13.5" fill="#E8E8E8"/>
<circle cx="183.5" cy="73.5" r="13.5" fill="#E8E8E8"/>
<circle cx="220.5" cy="73.5" r="13.5" fill="#E8E8E8"/>
<path d="M35.5071 81.2221L43.745 70.9583C43.4263 70.7175 40.2529 68.125 35.5 68.125C30.74 68.125 27.5738 70.7175 27.255 70.9583L35.4929 81.2221L35.5 81.2292L35.5071 81.2221V81.2221Z" fill="white"/>
<path d="M76.5446 70.4613L72.5 66.4167H71.7917V71.7929L68.5404 68.5417L67.5417 69.5404L71.5012 73.5L67.5417 77.4596L68.5404 78.4583L71.7917 75.2071V80.5833H72.5L76.5446 76.5388L73.4987 73.5L76.5446 70.4613ZM73.2083 69.1296L74.54 70.4613L73.2083 71.7929V69.1296ZM74.54 76.5388L73.2083 77.8704V75.2071L74.54 76.5388V76.5388Z" fill="white"/>
<path d="M105.958 72.7917V74.2083H113.042V72.7917H105.958ZM109.5 66.4167C105.59 66.4167 102.417 69.59 102.417 73.5C102.417 77.41 105.59 80.5833 109.5 80.5833C113.41 80.5833 116.583 77.41 116.583 73.5C116.583 69.59 113.41 66.4167 109.5 66.4167ZM109.5 79.1667C106.376 79.1667 103.833 76.6238 103.833 73.5C103.833 70.3763 106.376 67.8333 109.5 67.8333C112.624 67.8333 115.167 70.3763 115.167 73.5C115.167 76.6238 112.624 79.1667 109.5 79.1667Z" fill="white"/>
<path d="M153.583 76.3333V74.9167L147.563 71.375V67.4792C147.563 66.8913 147.088 66.4167 146.5 66.4167C145.912 66.4167 145.438 66.8913 145.438 67.4792V71.375L139.417 74.9167V76.3333L145.438 74.5625V78.4583L143.667 79.5208V80.5833L146.5 79.875L149.333 80.5833V79.5208L147.563 78.4583V74.5625L153.583 76.3333Z" fill="#656569"/>
<path d="M187.75 66.4167H179.25V70.6667L180.667 72.7917V80.5833H186.333V72.7917L187.75 70.6667V66.4167ZM186.333 67.8333V68.5417H180.667V67.8333H186.333ZM184.917 72.3667V79.1667H182.083V72.3596L180.667 70.2346V69.9583H186.333V70.2346L184.917 72.3667Z" fill="#656569"/>
<path d="M183.5 75.9792C184.087 75.9792 184.562 75.5035 184.562 74.9167C184.562 74.3299 184.087 73.8542 183.5 73.8542C182.913 73.8542 182.438 74.3299 182.438 74.9167C182.438 75.5035 182.913 75.9792 183.5 75.9792Z" fill="#656569"/>
<path d="M223.673 66.785C225.99 67.8829 227.647 70.1283 227.902 72.7917H228.965C228.603 68.4283 224.955 65 220.5 65L220.032 65.0212L222.731 67.72L223.673 66.785V66.785ZM219.246 66.2396C218.828 65.8217 218.155 65.8217 217.745 66.2396L213.24 70.7446C212.822 71.1625 212.822 71.8354 213.24 72.2462L221.754 80.7604C222.172 81.1783 222.845 81.1783 223.255 80.7604L227.76 76.2554C228.178 75.8375 228.178 75.1646 227.76 74.7538L219.246 66.2396ZM222.505 80.0096L213.99 71.4954L218.495 66.9904L227.01 75.5046L222.505 80.0096V80.0096ZM217.327 80.215C215.01 79.1242 213.353 76.8717 213.098 74.2083H212.035C212.397 78.5717 216.045 82 220.5 82L220.967 81.9787L218.269 79.28L217.327 80.215V80.215Z" fill="#656569"/>
<g clip-path="url(#clip0)">
<path d="M45.983 34.6C46.256 34.6004 46.5228 34.6817 46.7496 34.8336C46.9764 34.9856 47.1531 35.2013 47.2574 35.4537C47.3616 35.706 47.3887 35.9836 47.3353 36.2513C47.2819 36.519 47.1503 36.7649 46.9572 36.9579C46.7641 37.1508 46.5181 37.2823 46.2503 37.3355C45.9825 37.3887 45.705 37.3614 45.4528 37.257C45.2005 37.1525 44.9849 36.9757 44.8331 36.7488C44.6813 36.5218 44.6002 36.255 44.6 35.982C44.6 35.8004 44.6358 35.6206 44.7053 35.4529C44.7748 35.2852 44.8767 35.1328 45.0051 35.0044C45.1336 34.8761 45.286 34.7743 45.4538 34.7049C45.6216 34.6355 45.8014 34.5999 45.983 34.6V34.6ZM45.983 33.746C45.541 33.7458 45.1088 33.8767 44.7411 34.1221C44.3735 34.3675 44.0869 34.7165 43.9175 35.1248C43.7482 35.5331 43.7037 35.9825 43.7898 36.416C43.8758 36.8496 44.0885 37.248 44.4009 37.5607C44.7133 37.8734 45.1115 38.0864 45.545 38.1729C45.9785 38.2593 46.4279 38.2152 46.8364 38.0463C47.2449 37.8773 47.594 37.591 47.8398 37.2235C48.0855 36.8561 48.2168 36.424 48.217 35.982C48.217 35.3894 47.9817 34.8211 47.5627 34.402C47.1438 33.9829 46.5756 33.7473 45.983 33.747V33.746Z" fill="white"/>
<path d="M45.983 32.405C46.6905 32.405 47.382 32.6148 47.9703 33.0078C48.5585 33.4009 49.017 33.9595 49.2877 34.6131C49.5585 35.2667 49.6293 35.986 49.4913 36.6798C49.3533 37.3737 49.0126 38.0111 48.5123 38.5113C48.0121 39.0116 47.3747 39.3522 46.6808 39.4903C45.987 39.6283 45.2678 39.5574 44.6141 39.2867C43.9605 39.016 43.4019 38.5575 43.0088 37.9693C42.6158 37.381 42.406 36.6895 42.406 35.982C42.4071 35.0336 42.7843 34.1244 43.4549 33.4538C44.1254 32.7833 45.0346 32.4061 45.983 32.405V32.405ZM45.983 30.982C44.9941 30.982 44.0274 31.2752 43.2052 31.8246C42.3829 32.3741 41.742 33.1549 41.3636 34.0686C40.9852 34.9822 40.8862 35.9875 41.0791 36.9574C41.272 37.9274 41.7482 38.8183 42.4475 39.5175C43.1467 40.2168 44.0376 40.693 45.0076 40.8859C45.9775 41.0788 46.9828 40.9798 47.8964 40.6014C48.8101 40.223 49.5909 39.5821 50.1404 38.7598C50.6898 37.9376 50.983 36.9709 50.983 35.982C50.983 35.3254 50.8537 34.6752 50.6024 34.0686C50.3511 33.4619 49.9828 32.9108 49.5185 32.4465C48.5809 31.5088 47.3091 30.982 45.983 30.982V30.982Z" fill="white"/>
</g>
<g clip-path="url(#clip1)">
<path d="M26.983 117.6C27.256 117.6 27.5228 117.682 27.7496 117.834C27.9764 117.986 28.1531 118.201 28.2574 118.454C28.3616 118.706 28.3887 118.984 28.3353 119.251C28.2819 119.519 28.1503 119.765 27.9572 119.958C27.7641 120.151 27.5181 120.282 27.2503 120.335C26.9825 120.389 26.705 120.361 26.4528 120.257C26.2005 120.153 25.9849 119.976 25.8331 119.749C25.6813 119.522 25.6002 119.255 25.6 118.982C25.6 118.8 25.6358 118.621 25.7053 118.453C25.7748 118.285 25.8767 118.133 26.0051 118.004C26.1336 117.876 26.286 117.774 26.4538 117.705C26.6216 117.636 26.8014 117.6 26.983 117.6V117.6ZM26.983 116.746C26.541 116.746 26.1088 116.877 25.7411 117.122C25.3735 117.368 25.0869 117.716 24.9175 118.125C24.7482 118.533 24.7037 118.982 24.7898 119.416C24.8758 119.85 25.0885 120.248 25.4009 120.561C25.7133 120.873 26.1115 121.086 26.545 121.173C26.9785 121.259 27.4279 121.215 27.8364 121.046C28.2449 120.877 28.594 120.591 28.8398 120.224C29.0855 119.856 29.2168 119.424 29.217 118.982C29.217 118.389 28.9817 117.821 28.5627 117.402C28.1438 116.983 27.5756 116.747 26.983 116.747V116.746Z" fill="#1E1766"/>
<path d="M26.983 115.405C27.6905 115.405 28.382 115.615 28.9703 116.008C29.5585 116.401 30.017 116.96 30.2877 117.613C30.5585 118.267 30.6293 118.986 30.4913 119.68C30.3533 120.374 30.0126 121.011 29.5123 121.511C29.0121 122.012 28.3747 122.352 27.6808 122.49C26.987 122.628 26.2678 122.557 25.6141 122.287C24.9605 122.016 24.4019 121.558 24.0088 120.969C23.6158 120.381 23.406 119.689 23.406 118.982C23.4071 118.034 23.7843 117.124 24.4549 116.454C25.1254 115.783 26.0346 115.406 26.983 115.405V115.405ZM26.983 113.982C25.9941 113.982 25.0274 114.275 24.2052 114.825C23.3829 115.374 22.742 116.155 22.3636 117.069C21.9852 117.982 21.8862 118.988 22.0791 119.957C22.272 120.927 22.7482 121.818 23.4475 122.518C24.1467 123.217 25.0376 123.693 26.0076 123.886C26.9775 124.079 27.9828 123.98 28.8964 123.601C29.8101 123.223 30.5909 122.582 31.1404 121.76C31.6898 120.938 31.983 119.971 31.983 118.982C31.983 118.325 31.8537 117.675 31.6024 117.069C31.3511 116.462 30.9828 115.911 30.5185 115.446C29.5809 114.509 28.3091 113.982 26.983 113.982V113.982Z" fill="#1E1766"/>
</g>
<defs>
<clipPath id="clip0">
<rect width="10" height="10" fill="white" transform="translate(41 31)"/>
</clipPath>
<clipPath id="clip1">
<rect width="10" height="10" fill="white" transform="translate(22 114)"/>
</clipPath>
</defs>
</svg>
