<svg id="Calque_2" data-name="Calque 2" xmlns="http://www.w3.org/2000/svg" viewBox="0 0 409.06 265.95"><defs><style>.cls-1{fill:#1d1d1b;}.cls-2{fill:#fff;}</style></defs><path class="cls-1" d="M92.16,291.06h64.37v14.36H92.16Zm63.88,36v13.63H106.52v32.48H92.16V327.08Z" transform="translate(-92.16 -281.08)"/><path class="cls-1" d="M267.37,281.08v92.11h-12.9V281.08Z" transform="translate(-92.16 -281.08)"/><path class="cls-1" d="M403.83,309l19.7,64.24H409.22L389.52,309Z" transform="translate(-92.16 -281.08)"/><path class="cls-1" d="M443.23,309l-19.7,64.24H409.22L428.93,309Z" transform="translate(-92.16 -281.08)"/><path class="cls-1" d="M443.23,309l19.7,64.24h-14.3L428.93,309Z" transform="translate(-92.16 -281.08)"/><path class="cls-1" d="M501.22,309l-19.7,64.24h-14.3L486.92,309Z" transform="translate(-92.16 -281.08)"/><path class="cls-1" d="M298.76,281.08v92.11h-12.9V281.08Z" transform="translate(-92.16 -281.08)"/><path class="cls-1" d="M163.61,341.08A35.22,35.22,0,0,1,174.75,315a36.65,36.65,0,0,1,26.65-10.91,37.63,37.63,0,0,1,37.42,37.42,35.34,35.34,0,0,1-11.09,26.33,38,38,0,0,1-51.91,1.22Q163.61,358.37,163.61,341.08Zm10.95.12q0,11.93,8,19.6a26.54,26.54,0,0,0,37.51-.14,27.88,27.88,0,0,0,.09-38.55,26.85,26.85,0,0,0-37.88,0A25.92,25.92,0,0,0,174.56,341.2Z" transform="translate(-92.16 -281.08)"/><path class="cls-1" d="M314.42,341.11a31.8,31.8,0,0,1,10.05-23.55,33.08,33.08,0,0,1,24.06-9.84,34,34,0,0,1,33.77,33.77,31.92,31.92,0,0,1-10,23.77,34.3,34.3,0,0,1-46.85,1.09Q314.41,356.72,314.42,341.11Zm12.57.13a21.37,21.37,0,0,0,36.5,15.6,22.36,22.36,0,0,0,.08-30.91,21.53,21.53,0,0,0-30.38,0A20.81,20.81,0,0,0,327,341.24Z" transform="translate(-92.16 -281.08)"/><path class="cls-1" d="M214.68,328a18.32,18.32,0,0,0-13.38-5.57A18.6,18.6,0,0,0,187.82,328a18.85,18.85,0,0,0,.57,27.47,19.25,19.25,0,0,0,26.25-.63,18.06,18.06,0,0,0,5.63-13.38A18.33,18.33,0,0,0,214.68,328Zm-20.21,6.42a9.58,9.58,0,0,1,13.52,0,10.07,10.07,0,0,1,0,13.85,9.16,9.16,0,0,1-6.84,2.79,9.07,9.07,0,0,1-6.56-2.77,10,10,0,0,1-.08-13.87Z" transform="translate(-92.16 -281.08)"/><path class="cls-2" d="M221.11,449.37c-3.82-4.19-11.4-14.9-29.54-19S191,407.7,213,415.86l-15.36-58.78s-2.25-9.65,6.44-11.92,11.65,5.42,11.88,6.31S223,378.05,223,378.05s1.27-7.16,7.4-8.76,10,2.71,11.29,7.7c-1.2-4.6,12.89-13.88,19.36.94,2.94-6.5,14.65-8.19,16.95.62,1.63,6.25,4.25,11.17,6.94,27.92" transform="translate(-92.16 -281.08)"/><path class="cls-1" d="M288.81,405.84a136.3,136.3,0,0,0-5.54-23.4c-.57-1.76-1.06-3.29-1.48-4.89a11.59,11.59,0,0,0-10.55-9,14.56,14.56,0,0,0-9.62,2.68,13.49,13.49,0,0,0-15.42-4.55,15.66,15.66,0,0,0-4.35,2.35,12.26,12.26,0,0,0-12.5-3.6,12.81,12.81,0,0,0-4.93,2.53c-2-7.48-4.44-17-4.58-17.51a14.34,14.34,0,0,0-3.89-6.23c-3.36-3.17-7.92-4.2-12.84-2.92-9.12,2.39-10.56,11.27-9.3,16.66l0,.11,13.64,52.19c-9.95-1.63-18.53,1.28-23.27,5.57-3.38,3.07-4.8,6.85-3.87,10.36.71,2.74,3.09,6.35,10.35,8,15,3.41,21.94,11.45,26.09,16.25.52.59,1,1.13,1.4,1.59a4,4,0,0,0,2.94,1.29,3.93,3.93,0,0,0,2.67-1,4,4,0,0,0,.26-5.61c-.38-.41-.8-.89-1.26-1.43-4.48-5.17-12.82-14.8-30.34-18.79-3.35-.77-4.34-1.9-4.43-2.27s.25-1.3,1.53-2.46c3.9-3.54,12.48-5.72,22.11-2.16a4,4,0,0,0,5.22-4.73l-15.34-58.69c-.31-1.45-.87-6,3.58-7.16,5.19-1.35,6.8,2.73,7,3.48s7,26.57,7,26.57h0l4.24,16.22a4,4,0,0,0,3.84,3,3.81,3.81,0,0,0,1-.13,4,4,0,0,0,2.84-4.85l-4-15.23c.42-1.36,1.62-4.21,4.3-4.91,4.37-1.14,6,3,6.45,4.85h0l3.88,14.82a4,4,0,0,0,3.83,3,3.89,3.89,0,0,0,1-.13,4,4,0,0,0,2.84-4.85l-3.75-14.33a6.9,6.9,0,0,1,5-2.63c2.7-.12,4.92,1.73,6.6,5.46L260,389.73a4,4,0,1,0,7.68-2l-2.39-9.13a6.6,6.6,0,0,1,5.3-2.11,3.71,3.71,0,0,1,3.54,3.08c.48,1.82,1,3.52,1.61,5.32A130,130,0,0,1,281,407.1a4,4,0,1,0,7.84-1.26Z" transform="translate(-92.16 -281.08)"/><path class="cls-1" d="M372.84,527c-13.27,10.75-39.82,20-61.73,20-42.35,0-76.27-27.39-76.27-73.53,0-46.56,33.92-73.95,76.27-73.95,23.18,0,41.93,7.79,56.26,19.17l-16.23,26.76c-10.74-8.43-23.59-13.27-39.4-13.27-23,0-40.45,15-40.45,41.29,0,25.92,17.49,40.88,42.14,40.88a58,58,0,0,0,25.91-6.11V487.2H305v-27h67.84Z" transform="translate(-92.16 -281.08)"/><path class="cls-1" d="M455.08,432.63v112.3h-35.4V432.63h-44v-31H497.85v31Z" transform="translate(-92.16 -281.08)"/></svg>