<?xml version="1.0" encoding="UTF-8" standalone="no"?>
<!-- Generator: Adobe Illustrator 21.0.0, SVG Export Plug-In . SVG Version: 6.00 Build 0)  -->

<svg
   xmlns:dc="http://purl.org/dc/elements/1.1/"
   xmlns:cc="http://creativecommons.org/ns#"
   xmlns:rdf="http://www.w3.org/1999/02/22-rdf-syntax-ns#"
   xmlns:svg="http://www.w3.org/2000/svg"
   xmlns="http://www.w3.org/2000/svg"
   xmlns:sodipodi="http://sodipodi.sourceforge.net/DTD/sodipodi-0.dtd"
   xmlns:inkscape="http://www.inkscape.org/namespaces/inkscape"
   version="1.1"
   id="Calque_1"
   x="0px"
   y="0px"
   viewBox="0 0 253 77"
   style="enable-background:new 0 0 253 77;"
   xml:space="preserve"
   sodipodi:docname="followGTwhite.svg"
   inkscape:version="0.92.4 (5da689c313, 2019-01-14)"><metadata
   id="metadata259"><rdf:RDF><cc:Work
       rdf:about=""><dc:format>image/svg+xml</dc:format><dc:type
         rdf:resource="http://purl.org/dc/dcmitype/StillImage" /></cc:Work></rdf:RDF></metadata><defs
   id="defs257" /><sodipodi:namedview
   pagecolor="#ffffff"
   bordercolor="#666666"
   borderopacity="1"
   objecttolerance="10"
   gridtolerance="10"
   guidetolerance="10"
   inkscape:pageopacity="0"
   inkscape:pageshadow="2"
   inkscape:window-width="2400"
   inkscape:window-height="1271"
   id="namedview255"
   showgrid="false"
   inkscape:zoom="4.9637219"
   inkscape:cx="122.4954"
   inkscape:cy="67.829401"
   inkscape:window-x="-9"
   inkscape:window-y="-9"
   inkscape:window-maximized="1"
   inkscape:current-layer="g252" />
<style
   type="text/css"
   id="style218">
	.st0{fill:#FFFFFF;}
	.st1{fill:#FFFFFF;stroke:#FFFFFF;stroke-width:1.6782;stroke-miterlimit:10;}
	.st2{fill:none;stroke:#FFFFFF;stroke-width:2.8528;stroke-linecap:round;stroke-linejoin:round;}
	.st3{fill:#FFFFFF;stroke:#FFFFFF;stroke-width:2.8528;stroke-linecap:round;stroke-linejoin:round;}
</style>
<g
   id="g252"
   transform="matrix(0.99760924,0,0,0.98699262,4.7815284e-4,1.000805)">
	<path
   class="st0"
   d="M 0.2,9.2 H 23 v 5.2 H 0.2 Z m 22.6,13.2 v 5 H 5.3 V 39.3 H 0.2 V 22.4 Z"
   id="path220"
   inkscape:connector-curvature="0"
   style="fill:#ffffff" />
	<path
   class="st0"
   d="M 62.2,5.6 V 39.2 H 57.6 V 5.6 Z"
   id="path222"
   inkscape:connector-curvature="0"
   style="fill:#ffffff" />
	<path
   class="st0"
   d="m 110.5,15.8 7,23.5 h -5.1 l -7,-23.5 h 5.1 z"
   id="path224"
   inkscape:connector-curvature="0"
   style="fill:#ffffff" />
	<path
   class="st0"
   d="m 124.5,15.8 -7,23.5 h -5.1 l 7,-23.5 h 5.1 z"
   id="path226"
   inkscape:connector-curvature="0"
   style="fill:#ffffff" />
	<path
   class="st0"
   d="m 124.5,15.8 7,23.5 h -5.1 l -7,-23.5 h 5.1 z"
   id="path228"
   inkscape:connector-curvature="0"
   style="fill:#ffffff" />
	<path
   class="st0"
   d="m 145.1,16.8 -7.7,25.8 h -5.6 l 7.7,-25.8 z"
   id="path230"
   inkscape:connector-curvature="0"
   style="fill:#ffffff" />
	<path
   class="st0"
   d="M 73.3,5.6 V 39.2 H 68.7 V 5.6 Z"
   id="path232"
   inkscape:connector-curvature="0"
   style="fill:#ffffff" />
	<path
   class="st0"
   d="m 25.5,27.5 c 0,-3.7 1.3,-6.9 3.9,-9.5 2.6,-2.7 5.8,-4 9.4,-4 3.6,0 6.7,1.3 9.3,4 2.6,2.7 3.9,5.9 3.9,9.6 0,3.8 -1.3,7 -3.9,9.6 -2.6,2.6 -5.8,4 -9.5,4 -3.3,0 -6.2,-1.2 -8.9,-3.5 -2.7,-2.6 -4.2,-6 -4.2,-10.2 z m 3.9,0 c 0,2.9 0.9,5.3 2.8,7.2 1.9,1.9 4.1,2.8 6.5,2.8 2.7,0 4.9,-1 6.8,-2.9 1.8,-1.9 2.8,-4.3 2.8,-7 0,-2.8 -0.9,-5.1 -2.7,-7 -1.8,-1.9 -4,-2.9 -6.7,-2.9 -2.6,0 -4.9,1 -6.7,2.9 -1.9,1.9 -2.8,4.2 -2.8,6.9 z"
   id="path234"
   inkscape:connector-curvature="0"
   style="fill:#ffffff" />
	<path
   class="st0"
   d="m 78.9,27.5 c 0,-3.3 1.2,-6.2 3.6,-8.6 2.4,-2.4 5.2,-3.6 8.5,-3.6 3.3,0 6.1,1.2 8.4,3.6 2.4,2.4 3.5,5.3 3.5,8.7 0,3.4 -1.2,6.3 -3.5,8.7 -2.4,2.4 -5.2,3.6 -8.6,3.6 -3,0 -5.6,-1.1 -8,-3.2 -2.6,-2.3 -3.9,-5.4 -3.9,-9.2 z m 4.4,0.1 c 0,2.3 0.8,4.2 2.3,5.7 1.5,1.5 3.2,2.2 5.2,2.2 2.1,0 3.9,-0.8 5.4,-2.3 1.5,-1.5 2.2,-3.4 2.2,-5.6 0,-2.2 -0.7,-4.1 -2.2,-5.6 -1.4,-1.5 -3.2,-2.3 -5.4,-2.3 -2.1,0 -3.9,0.8 -5.4,2.3 -1.3,1.5 -2.1,3.3 -2.1,5.6 z"
   id="path236"
   inkscape:connector-curvature="0"
   style="fill:#ffffff" />
	<path
   class="st1"
   d="m 32.9,27.6 c 0,-1.6 0.6,-3.1 1.8,-4.2 1.2,-1.2 2.6,-1.8 4.2,-1.8 1.6,0 3,0.6 4.1,1.8 1.2,1.2 1.7,2.6 1.7,4.3 0,1.7 -0.6,3.1 -1.7,4.3 -1.2,1.2 -2.6,1.8 -4.2,1.8 -1.5,0 -2.8,-0.5 -3.9,-1.6 -1.4,-1.3 -2,-2.8 -2,-4.6 z m 1.7,0 c 0,1.3 0.4,2.4 1.3,3.2 0.8,0.8 1.8,1.2 2.9,1.2 1.2,0 2.2,-0.4 3,-1.3 0.8,-0.9 1.2,-1.9 1.2,-3.1 0,-1.2 -0.4,-2.3 -1.2,-3.1 -0.8,-0.8 -1.8,-1.3 -3,-1.3 -1.2,0 -2.2,0.4 -3,1.3 -0.8,0.8 -1.2,1.9 -1.2,3.1 z"
   id="path238"
   inkscape:connector-curvature="0"
   style="fill:#ffffff;stroke:#ffffff;stroke-width:1.67820001;stroke-miterlimit:10" />
	<path
   class="st2"
   d="M 50.9,75.5 C 49.5,74 48.6,63.6 35.4,60.1 29,58.4 35.2,51.8 43,54.8 L 37.6,33.3 c 0,0 -0.8,-3.5 2.3,-4.4 3.1,-0.8 4.1,2 4.2,2.3 0.1,0.3 2.5,9.7 2.5,9.7 0,0 0.4,-2.6 2.6,-3.2 2.2,-0.6 3.5,1 4,2.8 -0.4,-1.7 4.6,-5.1 6.8,0.3 1,-2.4 5.2,-3 6,0.2 0.6,2.3 1.5,4.1 2.5,10.2"
   id="path240"
   inkscape:connector-curvature="0"
   style="fill:none;stroke:#ffffff;stroke-width:2.85279989;stroke-linecap:round;stroke-linejoin:round" />
	<line
   class="st3"
   x1="46.5"
   y1="41"
   x2="48"
   y2="46.900002"
   id="line242"
   style="fill:#ffffff;stroke:#ffffff;stroke-width:2.85279989;stroke-linecap:round;stroke-linejoin:round" />
	<line
   class="st3"
   x1="53.099998"
   y1="40.599998"
   x2="54.5"
   y2="46"
   id="line244"
   style="fill:#ffffff;stroke:#ffffff;stroke-width:2.85279989;stroke-linecap:round;stroke-linejoin:round" />
	<line
   class="st3"
   x1="60"
   y1="41"
   x2="61"
   y2="44.900002"
   id="line246"
   style="fill:#ffffff;stroke:#ffffff;stroke-width:2.85279989;stroke-linecap:round;stroke-linejoin:round" />
	<path
   class="st0"
   d="m 208.8,46 c -4.7,3.9 -14.1,7.3 -21.8,7.3 -15,0 -27,-10 -27,-26.8 0,-17 12,-27 27,-27 8.2,0 14.8,2.8 19.9,7 l -5.7,9.8 c -3.8,-3.1 -8.3,-4.8 -13.9,-4.8 -8.1,0 -14.3,5.5 -14.3,15.1 0,9.5 6.2,14.9 14.9,14.9 3.3,0 6.6,-0.8 9.2,-2.2 v -7.7 h -12.2 v -9.8 h 24 V 46 Z"
   id="path248"
   inkscape:connector-curvature="0"
   style="fill:#ffffff" />
	<path
   class="st0"
   d="m 237.9,11.6 v 41 h -12.5 v -41 H 209.8 V 0.2 H 253 v 11.3 h -15.1 z"
   id="path250"
   inkscape:connector-curvature="0"
   style="fill:#ffffff" />
</g>
</svg>