<svg id="Calque_1" data-name="Calque 1" xmlns="http://www.w3.org/2000/svg" viewBox="0 0 387.36 172.48"><defs><style>.cls-1{fill:#fff;}</style></defs><path class="cls-1" d="M74.3,113.19c-2.75,0-6.06-1-9.81-3.89C51.33,99,40.45,70.66,43.7,55.09,45,48.7,48.75,44.41,54.16,43c13.21-3.38,19,13.71,24.59,30.24,2.19,6.46,4.67,13.8,7.52,19.22l1.88-3c6.71-10.92,15.06-24.51,26.91-18,5.12,2.79,6.87,8.59,4.69,15.51a35.56,35.56,0,0,1-10,14.9c-5.4,4.83-11.26,7.17-16.54,6.58a13.25,13.25,0,0,1-6.46-2.59A22.79,22.79,0,0,1,79.39,112h0A11.44,11.44,0,0,1,74.3,113.19ZM57.05,50.67a3.54,3.54,0,0,0-.91.11c-1.53.39-3.67,1.43-4.61,5.95-2.6,12.46,7.26,38,17.88,46.26,2.61,2,4.79,2.64,6.49,1.82h0a17.64,17.64,0,0,0,5.4-5c-4.16-6.3-7.17-15.21-10.13-24C67.17,64,62.65,50.67,57.05,50.67ZM91.41,99.3a5.54,5.54,0,0,0,2.68,1.13c5.53.62,15.14-6.76,18-15.93.69-2.18,1.09-5-.89-6.08C106.8,76,102.63,81.15,95,93.63,93.77,95.57,92.6,97.48,91.41,99.3Z"/><polygon class="cls-1" points="185.08 96.86 175.76 71.17 170.34 71.17 161.01 96.86 151.44 71.17 141.79 71.17 158.14 111.84 163.56 111.84 173.05 87.61 182.53 111.84 187.96 111.84 204.31 71.17 194.65 71.17 185.08 96.86"/><path class="cls-1" d="M212.1,52.54a5.24,5.24,0,0,0-3.94,1.61,5.83,5.83,0,0,0,0,8,5.67,5.67,0,0,0,7.92,0,6,6,0,0,0,0-8A5.21,5.21,0,0,0,212.1,52.54Z"/><rect class="cls-1" x="207.44" y="71.17" width="9.32" height="40.66"/><path class="cls-1" d="M229.8,52.54a5.26,5.26,0,0,0-3.94,1.61,5.86,5.86,0,0,0,0,8,5.29,5.29,0,0,0,3.94,1.61,5.23,5.23,0,0,0,4-1.61,5.94,5.94,0,0,0,0-8A5.19,5.19,0,0,0,229.8,52.54Z"/><rect class="cls-1" x="225.14" y="71.17" width="9.32" height="40.66"/><rect class="cls-1" x="242.76" y="50.84" width="9.32" height="60.99"/><path class="cls-1" d="M289.78,73.12a21.3,21.3,0,0,0-10.85-2.79,20.8,20.8,0,0,0-10.75,2.83,21.46,21.46,0,0,0-7.67,7.59,20.4,20.4,0,0,0-2.84,10.67,20.87,20.87,0,0,0,2.84,10.76,21.18,21.18,0,0,0,7.67,7.66,20.72,20.72,0,0,0,10.75,2.84,21.07,21.07,0,0,0,21.35-21.26,20.58,20.58,0,0,0-2.84-10.72A21,21,0,0,0,289.78,73.12Zm-.55,24.65a10.92,10.92,0,0,1-4.15,4.37,12,12,0,0,1-6.15,1.56,11.78,11.78,0,0,1-6.05-1.56,10.79,10.79,0,0,1-4.15-4.37,13.32,13.32,0,0,1-1.49-6.35,12.86,12.86,0,0,1,1.49-6.27,10.94,10.94,0,0,1,4.15-4.28,12.61,12.61,0,0,1,12.15,0,11.37,11.37,0,0,1,4.15,4.28,12.55,12.55,0,0,1,1.53,6.27A13.43,13.43,0,0,1,289.23,97.77Z"/><path class="cls-1" d="M334.93,71.17V75.5a14.6,14.6,0,0,0-4.07-3.23,17.79,17.79,0,0,0-8.47-1.94A18.34,18.34,0,0,0,312.61,73a19,19,0,0,0-6.87,7.24,21.24,21.24,0,0,0-2.49,10.33A21.74,21.74,0,0,0,305.74,101a18.88,18.88,0,0,0,6.87,7.33,18.34,18.34,0,0,0,9.78,2.67,17.52,17.52,0,0,0,8.39-1.95,14.83,14.83,0,0,0,4.15-3.31v4.41a9.81,9.81,0,0,1-3.22,7.75q-3.22,2.83-8.73,2.84a17.21,17.21,0,0,1-7.54-1.52,16.51,16.51,0,0,1-5.59-4.58l-6.1,6.1a19.89,19.89,0,0,0,7.8,6.56,25.54,25.54,0,0,0,11.26,2.34A24.33,24.33,0,0,0,334,127.17a18.6,18.6,0,0,0,7.54-6.82,19,19,0,0,0,2.71-10.21v-39Zm-4.75,29.57a11.81,11.81,0,0,1-5.93,1.44,12,12,0,0,1-6-1.44,10.16,10.16,0,0,1-4-4.07,13.37,13.37,0,0,1,0-12.07,10.23,10.23,0,0,1,4-4,12,12,0,0,1,6-1.44,11.81,11.81,0,0,1,5.93,1.44,10,10,0,0,1,3.94,4,13.79,13.79,0,0,1,0,12.11A9.93,9.93,0,0,1,330.18,100.74Z"/></svg>